<svg xmlns="http://www.w3.org/2000/svg" width="125.801" height="98.496" viewBox="0 0 125.801 98.496">
  <path id="Path_1232" data-name="Path 1232" d="M19.98-19.336V0H2.109V-19.336ZM62.871-94.863V0H39.2V-50.859q0-11.016-.527-13.242a4.948,4.948,0,0,0-2.9-3.369Q33.4-68.613,25.2-68.613H22.852v-11.06q17.168-3.7,26.074-15.19ZM127.91-62.754v31.641q0,10.781-1.172,15.7a21.708,21.708,0,0,1-4.863,9.2,20.966,20.966,0,0,1-8.906,6.152,34.28,34.28,0,0,1-11.66,1.875A43.384,43.384,0,0,1,87.188-.146,19.361,19.361,0,0,1,78.223-6.27a26.212,26.212,0,0,1-4.746-8.76q-1.406-4.6-1.406-14.619V-62.754q0-13.066,2.256-19.57a19.311,19.311,0,0,1,8.965-10.43Q90-96.68,99.551-96.68A34.1,34.1,0,0,1,113.5-93.955a23.275,23.275,0,0,1,9.2,6.65,21.944,21.944,0,0,1,4.131,8.848Q127.91-73.535,127.91-62.754Zm-23.672-7.969q0-7.559-.732-9.463t-3.428-1.9a3.39,3.39,0,0,0-3.486,2.021q-.85,2.021-.85,9.346v46.289q0,8.262.791,9.961t3.428,1.7a3.339,3.339,0,0,0,3.457-1.992q.82-1.992.82-8.965Z" transform="translate(-2.109 96.68)" fill="#d7d7d7" opacity="0.3"/>
</svg>
