<svg xmlns="http://www.w3.org/2000/svg" width="144.902" height="98.496" viewBox="0 0 144.902 98.496">
  <path id="Path_1227" data-name="Path 1227" d="M19.98-19.336V0H2.109V-19.336ZM82.207-62.754v31.641q0,10.781-1.172,15.7a21.708,21.708,0,0,1-4.863,9.2A20.966,20.966,0,0,1,67.266-.059a34.28,34.28,0,0,1-11.66,1.875A43.384,43.384,0,0,1,41.484-.146,19.361,19.361,0,0,1,32.52-6.27a26.212,26.212,0,0,1-4.746-8.76q-1.406-4.6-1.406-14.619V-62.754q0-13.066,2.256-19.57a19.311,19.311,0,0,1,8.965-10.43Q44.3-96.68,53.848-96.68a34.1,34.1,0,0,1,13.945,2.725,23.275,23.275,0,0,1,9.2,6.65,21.944,21.944,0,0,1,4.131,8.848Q82.207-73.535,82.207-62.754ZM58.535-70.723q0-7.559-.732-9.463t-3.428-1.9a3.39,3.39,0,0,0-3.486,2.021q-.85,2.021-.85,9.346v46.289q0,8.262.791,9.961t3.428,1.7a3.339,3.339,0,0,0,3.457-1.992q.82-1.992.82-8.965Zm83.848-24.141v15.176H113.027v16.113a17.732,17.732,0,0,1,14.18-6.5q9.785,0,14.795,5.479t5.01,21.064V-30a81.142,81.142,0,0,1-.967,14.795,20.677,20.677,0,0,1-4.131,8.73A19.845,19.845,0,0,1,133.1-.322a39.164,39.164,0,0,1-13.8,2.139,38.33,38.33,0,0,1-16.113-3.193,19.261,19.261,0,0,1-9.9-9.521q-2.93-6.328-2.93-19.57v-5.156h23.672v5.918a90.664,90.664,0,0,0,.645,13.066q.645,3.867,4.453,3.867a3.788,3.788,0,0,0,2.842-1.113,3.786,3.786,0,0,0,1.172-2.4q.088-1.289.205-11.191V-46.289q0-5.332-1.113-7.266a3.921,3.921,0,0,0-3.691-1.934,3.979,3.979,0,0,0-2.754,1,4.568,4.568,0,0,0-1.436,2.139,25.815,25.815,0,0,0-.322,5.3H90.586l1-47.812Z" transform="translate(-2.109 96.68)" fill="#d7d7d7" opacity="0.3"/>
</svg>
