<svg xmlns="http://www.w3.org/2000/svg" width="145.43" height="98.555" viewBox="0 0 145.43 98.555">
  <path id="Path_1228" data-name="Path 1228" d="M19.98-19.336V0H2.109V-19.336ZM82.207-62.754v31.641q0,10.781-1.172,15.7a21.708,21.708,0,0,1-4.863,9.2A20.966,20.966,0,0,1,67.266-.059a34.28,34.28,0,0,1-11.66,1.875A43.384,43.384,0,0,1,41.484-.146,19.361,19.361,0,0,1,32.52-6.27a26.212,26.212,0,0,1-4.746-8.76q-1.406-4.6-1.406-14.619V-62.754q0-13.066,2.256-19.57a19.311,19.311,0,0,1,8.965-10.43Q44.3-96.68,53.848-96.68a34.1,34.1,0,0,1,13.945,2.725,23.275,23.275,0,0,1,9.2,6.65,21.944,21.944,0,0,1,4.131,8.848Q82.207-73.535,82.207-62.754ZM58.535-70.723q0-7.559-.732-9.463t-3.428-1.9a3.39,3.39,0,0,0-3.486,2.021q-.85,2.021-.85,9.346v46.289q0,8.262.791,9.961t3.428,1.7a3.339,3.339,0,0,0,3.457-1.992q.82-1.992.82-8.965Zm89,1.055H123.867q0-6.621-.146-8.35a4.33,4.33,0,0,0-1.406-2.9,4.834,4.834,0,0,0-3.428-1.172,4.163,4.163,0,0,0-2.988,1.113,4.423,4.423,0,0,0-1.348,2.871q-.176,1.758-.176,7.09V-55.9a12.329,12.329,0,0,1,5.332-5.713,18.018,18.018,0,0,1,8.672-1.9A19.413,19.413,0,0,1,139.863-60a15.265,15.265,0,0,1,6.328,8.438,52.31,52.31,0,0,1,1.348,13.3V-30.7a104.78,104.78,0,0,1-.762,14.824,18.9,18.9,0,0,1-4.072,8.994,21.448,21.448,0,0,1-9.082,6.416,36.385,36.385,0,0,1-13.447,2.285q-9.551,0-15.645-2.637a21,21,0,0,1-9.4-7.588,22.681,22.681,0,0,1-3.867-10.4Q90.7-24.258,90.7-39.961V-53.086q0-16.934.5-22.646a21.932,21.932,0,0,1,4.072-10.811,21.7,21.7,0,0,1,9.756-7.646A37.2,37.2,0,0,1,119.3-96.738q9.961,0,16.348,3.223a19.276,19.276,0,0,1,9.141,9.082Q147.539-78.574,147.539-69.668Zm-23.672,29.59q0-5.039-1.113-6.914a3.9,3.9,0,0,0-3.633-1.875,3.965,3.965,0,0,0-3.6,1.787q-1.143,1.787-1.143,7V-22.91q0,6.27,1.084,8.2a3.8,3.8,0,0,0,3.6,1.934,4.818,4.818,0,0,0,3.164-1.494q1.641-1.494,1.641-8.057Z" transform="translate(-2.109 96.738)" fill="#d7d7d7" opacity="0.3"/>
</svg>
