<svg xmlns="http://www.w3.org/2000/svg" width="130.313" height="98.496" viewBox="0 0 130.313 98.496">
  <path id="Path_1229" data-name="Path 1229" d="M19.98-19.336V0H2.109V-19.336ZM82.207-62.754v31.641q0,10.781-1.172,15.7a21.708,21.708,0,0,1-4.863,9.2A20.966,20.966,0,0,1,67.266-.059a34.28,34.28,0,0,1-11.66,1.875A43.384,43.384,0,0,1,41.484-.146,19.361,19.361,0,0,1,32.52-6.27a26.212,26.212,0,0,1-4.746-8.76q-1.406-4.6-1.406-14.619V-62.754q0-13.066,2.256-19.57a19.311,19.311,0,0,1,8.965-10.43Q44.3-96.68,53.848-96.68a34.1,34.1,0,0,1,13.945,2.725,23.275,23.275,0,0,1,9.2,6.65,21.944,21.944,0,0,1,4.131,8.848Q82.207-73.535,82.207-62.754ZM58.535-70.723q0-7.559-.732-9.463t-3.428-1.9a3.39,3.39,0,0,0-3.486,2.021q-.85,2.021-.85,9.346v46.289q0,8.262.791,9.961t3.428,1.7a3.339,3.339,0,0,0,3.457-1.992q.82-1.992.82-8.965Zm73.887-24.141v20.669L117.3,0H93.75L110.6-77.812H87.188V-94.863Z" transform="translate(-2.109 96.68)" fill="#d7d7d7" opacity="0.3"/>
</svg>
