<svg xmlns="http://www.w3.org/2000/svg" width="145.43" height="98.555" viewBox="0 0 145.43 98.555">
  <path id="Path_1231" data-name="Path 1231" d="M19.98-19.336V0H2.109V-19.336ZM82.207-62.754v31.641q0,10.781-1.172,15.7a21.708,21.708,0,0,1-4.863,9.2A20.966,20.966,0,0,1,67.266-.059a34.28,34.28,0,0,1-11.66,1.875A43.384,43.384,0,0,1,41.484-.146,19.361,19.361,0,0,1,32.52-6.27a26.212,26.212,0,0,1-4.746-8.76q-1.406-4.6-1.406-14.619V-62.754q0-13.066,2.256-19.57a19.311,19.311,0,0,1,8.965-10.43Q44.3-96.68,53.848-96.68a34.1,34.1,0,0,1,13.945,2.725,23.275,23.275,0,0,1,9.2,6.65,21.944,21.944,0,0,1,4.131,8.848Q82.207-73.535,82.207-62.754ZM58.535-70.723q0-7.559-.732-9.463t-3.428-1.9a3.39,3.39,0,0,0-3.486,2.021q-.85,2.021-.85,9.346v46.289q0,8.262.791,9.961t3.428,1.7a3.339,3.339,0,0,0,3.457-1.992q.82-1.992.82-8.965ZM90.7-25.2h23.672q0,6.621.176,8.35a4.45,4.45,0,0,0,1.436,2.9,4.834,4.834,0,0,0,3.428,1.172,4.163,4.163,0,0,0,2.988-1.113,4.3,4.3,0,0,0,1.318-2.871q.146-1.758.146-7.09V-38.965a12.02,12.02,0,0,1-5.273,5.713,18.154,18.154,0,0,1-8.73,1.9,19.413,19.413,0,0,1-11.484-3.516A15.265,15.265,0,0,1,92.051-43.3,52.31,52.31,0,0,1,90.7-56.6V-64.16a100.946,100.946,0,0,1,.791-14.824,19.275,19.275,0,0,1,4.072-8.994,21.208,21.208,0,0,1,9.082-6.416,36.619,36.619,0,0,1,13.477-2.285q9.492,0,15.586,2.637a21.188,21.188,0,0,1,9.434,7.588,22.25,22.25,0,0,1,3.867,10.4q.527,5.449.527,21.094v13.184q0,16.934-.469,22.646A21.563,21.563,0,0,1,143-8.32a21.909,21.909,0,0,1-9.756,7.646A36.976,36.976,0,0,1,119,1.875q-10.02,0-16.377-3.223a19.448,19.448,0,0,1-9.141-9.082Q90.7-16.289,90.7-25.2Zm23.672-29.59q0,5.977,1.553,7.383A4.748,4.748,0,0,0,119.121-46a3.965,3.965,0,0,0,3.6-1.787q1.143-1.787,1.143-7V-71.953q0-6.27-1.084-8.2a3.8,3.8,0,0,0-3.6-1.934,4.818,4.818,0,0,0-3.164,1.494q-1.641,1.494-1.641,8.057Z" transform="translate(-2.109 96.68)" fill="#d7d7d7" opacity="0.3"/>
</svg>
