<svg xmlns="http://www.w3.org/2000/svg" width="75.079" height="75.078" viewBox="0 0 75.079 75.078">
  <g id="auction" transform="translate(0 -0.001)">
    <g id="Сгруппировать_1872" data-name="Сгруппировать 1872" transform="translate(14.767 25.138)">
      <g id="Сгруппировать_1871" data-name="Сгруппировать 1871">
        <path id="Контур_2715" data-name="Контур 2715" d="M103.208,171.849a1.466,1.466,0,1,0,0,2.073A1.467,1.467,0,0,0,103.208,171.849Z" transform="translate(-100.704 -171.42)" fill="#ff8000"/>
      </g>
    </g>
    <g id="Сгруппировать_1874" data-name="Сгруппировать 1874" transform="translate(0 57.481)">
      <g id="Сгруппировать_1873" data-name="Сгруппировать 1873">
        <path id="Контур_2716" data-name="Контур 2716" d="M37.129,400.159a5.134,5.134,0,0,0-4.136-8.172H8.065a5.129,5.129,0,0,0-4.133,8.171A7.338,7.338,0,0,0,0,406.65v1.466a1.466,1.466,0,0,0,1.466,1.466H39.591a1.466,1.466,0,0,0,1.466-1.466V406.65A7.337,7.337,0,0,0,37.129,400.159Zm-30.619-4.6a2.185,2.185,0,0,1,1.556-.644H32.992a2.2,2.2,0,1,1,0,4.4H8.065a2.2,2.2,0,0,1-1.556-3.755ZM2.933,406.65a4.4,4.4,0,0,1,4.4-4.4H33.726a4.4,4.4,0,0,1,4.4,4.4Z" transform="translate(0 -391.987)" fill="#ff8000"/>
      </g>
    </g>
    <g id="Сгруппировать_1876" data-name="Сгруппировать 1876" transform="translate(0.003 0.001)">
      <g id="Сгруппировать_1875" data-name="Сгруппировать 1875" transform="translate(0 0)">
        <path id="Контур_2717" data-name="Контур 2717" d="M73.732,61.607a9.234,9.234,0,0,0-1.766-2.028L65.114,53.6a1.477,1.477,0,0,0-.186-.227,1.462,1.462,0,0,0-.4-.281L60.387,49.48,41.208,32.75a4.391,4.391,0,0,0-1.288-7l1.774-1.774a5.869,5.869,0,0,0,5.662-1.516,5.864,5.864,0,0,0,0-8.3L34.915,1.719A5.863,5.863,0,0,0,25.1,7.382L7.4,25.085a5.9,5.9,0,0,0-1.518-.2A5.865,5.865,0,0,0,1.736,34.9L14.178,47.34a5.863,5.863,0,0,0,9.811-5.662l1.771-1.771a4.4,4.4,0,0,0,7.006,1.286l20.428,23.47a1.473,1.473,0,0,0,.2.249c.026.026.054.05.082.074l6.087,6.994c.151.179.313.354.481.522a8.722,8.722,0,0,0,6.2,2.578,9,9,0,0,0,1.234-.085,8.873,8.873,0,0,0,6.547-4.532A8.677,8.677,0,0,0,73.732,61.607ZM28.694,3.793a2.932,2.932,0,0,1,4.148,0L45.283,16.235a2.932,2.932,0,0,1-4.146,4.148L28.694,7.94h0A2.935,2.935,0,0,1,28.694,3.793ZM20.4,45.266a2.936,2.936,0,0,1-4.148,0L3.81,32.825a2.932,2.932,0,0,1,4.146-4.149L20.4,41.12A2.935,2.935,0,0,1,20.4,45.266Zm6.174-10.32-4.1,4.1L10.03,26.6l16.59-16.59L39.063,22.456l-4.108,4.108-.04.039-8.291,8.291Zm5.236,3.059-.009.009-1.033,1.033a1.467,1.467,0,0,1-2.092-2.056l8.329-8.329a1.466,1.466,0,0,1,2.488,1.053,1.453,1.453,0,0,1-.43,1.037l-1.027,1.027-.021.021Zm3.037,1.111,4.286-4.286L57.277,50.658l-6.621,6.621ZM52.585,59.5l6.907-6.907,2.215,1.932-7.192,7.192Zm18.877,9.532a5.965,5.965,0,0,1-4.39,3.06,5.826,5.826,0,0,1-4.957-1.662c-.113-.113-.221-.23-.321-.349l-.014-.017-5.335-6.13,7.477-7.477,6.122,5.34.014.012a6.313,6.313,0,0,1,1.21,1.392A5.79,5.79,0,0,1,71.462,69.029Z" transform="translate(-0.021 -0.001)" fill="#ff8000"/>
      </g>
    </g>
    <g id="Сгруппировать_1878" data-name="Сгруппировать 1878" transform="translate(18.914 14.768)">
      <g id="Сгруппировать_1877" data-name="Сгруппировать 1877">
        <path id="Контур_2718" data-name="Контур 2718" d="M137.71,101.137a1.466,1.466,0,0,0-2.074,0l-6.222,6.222a1.466,1.466,0,0,0,2.074,2.074l6.222-6.222A1.466,1.466,0,0,0,137.71,101.137Z" transform="translate(-128.985 -100.707)" fill="#ff8000"/>
      </g>
    </g>
  </g>
</svg>
