<svg xmlns="http://www.w3.org/2000/svg" width="74" height="65" viewBox="0 0 74 65"><path d="M22.927,79.144a10.358,10.358,0,0,1,2.692,1.73V76.736a5.888,5.888,0,0,1,1.725-4.064,10.024,10.024,0,0,1,3.085-2.151,8.78,8.78,0,0,1-.664-3.369V59.783a5.332,5.332,0,0,1,1.332-3.57,4.276,4.276,0,0,1,3.2-1.487h5.42a4.291,4.291,0,0,1,3.2,1.487,5.348,5.348,0,0,1,1.327,3.57v7.369a8.82,8.82,0,0,1-.664,3.373,9.992,9.992,0,0,1,3.061,2.119,5.912,5.912,0,0,1,1.754,4.092v4.142a10.36,10.36,0,0,1,2.7-1.739,8.827,8.827,0,0,1-.659-3.36V68.41a5.351,5.351,0,0,1,1.332-3.57,4.276,4.276,0,0,1,3.2-1.487h5.416a4.284,4.284,0,0,1,3.2,1.487,5.35,5.35,0,0,1,1.327,3.57V75.78a8.785,8.785,0,0,1-.655,3.355,10.136,10.136,0,0,1,3.142,2.174,5.876,5.876,0,0,1,1.725,4.055v8.893h3.8A1.154,1.154,0,0,1,74,95.47a1.281,1.281,0,0,1-.242.76l-3.974,6.463,4.023,6.536a1.3,1.3,0,0,1-.274,1.68,1.026,1.026,0,0,1-.615.215H49.185l.4,5.758a2.829,2.829,0,0,1-.569,1.922,2.2,2.2,0,0,1-2.819.659L37,115.221l-9.329,4.3a2.213,2.213,0,0,1-2.757-.815,2.935,2.935,0,0,1-.5-1.826l.4-5.758H17.065a1.218,1.218,0,0,1,0-2.421h7.923l.213-3.062-6.485-8.5a2.353,2.353,0,0,1-.3-.458H3.143l3.269,5.309a1.328,1.328,0,0,1,.008,1.391L3.143,108.7h9.013a1.218,1.218,0,0,1,0,2.421H1.086A1.149,1.149,0,0,1,0,109.916a1.306,1.306,0,0,1,.242-.764l3.974-6.458L.2,96.157a1.222,1.222,0,0,1,.93-1.9h3.79V88.11A1.153,1.153,0,0,1,6,86.9,1.157,1.157,0,0,1,7.084,88.11v6.147H18.31a2.656,2.656,0,0,1,.7-.979,2.532,2.532,0,0,1,1.032-.522l5.58-1.506V85.364a3.423,3.423,0,0,0-1.069-2.325A8.12,8.12,0,0,0,21.706,81.2a6.909,6.909,0,0,1-5.355,2.659A6.923,6.923,0,0,1,10.993,81.2,7.513,7.513,0,0,0,7.719,83.56a1.009,1.009,0,0,1-1.52.183,1.306,1.306,0,0,1-.168-1.7,9.386,9.386,0,0,1,3.74-2.906,8.827,8.827,0,0,1-.659-3.36V68.41a5.352,5.352,0,0,1,1.331-3.57,4.277,4.277,0,0,1,3.2-1.487h8.862a1.153,1.153,0,0,1,1.082,1.213V75.78a8.835,8.835,0,0,1-.66,3.364ZM62.738,73.8l-6.121-2.316-4.015,2.2v2.1a5.988,5.988,0,0,0,1.487,4,4.677,4.677,0,0,0,7.157,0,5.97,5.97,0,0,0,1.491-4V73.8ZM52.6,71l3.4-1.863a.975.975,0,0,1,.885-.1l5.846,2.211V68.41a2.789,2.789,0,0,0-.692-1.858,2.24,2.24,0,0,0-1.667-.778H54.962a2.232,2.232,0,0,0-1.667.778A2.768,2.768,0,0,0,52.6,68.41V71ZM11.279,69.422h10.14V65.774H13.643a2.227,2.227,0,0,0-1.667.778,2.772,2.772,0,0,0-.7,1.858Zm10.14,2.421H11.279V75.78a5.991,5.991,0,0,0,1.491,4,4.677,4.677,0,0,0,7.158,0,5.971,5.971,0,0,0,1.491-4V71.843Zm20.653-6.861a7.326,7.326,0,0,1-6.58-1.95,5.461,5.461,0,0,1-3.56.938v3.181a5.991,5.991,0,0,0,1.491,4,4.677,4.677,0,0,0,7.157,0,5.971,5.971,0,0,0,1.491-4v-2.17Zm-10.14-3.447a3.483,3.483,0,0,0,2.978-.993,1,1,0,0,1,1.524.124,5.361,5.361,0,0,0,5.638,1.872V59.783a2.773,2.773,0,0,0-.7-1.858,2.225,2.225,0,0,0-1.664-.778h-5.42a2.225,2.225,0,0,0-1.664.778,2.772,2.772,0,0,0-.7,1.858ZM52.311,81.2a8.211,8.211,0,0,0-2.9,1.886,3.389,3.389,0,0,0-1.02,2.279V91.25L54.1,92.793a2.378,2.378,0,0,1,1.458,1.19,2.7,2.7,0,0,1,.135.275H66.949V85.364a3.4,3.4,0,0,0-1.049-2.3A8.121,8.121,0,0,0,63.024,81.2c-.078.1-.16.192-.242.284a6.69,6.69,0,0,1-10.226,0q-.129-.138-.246-.289ZM31.654,72.585a8.072,8.072,0,0,0-2.819,1.84,3.418,3.418,0,0,0-1.049,2.311V90.669l1.917-.517,5.281-9.607a2.414,2.414,0,0,1,1.471-1.19,2.28,2.28,0,0,1,2.577,1.208l5.273,9.589,1.913.517V76.736a3.417,3.417,0,0,0-1.065-2.33,8.155,8.155,0,0,0-2.8-1.826,6.719,6.719,0,0,1-10.7,0ZM55.593,96.679a2.642,2.642,0,0,1-.254.394l-1.819,2.389A1.006,1.006,0,0,1,52,99.594a1.305,1.305,0,0,1-.119-1.7L53.7,95.5a.261.261,0,0,0,.037-.22.206.206,0,0,0-.139-.146Q48.511,93.77,43.441,92.4a1.066,1.066,0,0,1-.75-.558L37.184,81.83a.19.19,0,0,0-.18-.124.185.185,0,0,0-.172.105L31.318,91.84a1.109,1.109,0,0,1-.672.54q-5.052,1.36-10.1,2.723c-.1.032-.209.032-.262.151a.244.244,0,0,0,.025.247l6.789,8.9a1.279,1.279,0,0,1,.295.925q-.406,5.863-.815,11.736a.244.244,0,0,0,.074.188.19.19,0,0,0,.2.037l9.734-4.49a.961.961,0,0,1,.823,0l9.616,4.435c.16.064.418.146.4-.169q-.406-5.87-.815-11.736a1.319,1.319,0,0,1,.258-.879l1.823-2.385a1,1,0,0,1,1.524-.133,1.315,1.315,0,0,1,.119,1.7l-1.528,2,.209,3.062H70.862l-3.269-5.309a1.32,1.32,0,0,1-.008-1.387l3.277-5.328Z" transform="translate(0 -54.725)" fill="#031c41"/></svg>
