<svg xmlns="http://www.w3.org/2000/svg" width="90.034" height="69.761" viewBox="0 0 90.034 69.761">
  <g id="XMLID_1321_" transform="translate(0 -57.647)">
    <g id="XMLID_396_" transform="translate(0 57.647)">
      <path id="XMLID_429_" d="M89.469,81.357l-2.345-4.062a1.758,1.758,0,0,0-3.046,1.758l2.345,4.062a.686.686,0,0,1-.251.937l-6.2,3.581a.688.688,0,0,1-.938-.251L66.557,65.773a.687.687,0,0,1,.251-.938l6.2-3.58a.688.688,0,0,1,.938.251l2.218,3.841a1.758,1.758,0,0,0,3.046-1.758l-2.218-3.841a4.208,4.208,0,0,0-5.742-1.538l-6.2,3.581a4.188,4.188,0,0,0-1.9,2.363H45.569a9.181,9.181,0,0,0-6.535,2.707l-1.8,1.8a20.8,20.8,0,0,0-4.825-.57H26.949A4.19,4.19,0,0,0,24.984,65.5l-6.2-3.581a4.2,4.2,0,0,0-5.742,1.538L.565,85.07A4.2,4.2,0,0,0,2.1,90.812l6.2,3.581a4.177,4.177,0,0,0,2.094.562,4.231,4.231,0,0,0,.772-.072l5.076,5.076a6.4,6.4,0,0,0-.118,1.224,6.319,6.319,0,0,0,5.974,6.312,6.423,6.423,0,0,0-.036.668,6.326,6.326,0,0,0,6.326,6.326c.046,0,.091,0,.137,0,0,.046,0,.091,0,.137a6.326,6.326,0,0,0,6.326,6.326c.046,0,.091,0,.137,0,0,.046,0,.091,0,.137a6.326,6.326,0,0,0,10.8,4.473l2.5-2.5a6.286,6.286,0,0,0,1.544-2.53,6.331,6.331,0,0,0,9.8-3.215,6.329,6.329,0,0,0,9.649-4.025,6.327,6.327,0,0,0,6.468-10.478l-4.1-4.1,7.491-7.491a4.234,4.234,0,0,0,.5.031,4.178,4.178,0,0,0,2.094-.562l6.2-3.58a4.2,4.2,0,0,0,1.539-5.741ZM3.862,87.766a.686.686,0,0,1-.251-.938L16.087,65.22a.683.683,0,0,1,.417-.32.705.705,0,0,1,.18-.023.677.677,0,0,1,.341.092l6.2,3.581a.687.687,0,0,1,.251.938L11,91.1a.687.687,0,0,1-.938.251Zm15.785,13.416a2.791,2.791,0,0,1,.823-1.987l1.518-1.518a2.809,2.809,0,1,1,3.973,3.973l-1.518,1.518a2.809,2.809,0,0,1-4.8-1.986Zm8.748,9.789a2.809,2.809,0,0,1-1.986-4.8l2.5-2.5a2.809,2.809,0,1,1,3.973,3.973l-2.5,2.5A2.791,2.791,0,0,1,28.394,110.972Zm6.46,6.46a2.809,2.809,0,0,1-1.986-4.8l2.5-2.5a2.809,2.809,0,1,1,3.973,3.973l-2.5,2.5A2.791,2.791,0,0,1,34.854,117.432ZM45.8,120.567l-2.5,2.5a2.809,2.809,0,1,1-3.973-3.973l2.5-2.5a2.809,2.809,0,1,1,3.973,3.973Zm27.457-11.3a2.809,2.809,0,0,1-3.973,0L52.5,92.481a1.758,1.758,0,1,0-2.487,2.487L65.067,110.02a2.809,2.809,0,1,1-3.973,3.973L43.007,95.906a1.758,1.758,0,0,0-2.487,2.487l15.052,15.052a2.809,2.809,0,0,1-3.973,3.973l-3.31-3.31-.014-.013a6.306,6.306,0,0,0-4.6-1.833c0-.047,0-.093,0-.14a6.318,6.318,0,0,0-6.463-6.32c0-.047,0-.093,0-.14a6.322,6.322,0,0,0-6.93-6.294A6.326,6.326,0,0,0,19.5,95.192l-1.518,1.518-.005.005-3.9-3.9,12.241-21.2h6.095a17.266,17.266,0,0,1,1.785.093l-2.01,2.01a6.326,6.326,0,0,0,8.946,8.947l4.747-4.747,27.382,27.382a2.812,2.812,0,0,1,0,3.973ZM56.364,83.424a9.979,9.979,0,0,0,4.127-8.088,1.758,1.758,0,0,0-3.517,0,6.462,6.462,0,0,1-3.149,5.549l-6.7-6.7a1.757,1.757,0,0,0-2.485-.018l-6,6A2.809,2.809,0,1,1,34.669,76.2l6.851-6.851a5.687,5.687,0,0,1,4.048-1.676H63.592l12.4,21.471c.029.051.061.1.092.148l-6.926,6.926Z" transform="translate(0 -57.647)" fill="#ff8000"/>
      <path id="XMLID_436_" d="M456.066,128.931a1.759,1.759,0,1,0-1.243-.515A1.775,1.775,0,0,0,456.066,128.931Z" transform="translate(-374.421 -113.498)" fill="#ff8000"/>
    </g>
  </g>
</svg>
