<svg xmlns="http://www.w3.org/2000/svg" width="85" height="69.079" viewBox="0 0 85 69.079">
  <g id="Сгруппировать_1847" data-name="Сгруппировать 1847" transform="translate(-808 -3485)">
    <g id="review" transform="translate(808 3485)">
      <path id="Контур_2693" data-name="Контур 2693" d="M22.234,55.53l-6.544-.951-2.926-5.93a1.253,1.253,0,0,0-2.232,0L7.6,54.579l-6.544.951a1.253,1.253,0,0,0-.69,2.123l4.735,4.616L3.989,68.786A1.253,1.253,0,0,0,5.794,70.1l5.853-3.077L17.5,70.1a1.253,1.253,0,0,0,1.806-1.312l-1.118-6.517,4.735-4.616A1.253,1.253,0,0,0,22.234,55.53Zm-6.251,5.413a1.245,1.245,0,0,0-.358,1.1l.8,4.677-4.2-2.208a1.245,1.245,0,0,0-1.158,0l-4.2,2.208.8-4.677a1.245,1.245,0,0,0-.358-1.1l-3.4-3.312,4.7-.682a1.244,1.244,0,0,0,.937-.681l2.1-4.255,2.1,4.255a1.245,1.245,0,0,0,.937.681l4.7.682Z" transform="translate(0 -47.966)" fill="#ff8000"/>
      <path id="Контур_2694" data-name="Контур 2694" d="M22.234,196.53l-6.544-.951-2.926-5.93a1.253,1.253,0,0,0-2.232,0L7.6,195.579l-6.544.951a1.253,1.253,0,0,0-.69,2.123l4.735,4.616-1.118,6.517A1.253,1.253,0,0,0,5.794,211.1l5.853-3.077L17.5,211.1a1.253,1.253,0,0,0,1.806-1.312l-1.118-6.517,4.735-4.616A1.253,1.253,0,0,0,22.234,196.53Zm-6.251,5.413a1.245,1.245,0,0,0-.358,1.1l.8,4.677-4.2-2.208a1.245,1.245,0,0,0-1.158,0l-4.2,2.208.8-4.677a1.245,1.245,0,0,0-.358-1.1l-3.4-3.312,4.7-.682a1.244,1.244,0,0,0,.937-.681l2.1-4.255,2.1,4.255a1.245,1.245,0,0,0,.937.681l4.7.682Z" transform="translate(0 -165.566)" fill="#ff8000"/>
      <path id="Контур_2695" data-name="Контур 2695" d="M22.234,337.53l-6.544-.951-2.926-5.93a1.253,1.253,0,0,0-2.232,0L7.6,336.579l-6.544.951a1.253,1.253,0,0,0-.69,2.123l4.735,4.616-1.118,6.517A1.253,1.253,0,0,0,5.794,352.1l5.853-3.077L17.5,352.1a1.253,1.253,0,0,0,1.806-1.312l-1.118-6.517,4.735-4.616A1.253,1.253,0,0,0,22.234,337.53Zm-6.251,5.413a1.245,1.245,0,0,0-.358,1.1l.8,4.677-4.2-2.208a1.245,1.245,0,0,0-1.158,0l-4.2,2.208.8-4.677a1.245,1.245,0,0,0-.358-1.1l-3.4-3.312,4.7-.682a1.244,1.244,0,0,0,.937-.681l2.1-4.255,2.1,4.255a1.245,1.245,0,0,0,.937.681l4.7.682Z" transform="translate(0 -283.167)" fill="#ff8000"/>
      <path id="Контур_2696" data-name="Контур 2696" d="M229.873,74.342h-3.586a1.245,1.245,0,0,0,0,2.489h3.586a.415.415,0,0,1,.415.415V84.88a.415.415,0,0,1-.415.415H180.086a.415.415,0,0,1-.415-.415V77.246a.415.415,0,0,1,.415-.415h40.393a1.245,1.245,0,1,0,0-2.489H180.086a2.908,2.908,0,0,0-2.9,2.9V84.88a2.908,2.908,0,0,0,2.9,2.9h49.787a2.908,2.908,0,0,0,2.9-2.9V77.246A2.908,2.908,0,0,0,229.873,74.342Z" transform="translate(-147.778 -69.965)" fill="#ff8000"/>
      <path id="Контур_2697" data-name="Контур 2697" d="M228.321,107.342a1.245,1.245,0,1,0,0,2.489h34.851a1.245,1.245,0,0,0,0-2.489Z" transform="translate(-189.391 -97.488)" fill="#ff8000"/>
      <path id="Контур_2698" data-name="Контур 2698" d="M216.6,215.342h-36.51a2.908,2.908,0,0,0-2.9,2.9v7.634a2.908,2.908,0,0,0,2.9,2.9H208.2a1.245,1.245,0,0,0,0-2.489H180.086a.415.415,0,0,1-.415-.415v-7.634a.415.415,0,0,1,.415-.415H216.6a.415.415,0,0,1,.415.415v7.634a.415.415,0,0,1-.415.415h-2.59a1.245,1.245,0,0,0,0,2.489h2.59a2.908,2.908,0,0,0,2.9-2.9v-7.634A2.908,2.908,0,0,0,216.6,215.342Z" transform="translate(-147.778 -187.565)" fill="#ff8000"/>
      <path id="Контур_2699" data-name="Контур 2699" d="M251.554,248.342H228.321a1.245,1.245,0,0,0,0,2.489h23.234a1.245,1.245,0,1,0,0-2.489Z" transform="translate(-189.391 -215.088)" fill="#ff8000"/>
      <path id="Контур_2700" data-name="Контур 2700" d="M200,356.342H188.449a1.245,1.245,0,1,0,0,2.489H200a.415.415,0,0,1,.415.415v7.634a.415.415,0,0,1-.415.415H180.086a.415.415,0,0,1-.415-.415v-7.634a.415.415,0,0,1,.415-.415h2.555a1.245,1.245,0,1,0,0-2.489h-2.555a2.908,2.908,0,0,0-2.9,2.9v7.634a2.908,2.908,0,0,0,2.9,2.9H200a2.908,2.908,0,0,0,2.9-2.9v-7.634A2.908,2.908,0,0,0,200,356.342Z" transform="translate(-147.778 -305.165)" fill="#ff8000"/>
      <path id="Контур_2701" data-name="Контур 2701" d="M231.724,391.831a1.245,1.245,0,1,0,0-2.489h-8.3a1.245,1.245,0,1,0,0,2.489Z" transform="translate(-185.31 -332.689)" fill="#ff8000"/>
    </g>
  </g>
</svg>
