<svg id="money-bag" xmlns="http://www.w3.org/2000/svg" width="63.621" height="82.521" viewBox="0 0 63.621 82.521">
  <g id="Сгруппировать_1845" data-name="Сгруппировать 1845" transform="translate(0 0)">
    <path id="Контур_2680" data-name="Контур 2680" d="M142.866,259.636c0-8.284-5.481-15.024-12.218-15.024s-12.218,6.739-12.218,15.024,5.481,15.019,12.218,15.019S142.866,267.917,142.866,259.636Zm-21.8,0c0-6.494,4.3-11.777,9.578-11.777s9.578,5.283,9.578,11.777-4.3,11.773-9.578,11.773S121.07,266.127,121.07,259.636Z" transform="translate(-105.332 -205.187)" fill="#ff8000"/>
    <path id="Контур_2681" data-name="Контур 2681" d="M92.179,53.967a1.309,1.309,0,0,0-1.048-.442c-.21.013-.418.02-.618.02a5.472,5.472,0,0,1-4.87-2.385,1.349,1.349,0,0,0-1.1-.6H79.434l-.52-5.98a17.281,17.281,0,0,0-5.07-10.887,15.685,15.685,0,0,0-6.434-3.8,5.338,5.338,0,0,0,.477-2.222,4.908,4.908,0,0,0-2.323-4.3l4.019-13.131a5.847,5.847,0,0,0-.714-5.371,3.664,3.664,0,0,0-3.863-1.39c-1.718.46-3.055,2.119-3.68,4.562a1.376,1.376,0,0,1-1.619.906c-.9-.33-.626-2.14-.522-2.687a5.774,5.774,0,0,0-.752-4.669,4.494,4.494,0,0,0-6.86,0,5.776,5.776,0,0,0-.752,4.671c.1.547.373,2.355-.522,2.686a1.379,1.379,0,0,1-1.623-.907C48.051,5.6,46.715,3.941,45,3.481a3.664,3.664,0,0,0-3.861,1.387,5.849,5.849,0,0,0-.717,5.372l4.022,13.131a4.908,4.908,0,0,0-2.323,4.3,5.339,5.339,0,0,0,.477,2.222,15.685,15.685,0,0,0-6.435,3.8A17.264,17.264,0,0,0,31.093,44.58L29.047,68.046a7.478,7.478,0,0,0,1.26,5.418c1.761,2.238,4.9,2.547,8.031,2.547h10.33a1.639,1.639,0,0,0,0-3.246H38.338c-2.223,0-4.908-.168-5.938-1.478a4.09,4.09,0,0,1-.545-2.916L33.9,44.9A13.43,13.43,0,0,1,46.488,32.48l-1.809,2.08a1.8,1.8,0,0,0,0,2.3,1.285,1.285,0,0,0,2,0l3.826-4.4h3.09v3.1a1.425,1.425,0,1,0,2.823,0v-3.1h3.412l3.508,4.033a1.285,1.285,0,0,0,2,0,1.8,1.8,0,0,0,0-2.3l-1.47-1.69A13.442,13.442,0,0,1,76.105,44.9l.5,5.758a1.433,1.433,0,0,0-.607.5,5.472,5.472,0,0,1-4.87,2.385c-.2,0-.408-.007-.618-.02a1.313,1.313,0,0,0-1.048.442,1.746,1.746,0,0,0-.441,1.179V67.82c0,.009,0,.017,0,.025a12.941,12.941,0,0,0,1.07,4.919H60.186a1.639,1.639,0,0,0,0,3.246H71.669l.319,0c.1.127.191.253.29.378a21.2,21.2,0,0,0,8.035,6.025,1.248,1.248,0,0,0,.506.108h0a1.248,1.248,0,0,0,.506-.108,21.2,21.2,0,0,0,8.034-6.025,14.038,14.038,0,0,0,3.256-8.541c0-.009,0-.017,0-.025V55.146A1.746,1.746,0,0,0,92.179,53.967ZM43.239,7.035a1.046,1.046,0,0,1,1.119-.392c.712.191,1.307,1.066,1.632,2.4a1.775,1.775,0,0,0,.063.2c.864,2.305,3.108,3.531,5.111,2.791,1.571-.581,3.147-2.624,2.415-6.47a2.572,2.572,0,0,1,.152-1.883,1.357,1.357,0,0,1,1.205-.438,1.19,1.19,0,0,0,.131,0,1.37,1.37,0,0,1,1.209.439,2.571,2.571,0,0,1,.151,1.882c-.732,3.848.845,5.891,2.417,6.471,2,.739,4.245-.488,5.105-2.794a1.8,1.8,0,0,0,.062-.2c.325-1.335.92-2.21,1.633-2.4a1.046,1.046,0,0,1,1.12.393,2.371,2.371,0,0,1,.155,2.127l-4.2,13.714H47.283l-4.2-13.713A2.374,2.374,0,0,1,43.239,7.035Zm3.045,22.176a1.454,1.454,0,0,1-1.342-1.542,1.475,1.475,0,0,1,1.342-1.547H63.727a1.476,1.476,0,0,1,1.338,1.546,1.454,1.454,0,0,1-1.342,1.542H46.285ZM89.8,67.807c-.066,4.379-3.57,8.785-8.977,11.344A17.675,17.675,0,0,1,73.8,73.446a1.59,1.59,0,0,0-.091-.135,10.176,10.176,0,0,1-1.864-5.5V56.769a8.038,8.038,0,0,0,5.889-2.963h6.174a8.039,8.039,0,0,0,5.89,2.963V67.807Z" transform="translate(-28.999 0.002)" fill="#ff8000"/>
    <path id="Контур_2682" data-name="Контур 2682" d="M363.436,377.188a1.154,1.154,0,0,0-1.866-.066,1.9,1.9,0,0,0-.054,2.295l2.3,2.992a1.218,1.218,0,0,0,.96.509h.018a1.231,1.231,0,0,0,.966-.542l5.886-8.107a1.9,1.9,0,0,0-.105-2.292,1.156,1.156,0,0,0-1.864.13l-4.928,6.788Z" transform="translate(-313.504 -311.677)" fill="#ff8000"/>
    <path id="Контур_2683" data-name="Контур 2683" d="M185.538,295.334v-1.11a4.1,4.1,0,0,0,2.125-1.489,4.726,4.726,0,0,0,.877-3,4.967,4.967,0,0,0-.4-2.124,2.574,2.574,0,0,0-.985-1.188,8.153,8.153,0,0,0-1.289-.589,8.365,8.365,0,0,0-1.289-.361,2.13,2.13,0,0,1-.985-.429,1.044,1.044,0,0,1-.4-.854c0-1.676,2-1.471,2.887-.562,1.3,1.352,2.761-1.114,1.252-2.507l-.175-.192a3.823,3.823,0,0,0-.624-.429,3.883,3.883,0,0,0-1-.411v-1.471a1.174,1.174,0,1,0-2.3,0v1.452a3.285,3.285,0,0,0-2.032,1.485,4.724,4.724,0,0,0-.743,2.59,4.664,4.664,0,0,0,.546,2.375,3.223,3.223,0,0,0,1.326,1.32,10.02,10.02,0,0,0,1.561.612,7.06,7.06,0,0,1,1.33.516.889.889,0,0,1,.546.813,1.287,1.287,0,0,1-1.445,1.466,1.8,1.8,0,0,1-1.557-.676c-.152-.206-.279-.4-.405-.557-1.018-1.311-2.768.511-1.706,2.215l.253.406a4.188,4.188,0,0,0,.9.891,4.125,4.125,0,0,0,1.408.708v1.1a1.3,1.3,0,0,0,1.152,1.411A1.32,1.32,0,0,0,185.538,295.334Z" transform="translate(-158.901 -232.531)" fill="#ff8000"/>
    <path id="Контур_2684" data-name="Контур 2684" d="M202.873,451.477h-.023a1.658,1.658,0,0,0,0,3.246h.023a1.658,1.658,0,0,0,0-3.246Z" transform="translate(-177.28 -378.71)" fill="#ff8000"/>
  </g>
</svg>
