<svg xmlns="http://www.w3.org/2000/svg" xmlns:xlink="http://www.w3.org/1999/xlink" width="80.031" height="77.546" viewBox="0 0 80.031 77.546">
  <defs>
    <radialGradient id="radial-gradient" cx="0.495" cy="0.497" r="0.525" gradientTransform="matrix(0.85, 0.469, -0.434, 0.85, 0.29, -0.158)" gradientUnits="objectBoundingBox">
      <stop offset="0" stop-color="#8ee1ee"/>
      <stop offset="0.617" stop-color="#5e8dec"/>
      <stop offset="0.697" stop-color="#5e8ceb" stop-opacity="0.988"/>
      <stop offset="0.75" stop-color="#5f89e8" stop-opacity="0.953"/>
      <stop offset="0.796" stop-color="#6085e4" stop-opacity="0.886"/>
      <stop offset="0.836" stop-color="#627edf" stop-opacity="0.796"/>
      <stop offset="0.874" stop-color="#6576d7" stop-opacity="0.682"/>
      <stop offset="0.909" stop-color="#000aff" stop-opacity="0.537"/>
      <stop offset="0.943" stop-color="#1c00ff" stop-opacity="0.369"/>
      <stop offset="0.975" stop-color="#4c00ff" stop-opacity="0.176"/>
      <stop offset="1" stop-color="#3a00ff" stop-opacity="0"/>
    </radialGradient>
    <radialGradient id="radial-gradient-2" cx="0.731" cy="0.125" r="1.028" gradientTransform="matrix(0.866, 0.428, -0.393, 0.866, 0.147, -0.296)" gradientUnits="objectBoundingBox">
      <stop offset="0" stop-color="#8ee1ee"/>
      <stop offset="0.617" stop-color="#5e8dec"/>
      <stop offset="0.63" stop-color="#5f88e7"/>
      <stop offset="0.745" stop-color="#1d10e5"/>
      <stop offset="0.839" stop-color="#0b13f8"/>
      <stop offset="0.898" stop-color="#0e06ff"/>
      <stop offset="1" stop-color="#003cff"/>
    </radialGradient>
    <radialGradient id="radial-gradient-3" cx="-26092.66" cy="7275.234" r="5.819" gradientTransform="matrix(-0.222, 0.992, -1.421, -0.107, -20663.283, 32628.463)" gradientUnits="objectBoundingBox">
      <stop offset="0" stop-color="#8ee1ee"/>
      <stop offset="0.617" stop-color="#5e8dec"/>
      <stop offset="0.63" stop-color="#5f88e7"/>
      <stop offset="0.745" stop-color="#6a64c7"/>
      <stop offset="0.839" stop-color="#714eb3"/>
      <stop offset="0.898" stop-color="#7446ac"/>
    </radialGradient>
  </defs>
  <g id="Сгруппировать_1895" data-name="Сгруппировать 1895" transform="translate(-771.484 -6271.455)">
    <g id="Сгруппировать_709" data-name="Сгруппировать 709" transform="translate(771.484 6271.455)">
      <path id="Контур_983" data-name="Контур 983" d="M36.319,0c20.256.2,36.839,16.16,37.038,35.65S57.3,70.78,37.04,70.581.2,54.421,0,34.931,16.063-.2,36.319,0Z" transform="matrix(0.995, -0.1, 0.1, 0.995, 0, 7.315)" fill="url(#radial-gradient)"/>
      <path id="Контур_984" data-name="Контур 984" d="M34.71,0C54.046.168,69.856,15.317,70.022,33.839S54.649,67.24,35.313,67.074.168,51.758,0,33.236,15.375-.165,34.71,0Z" transform="translate(3.23 7.192) rotate(-3.12)" fill="url(#radial-gradient-2)"/>
      <g id="Сгруппировать_697" data-name="Сгруппировать 697" transform="translate(48.956 11.277) rotate(8)">
        <path id="Контур_565" data-name="Контур 565" d="M8.457,3.341c-.281,1.106-2.394,1.523-4.722.931S-.25,2.306.031,1.2,2.425-.322,4.752.268,8.737,2.234,8.457,3.341Z" transform="translate(0 0)" fill="#003474" opacity="0.5"/>
        <path id="Контур_566" data-name="Контур 566" d="M0,.655A5.779,5.779,0,0,0,3.539,2.806c1.893.482,3.644.295,4.383-.386A5.781,5.781,0,0,0,4.383.268C2.491-.212.739-.026,0,.655Z" transform="translate(0.196 1.466)" fill="#003474" opacity="0.5"/>
      </g>
      <g id="Сгруппировать_702" data-name="Сгруппировать 702" transform="translate(62.595 50.914) rotate(8)">
        <path id="Контур_567" data-name="Контур 567" d="M.771,7.947C-.259,7.456-.257,5.3.777,3.135S3.482-.391,4.512.1s1.026,2.646-.006,4.812S1.8,8.439.771,7.947Z" transform="translate(0 0)" fill="#003474" opacity="0.5"/>
        <path id="Контур_568" data-name="Контур 568" d="M3.577,0a5.78,5.78,0,0,0-2.8,3.052C-.064,4.814-.222,6.568.3,7.426A5.777,5.777,0,0,0,3.1,4.374C3.943,2.611,4.1.857,3.577,0Z" transform="translate(0 0.083)" fill="#003474" opacity="0.5"/>
      </g>
      <g id="Сгруппировать_705" data-name="Сгруппировать 705" transform="translate(29.16 57.431) rotate(8)">
        <path id="Контур_569" data-name="Контур 569" d="M.017,1.378C.229.258,2.313-.291,4.671.155S8.772,1.87,8.56,2.99s-2.3,1.669-4.654,1.224S-.194,2.5.017,1.378Z" transform="translate(0 0)" fill="#003474" opacity="0.5"/>
        <path id="Контур_570" data-name="Контур 570" d="M8.018,2.082A5.783,5.783,0,0,0,4.351.154C2.432-.207.7.088,0,.813A5.783,5.783,0,0,0,3.667,2.741C5.586,3.1,7.322,2.808,8.018,2.082Z" transform="translate(0.321 0.001)" fill="#003474" opacity="0.5"/>
      </g>
      <g id="Сгруппировать_698" data-name="Сгруппировать 698" transform="translate(22.434 37.963) rotate(8)">
        <g id="Сгруппировать_207" data-name="Сгруппировать 207" transform="translate(0 0)">
          <path id="Контур_571" data-name="Контур 571" d="M1.283.983c1.8-1.618,4.815-1.195,6.74.945s2.03,5.185.233,6.8-4.815,1.193-6.74-.946S-.515,2.6,1.283.983Z" fill="#003474" opacity="0.5"/>
        </g>
        <path id="Контур_572" data-name="Контур 572" d="M6.983,1.928C5.246,0,2.62-.535.8.566a5.027,5.027,0,0,0,.711,6.282C3.252,8.778,5.878,9.31,7.694,8.209A5.026,5.026,0,0,0,6.983,1.928Z" transform="translate(1.04 0)" fill="#003474" opacity="0.5"/>
      </g>
      <g id="Сгруппировать_692" data-name="Сгруппировать 692" transform="translate(45.025 21.493) rotate(8)">
        <g id="Сгруппировать_209" data-name="Сгруппировать 209" transform="translate(0 0)">
          <path id="Контур_573" data-name="Контур 573" d="M6.216,4.5a3.122,3.122,0,0,1-4.281.934A3.121,3.121,0,0,1,.277,1.382,3.119,3.119,0,0,1,4.557.449,3.122,3.122,0,0,1,6.216,4.5Z" fill="#003474" opacity="0.5"/>
        </g>
        <path id="Контур_574" data-name="Контур 574" d="M1.935,4.639A3.234,3.234,0,0,0,5.97,4.082,3.234,3.234,0,0,0,4.138.448a3.233,3.233,0,0,0-4.033.557A3.234,3.234,0,0,0,1.935,4.639Z" transform="translate(0 0.798)" fill="#003474" opacity="0.5"/>
      </g>
      <g id="Сгруппировать_700" data-name="Сгруппировать 700" transform="translate(46.56 47.576) rotate(8)">
        <g id="Сгруппировать_211" data-name="Сгруппировать 211" transform="translate(0 0)">
          <path id="Контур_575" data-name="Контур 575" d="M.281,5.439c-.822-1.772.22-4,2.33-4.981S7.1.121,7.918,1.893s-.22,4-2.33,4.981S1.1,7.209.281,5.439Z" fill="#003474" opacity="0.5"/>
        </g>
        <path id="Контур_576" data-name="Контур 576" d="M2.61.457A4.059,4.059,0,0,0,.092,4.906a4.063,4.063,0,0,0,5.019.942A4.059,4.059,0,0,0,7.628,1.4,4.061,4.061,0,0,0,2.61.457Z" transform="translate(0 0.001)" fill="#003474" opacity="0.5"/>
      </g>
      <g id="Сгруппировать_690" data-name="Сгруппировать 690" transform="translate(25.07 13.995) rotate(8)">
        <path id="Контур_577" data-name="Контур 577" d="M5.482.337c.572.693-.147,2.232-1.606,3.437S.769,5.392.2,4.7.343,2.466,1.8,1.262,4.909-.358,5.482.337Z" transform="translate(0 0)" fill="#003474" opacity="0.5"/>
        <path id="Контур_578" data-name="Контур 578" d="M.008,4.229A4.554,4.554,0,0,0,3.025,2.981C4.211,2,4.908.8,4.819.012A4.563,4.563,0,0,0,1.8,1.261C.615,2.242-.082,3.442.008,4.229Z" transform="translate(0.851 0.793)" fill="#003474" opacity="0.5"/>
      </g>
      <g id="Сгруппировать_696" data-name="Сгруппировать 696" transform="translate(7.237 35.481) rotate(8)">
        <path id="Контур_579" data-name="Контур 579" d="M1.111.04c1.094-.319,2.527,1.29,3.2,3.6s.328,4.431-.766,4.75S1.016,7.1.343,4.791.015.36,1.111.04Z" transform="translate(0 0)" fill="#003474" opacity="0.5"/>
        <path id="Контур_580" data-name="Контур 580" d="M2.9,7.722A5.782,5.782,0,0,0,2.959,3.58C2.412,1.706,1.363.291.4,0A5.785,5.785,0,0,0,.343,4.142C.889,6.017,1.939,7.431,2.9,7.722Z" transform="translate(1.351 0.055)" fill="#003474" opacity="0.5"/>
      </g>
      <g id="Сгруппировать_703" data-name="Сгруппировать 703" transform="translate(62.455 19.842) rotate(8)">
        <path id="Контур_581" data-name="Контур 581" d="M3.709,3.624c-.451.463-1.606.071-2.58-.877S-.271.657.18.194s1.6-.071,2.579.877S4.158,3.162,3.709,3.624Z" transform="translate(0 0)" fill="#003474" opacity="0.5"/>
        <path id="Контур_582" data-name="Контур 582" d="M0,.022A3.277,3.277,0,0,0,1.128,2.078,2.95,2.95,0,0,0,3.387,3.126,3.266,3.266,0,0,0,2.259,1.071,2.955,2.955,0,0,0,0,.022Z" transform="translate(0.001 0.67)" fill="#003474" opacity="0.5"/>
      </g>
      <g id="Сгруппировать_708" data-name="Сгруппировать 708" transform="translate(35.428 67.104) rotate(8)">
        <path id="Контур_583" data-name="Контур 583" d="M0,1.163C0,.516,1.106,0,2.464,0S4.922.531,4.921,1.177,3.816,2.342,2.457,2.339,0,1.808,0,1.163Z" transform="translate(0 0)" fill="#003474" opacity="0.5"/>
        <path id="Контур_584" data-name="Контур 584" d="M4.592.695A3.278,3.278,0,0,0,2.352,0,2.955,2.955,0,0,0,0,.816a3.265,3.265,0,0,0,2.24.695A2.951,2.951,0,0,0,4.592.695Z" transform="translate(0.111 0)" fill="#003474" opacity="0.5"/>
      </g>
      <g id="Сгруппировать_693" data-name="Сгруппировать 693" transform="translate(8.155 26.025) rotate(8)">
        <path id="Контур_585" data-name="Контур 585" d="M1.732.011c.633.128.927,1.311.659,2.643s-1,2.308-1.633,2.18S-.169,3.524.1,2.191,1.1-.116,1.732.011Z" transform="translate(0 0)" fill="#003474" opacity="0.5"/>
        <path id="Контур_586" data-name="Контур 586" d="M.441,4.529A3.274,3.274,0,0,0,1.558,2.467,2.95,2.95,0,0,0,1.216,0,3.28,3.28,0,0,0,.1,2.061,2.949,2.949,0,0,0,.441,4.529Z" transform="translate(0.833 0.187)" fill="#003474" opacity="0.5"/>
      </g>
      <g id="Сгруппировать_706" data-name="Сгруппировать 706" transform="translate(69.775 31.836) rotate(8)">
        <path id="Контур_589" data-name="Контур 589" d="M1.136,3.754C.644,3.811.148,3.018.026,1.983S.207.061.7,0,1.688.74,1.809,1.775,1.628,3.7,1.136,3.754Z" transform="translate(0 0)" fill="#003474" opacity="0.5"/>
        <path id="Контур_590" data-name="Контур 590" d="M.352,0A2.516,2.516,0,0,0,.026,1.77,2.268,2.268,0,0,0,.862,3.489,2.506,2.506,0,0,0,1.188,1.72,2.264,2.264,0,0,0,.352,0Z" transform="translate(0 0.212)" fill="#003474" opacity="0.5"/>
      </g>
      <g id="Сгруппировать_707" data-name="Сгруппировать 707" transform="translate(54.705 62.279) rotate(8)">
        <path id="Контур_591" data-name="Контур 591" d="M.09,2.443C-.2,2.043.242,1.22,1.085.6s1.76-.79,2.053-.39-.152,1.223-.994,1.838S.382,2.843.09,2.443Z" transform="translate(0 0)" fill="#003474" opacity="0.5"/>
        <path id="Контур_592" data-name="Контур 592" d="M2.785.015A2.512,2.512,0,0,0,1.086.6,2.261,2.261,0,0,0,0,2.179,2.519,2.519,0,0,0,1.7,1.59,2.265,2.265,0,0,0,2.785.015Z" transform="translate(0 0.001)" fill="#003474" opacity="0.5"/>
      </g>
      <g id="Сгруппировать_694" data-name="Сгруппировать 694" transform="translate(14.95 33.352) rotate(8)">
        <path id="Контур_593" data-name="Контур 593" d="M.531,0c.337-.022.649.534.7,1.243S1.039,2.546.7,2.568s-.649-.535-.7-1.243S.194.023.531,0Z" transform="translate(0 0)" fill="#003474" opacity="0.5"/>
        <path id="Контур_594" data-name="Контур 594" d="M.517,2.392A1.712,1.712,0,0,0,.8,1.2,1.544,1.544,0,0,0,.287,0,1.712,1.712,0,0,0,.006,1.193,1.541,1.541,0,0,0,.517,2.392Z" transform="translate(0.428 0.045)" fill="#003474" opacity="0.5"/>
      </g>
      <g id="Сгруппировать_695" data-name="Сгруппировать 695" transform="translate(36.842 23.122) rotate(8)">
        <path id="Контур_595" data-name="Контур 595" d="M2.485.675a1.191,1.191,0,0,1-.878,1.419A1.192,1.192,0,0,1,.047,1.5,1.191,1.191,0,0,1,.925.082,1.19,1.19,0,0,1,2.485.675Z" transform="translate(0 0)" fill="#003474" opacity="0.5"/>
        <path id="Контур_596" data-name="Контур 596" d="M0,1.185A1.325,1.325,0,0,0,1.311,1.4,1.284,1.284,0,0,0,2.236.3,1.325,1.325,0,0,0,.925.081,1.285,1.285,0,0,0,0,1.185Z" transform="translate(0.296 0.694)" fill="#003474" opacity="0.5"/>
      </g>
      <g id="Сгруппировать_701" data-name="Сгруппировать 701" transform="translate(56.334 21.47) rotate(8)">
        <path id="Контур_597" data-name="Контур 597" d="M2.144,1.658c-.2.274-.825.157-1.4-.26S-.138.422.06.148s.826-.157,1.4.26S2.342,1.385,2.144,1.658Z" transform="translate(0 0)" fill="#003474" opacity="0.5"/>
        <path id="Контур_598" data-name="Контур 598" d="M0,.035a1.714,1.714,0,0,0,.739.979,1.544,1.544,0,0,0,1.248.373A1.712,1.712,0,0,0,1.248.408,1.543,1.543,0,0,0,0,.035Z" transform="translate(0.005 0.384)" fill="#003474" opacity="0.5"/>
      </g>
      <g id="Сгруппировать_704" data-name="Сгруппировать 704" transform="translate(59.478 47.657) rotate(8)">
        <path id="Контур_599" data-name="Контур 599" d="M.337,1.849A.933.933,0,0,1,.179.56.932.932,0,0,1,1.389.091a.933.933,0,0,1,.159,1.288A.935.935,0,0,1,.337,1.849Z" transform="translate(0 0)" fill="#003474" opacity="0.5"/>
        <path id="Контур_600" data-name="Контур 600" d="M1.059,0a1.07,1.07,0,0,0-.88.56A1.027,1.027,0,0,0,.158,1.687a1.074,1.074,0,0,0,.881-.56A1.029,1.029,0,0,0,1.059,0Z" transform="translate(0 0)" fill="#003474" opacity="0.5"/>
      </g>
      <g id="Сгруппировать_691" data-name="Сгруппировать 691" transform="translate(29.362 8.383) rotate(8)">
        <path id="Контур_601" data-name="Контур 601" d="M4.537.457c.265.589-.524,1.519-1.762,2.079S.318,3.071.052,2.481.574.963,1.813.4,4.271-.131,4.537.457Z" transform="translate(0 0)" fill="#003474" opacity="0.5"/>
        <path id="Контур_602" data-name="Контур 602" d="M0,2.12a3.269,3.269,0,0,0,2.326-.295A2.952,2.952,0,0,0,4.13.108,3.276,3.276,0,0,0,1.8.4,2.952,2.952,0,0,0,0,2.12Z" transform="translate(0.449 0.71)" fill="#003474" opacity="0.5"/>
      </g>
      <path id="Контур_992" data-name="Контур 992" d="M1.785.314c.076.277-.259.613-.748.748S.087,1.082.011.8.269.191.76.056,1.708.037,1.785.314Z" transform="translate(44.483 62.486) rotate(8)" fill="#003474" opacity="0.5"/>
      <path id="Контур_993" data-name="Контур 993" d="M1.085.191C1.132.36.928.564.63.646S.053.658.007.488.164.117.461.034,1.038.023,1.085.191Z" transform="translate(47.853 60.868) rotate(8)" fill="#003474" opacity="0.5"/>
      <g id="Сгруппировать_699" data-name="Сгруппировать 699" transform="translate(16.529 41.745) rotate(8)">
        <path id="Контур_605" data-name="Контур 605" d="M.831,2.011C.517,2.08.165,1.688.042,1.135S.074.077.387.008s.667.322.79.875S1.145,1.942.831,2.011Z" transform="translate(0 0)" fill="#003474" opacity="0.5"/>
        <path id="Контур_606" data-name="Контур 606" d="M.5,1.216c-.189.041-.4-.2-.478-.53S.045.046.234,0,.638.2.712.534.692,1.174.5,1.216Z" transform="translate(0.993 2.151)" fill="#003474" opacity="0.5"/>
      </g>
      <path id="Контур_986" data-name="Контур 986" d="M.226,1C.069.983-.028.742.007.466S.2-.018.356,0,.612.263.576.539.384,1.023.226,1Z" transform="translate(14.961 30.112) rotate(8)" fill="#003474" opacity="0.5"/>
      <path id="Контур_994" data-name="Контур 994" d="M.329,1.459C.1,1.429-.041,1.079.011.677S.29-.028.518,0,.89.381.836.783.558,1.489.329,1.459Z" transform="translate(71.782 42.226) rotate(8)" fill="#003474" opacity="0.5"/>
      <path id="Контур_991" data-name="Контур 991" d="M.216.956C.066.937-.027.707.007.444S.19-.017.34,0,.583.25.548.514.365.976.216.956Z" transform="translate(65.537 44.287) rotate(8)" opacity="0.5" fill="url(#radial-gradient-3)"/>
      <path id="Контур_987" data-name="Контур 987" d="M1.4.615c-.027-.286.36-.558.865-.608s.938.144.966.431-.359.558-.865.607S1.433.9,1.4.615ZM.588,1.84c.308-.031.544-.2.526-.37s-.28-.291-.587-.261-.543.2-.526.37S.281,1.869.588,1.84Zm3.786-.4c.307-.031.542-.2.526-.37S4.62.776,4.312.806s-.542.2-.526.369S4.065,1.467,4.374,1.437Zm11.36,6.154c.147-.248.62-.238,1.056.022s.671.671.524.919-.62.236-1.056-.024S15.587,7.838,15.734,7.592Zm1.906,2.419c.265.157.552.163.642.014s-.053-.4-.318-.558-.553-.165-.644-.015S17.373,9.852,17.639,10.011Z" transform="translate(44.147 13.312) rotate(8)" fill="#003474" opacity="0.5"/>
    </g>
  </g>
</svg>
