<svg xmlns="http://www.w3.org/2000/svg" xmlns:xlink="http://www.w3.org/1999/xlink" width="80" height="80" viewBox="0 0 80 80">
  <defs>
    <linearGradient id="linear-gradient" x1="0.5" x2="0.5" y2="1" gradientUnits="objectBoundingBox">
      <stop offset="0" stop-color="red"/>
      <stop offset="1" stop-color="#e95000"/>
    </linearGradient>
  </defs>
  <g id="Сгруппировать_1894" data-name="Сгруппировать 1894" transform="translate(-454.999 -6097)">
    <ellipse id="Эллипс_78" data-name="Эллипс 78" cx="34.85" cy="34.85" rx="34.85" ry="34.85" transform="translate(454.999 6165.794) rotate(-80.748)" fill="url(#linear-gradient)"/>
    <path id="Контур_977" data-name="Контур 977" d="M711.2,330.079c-.3.734-.494,1.11.607,1.282,1.024.142,2.285-.631,3.528-1.554a29.543,29.543,0,0,0,3.555-3.425c1.886-2.013,3.753-4.008,5.334-5.692.044.261.08.524.119.784-1.427,1.672-3.081,3.608-4.736,5.547a29.905,29.905,0,0,1-3.57,3.664,12.114,12.114,0,0,1-2.01,1.359,4.192,4.192,0,0,1-2.309.562,2.056,2.056,0,0,1-1.974-1.3,2.505,2.505,0,0,1,.237-1.752c.3-.719.509-1.11.509-1.11a25.74,25.74,0,0,1,2.395-3.673c1.584-2.081,3.848-4.618,5.825-7.391,1.125-1.545,2.172-3.123,3.114-4.615.124.281.246.562.364.847-.811,1.406-1.72,2.88-2.694,4.316-1.9,2.88-4.132,5.535-5.6,7.587a24.708,24.708,0,0,0-2.193,3.549S711.493,329.422,711.2,330.079Zm-51.977-17.6a30.8,30.8,0,0,1,9.117-1.16c1.667.041,3.372.234,5.023.163a9.585,9.585,0,0,0,4.44-1.16,13.646,13.646,0,0,0,2.551-1.974l.843-.844a30.777,30.777,0,0,0,2.765-3.318,37.169,37.169,0,0,0,4.564-8.285,34.729,34.729,0,0,0,1.308-4.044l-.035,0c-.272,0-.536.035-.808.041a36.607,36.607,0,0,1-1.35,3.638,37.476,37.476,0,0,1-4.677,7.9,30.6,30.6,0,0,1-2.747,3.132l-.787.829a12.914,12.914,0,0,1-2.258,1.85,8.459,8.459,0,0,1-3.875,1.113c-1.533.118-3.223-.015-4.952,0a29.186,29.186,0,0,0-9.282,1.613c-.414.148-.761.29-1.116.435-.083.184-.181.358-.261.542C658.143,312.8,658.655,312.636,659.22,312.479Zm21.273,40.088c.494-.423.776-.687.776-.687a3.219,3.219,0,0,0,.66-1.018,1.708,1.708,0,0,0-.225-1.684,2.984,2.984,0,0,0-1.536-.906,13.358,13.358,0,0,0-7.932.331c-2.738.847-5.28,1.989-7.305,2.507-.092.027-.178.044-.267.068.139.142.263.3.406.441,2.1-.373,4.76-1.4,7.421-2.09a12.5,12.5,0,0,1,7.276-.077,1.918,1.918,0,0,1,.912.512.392.392,0,0,1,.015.414,2.094,2.094,0,0,1-.414.574s-.225.219-.654.61a9.476,9.476,0,0,1-1.953,1.391,24.516,24.516,0,0,1-7.14,2.339c-.284.059-.565.118-.847.175.367.26.737.509,1.113.755a24.671,24.671,0,0,0,7.471-2.17A10.627,10.627,0,0,0,680.494,352.567Zm-8.273-55.614c-.379.7-.438,1.223-.361,1.243.142.065,1.057-1.761,2.836-2.451a5.471,5.471,0,0,1,2.406-.471c.136,0,.37.032.385.035l.006.018-.009.012h.036l.009.018s.015.006-.127.184a10.909,10.909,0,0,1-1.761,1.7c-1.385,1.11-3.087,1.672-3.046,1.844s1.888-.077,3.555-1.078a10.6,10.6,0,0,0,2.146-1.64,7.4,7.4,0,0,0,.518-.577l.485-.6.53-.687-.743-.2s-.234-.065-.639-.139c-.2-.033-.429-.092-.707-.124a34.63,34.63,0,0,0-5.177,2.383A4.259,4.259,0,0,0,672.221,296.953ZM721.8,340.984a30.193,30.193,0,0,1-7.661,1.551,43.8,43.8,0,0,0-8.631,1.439,23.2,23.2,0,0,0-7.2,3.534,26.76,26.76,0,0,0-6.26,6.178,84.85,84.85,0,0,1-5.088,6.959c-.337.379-.66.7-.968.995.19.021.379.033.568.05.257-.216.506-.414.778-.678a67.185,67.185,0,0,0,5.473-6.743,26.446,26.446,0,0,1,6.2-5.731,32.047,32.047,0,0,1,6.876-3.374,45.094,45.094,0,0,1,8.371-1.678,30.954,30.954,0,0,0,7.157-1.705C721.545,341.514,721.682,341.254,721.8,340.984Zm-24.633,14c-.027-.03-.323.172-.731.639a7.009,7.009,0,0,0-1.294,2.223c-.08.337-.719,1.524.349,1.743a3.145,3.145,0,0,0,2.06-.545c1.154-.6,2.388-1.234,3.62-1.868l6.761-3.537a25.438,25.438,0,0,0,2.241-1.27,8.554,8.554,0,0,0,.823-.6,5.239,5.239,0,0,0,.571-.533,5.962,5.962,0,0,0,.805-1.012,5.489,5.489,0,0,0,.444-.879,1.7,1.7,0,0,0-.115-1.649,1.449,1.449,0,0,0-1.134-.524,3.507,3.507,0,0,0-1.131.2,20.314,20.314,0,0,0-2.433.846,21.643,21.643,0,0,0-5.4,3.241,20.687,20.687,0,0,0-3.86,4.138,7.725,7.725,0,0,0-1.193,2.146c.133.1,2.155-3.221,5.559-5.63a21.459,21.459,0,0,1,5.3-2.851c1.6-.628,3.561-.977,3.247-.776.089-.059-.166.734-.409,1.024a4.637,4.637,0,0,1-.639.782,4.453,4.453,0,0,1-.482.432,16.954,16.954,0,0,1-2.794,1.818l-6.622,3.789c-1.2.7-2.4,1.391-3.525,2.045a8.628,8.628,0,0,1-.8.438,1.475,1.475,0,0,1-.631.151c-.438-.038-.216-.429-.112-.962A11.765,11.765,0,0,1,697.17,354.983Zm-19.823,2.063a27.579,27.579,0,0,0,10.919-8.809,5.977,5.977,0,0,0,1.139-2.629,3.689,3.689,0,0,0-.479-2.327,4.719,4.719,0,0,0-.962-1.146,3.64,3.64,0,0,0-.414-.32s-.148-.107-.441-.272a5.293,5.293,0,0,0-1.365-.518,10.576,10.576,0,0,0-4.822.261,122.43,122.43,0,0,0-13.255,4.331c-2.039.74-4.1,1.362-6.1,1.868.169.231.337.462.512.687,1.945-.444,3.931-.986,5.893-1.646a128.8,128.8,0,0,1,13.216-4.02,9.332,9.332,0,0,1,4.241-.187,3.454,3.454,0,0,1,1.347.613,3.033,3.033,0,0,1,1,1.024c.521.74.536,2.078-.544,3.573a26.789,26.789,0,0,1-10.292,8.643,21.659,21.659,0,0,1-3.833,1.456c.373.2.773.367,1.154.556A21.151,21.151,0,0,0,677.347,357.046Zm-13.923-52.606c-.062-.157-.092-.275-.13-.4q.626-.728,1.29-1.421c-.047.3-.062.471-.062.471a1.69,1.69,0,0,0,.092.755c.083.16.148.254.571.364s.986.184,1.56.249a14.374,14.374,0,0,0,14.279-7.909,34.418,34.418,0,0,0,1.447-3.762c.009,0,.015.03.018.071a1.531,1.531,0,0,0,0-.166l-.018-.053c.092-.018.178-.05.269-.068,0,.03.02.068.02.1a1.15,1.15,0,0,1-.331.909c-.015.107-.03.213-.053.337a12.956,12.956,0,0,1-.876,2.859,14.853,14.853,0,0,1-5.953,6.811,15.5,15.5,0,0,1-8.909,2.117,16.236,16.236,0,0,1-1.741-.228A2.04,2.04,0,0,1,663.424,304.439Zm19.062-11.393-.006.095C682.486,293.111,682.483,293.075,682.486,293.046Zm8.015,5.8c-.663.784-1.3,1.584-1.894,2.427a4.373,4.373,0,0,0,2.552,7.231,8.491,8.491,0,0,0,3.943.314,9.07,9.07,0,0,0,1.462-.34,13.288,13.288,0,0,0,4.541-2.732,48.671,48.671,0,0,0,7.349-8.469c-.272-.172-.551-.337-.826-.5a49.161,49.161,0,0,1-7.329,8.013,11.847,11.847,0,0,1-4.156,2.4,7.758,7.758,0,0,1-1.252.317,7.209,7.209,0,0,1-3.333-.19c-1.258-.388-2.818-1.483-2.94-3.067-.071-1.557,1.465-3.226,2.625-4.8a68.806,68.806,0,0,0,5.263-6.938c-.234-.047-.48-.068-.716-.11A81.694,81.694,0,0,1,690.5,298.845Zm6.438-.3,1.936-2.88c.491-.743.977-1.48,1.45-2.2-.269-.086-.545-.145-.817-.225-.465.616-.941,1.243-1.421,1.874-.708.953-1.415,1.9-2.078,2.794a7.834,7.834,0,0,0-.938,1.439,1.774,1.774,0,0,0,.311,2,2.314,2.314,0,0,0,2.767.237,3.141,3.141,0,0,0,.772-.607,7.147,7.147,0,0,0,.568-.69c.3-.426.734-1.033,1.252-1.761.764-1.1,1.708-2.472,2.67-3.934-.331-.142-.684-.246-1.021-.376-.968,1.323-1.9,2.572-2.661,3.573-.536.7-.983,1.282-1.294,1.69a5.518,5.518,0,0,1-.482.55c.036-.074-.779,1.045-1.7.417-.136-.127-.2-.287-.074-.651A7.282,7.282,0,0,1,696.939,298.549Zm17.842,16.881c-2.779,4.473-6.592,8.114-9.173,11.213a28.34,28.34,0,0,0-2.862,3.987,10.831,10.831,0,0,0-.823,1.74,7.539,7.539,0,0,0-.459,1.912,6.144,6.144,0,0,0,1.542,4.97,4.775,4.775,0,0,0,3.3,1.391,8.471,8.471,0,0,0,3.712-.876,44.729,44.729,0,0,0,6.595-4.316,84.878,84.878,0,0,0,8.1-6.956c.015-.314.041-.622.047-.938a91.607,91.607,0,0,1-8.717,7.122,44.96,44.96,0,0,1-6.485,4.061,7.393,7.393,0,0,1-3.206.71,3.54,3.54,0,0,1-2.448-1.072,4.874,4.874,0,0,1-1.119-3.931,6.5,6.5,0,0,1,.411-1.613,9.923,9.923,0,0,1,.71-1.56,27.654,27.654,0,0,1,2.67-3.842c2.439-3.04,6.284-6.861,9.016-11.491a48.169,48.169,0,0,0,3.821-7.678c-.163-.258-.308-.53-.476-.782A49.307,49.307,0,0,1,714.782,315.43Zm-50.674,10.878a5.187,5.187,0,0,0,1.015-1.67,3.9,3.9,0,0,0,.2-.74,2.82,2.82,0,0,0-.284-1.788,1.716,1.716,0,0,0-1.2-.882,2.8,2.8,0,0,0-1.424.24l-1.225.471c-.84.34-1.723.743-2.581,1.184a28.432,28.432,0,0,0-3.732,2.253c-.009.249-.033.494-.039.743a36.2,36.2,0,0,1,4.179-2.128c.861-.376,1.737-.713,2.569-1a7.008,7.008,0,0,1,2.03-.53c.24.033.391.441.406.743a1.532,1.532,0,0,1-.033.474,3.361,3.361,0,0,1-.835,1.826,13.6,13.6,0,0,1-4.017,2.954c-1.441.832-2.916,1.566-4.129,2.155.021.2.065.391.092.589a44.64,44.64,0,0,0,4.484-1.894A14.018,14.018,0,0,0,664.107,326.308Zm-5.76-7.012c3.132-1.018,6.293-1.93,8.676-2.572,1.246-.406,1.832-.266,2.208.121a1.867,1.867,0,0,1,.471.7,2.138,2.138,0,0,1,.216.858,5,5,0,0,1-.716,2.516,57.289,57.289,0,0,1-4.777,7.587,21.276,21.276,0,0,1-6.663,5.837,16.133,16.133,0,0,1-1.915.87c.027.112.056.225.086.34a12.9,12.9,0,0,0,2.063-.737,20.787,20.787,0,0,0,7.175-5.707,55.52,55.52,0,0,0,5.136-7.6,6.259,6.259,0,0,0,.941-3.164,3.32,3.32,0,0,0-.3-1.338,2.9,2.9,0,0,0-.82-1.143,2.612,2.612,0,0,0-1.566-.672,5.215,5.215,0,0,0-1.877.332c-2.383.713-5.538,1.729-8.649,2.868-.805.293-1.607.6-2.392.9-.074.326-.142.651-.2.98C656.394,319.941,657.362,319.613,658.347,319.3Zm17.988,18.773c4.413-.7,8.957-.37,12.408-1.3a13.743,13.743,0,0,0,5.239-2.64,28.785,28.785,0,0,0,3.987-4.162c2.155-2.628,4.934-6.2,7.574-9.878s5.141-7.448,6.929-10.328c.891-1.445,1.613-2.658,2.1-3.52a7.107,7.107,0,0,0,.7-1.388,6.792,6.792,0,0,0-.938,1.243c-.556.814-1.353,1.977-2.312,3.375-1.918,2.785-4.523,6.465-7.258,10.047s-5.571,7.081-7.761,9.647a27.479,27.479,0,0,1-3.88,3.907,12.391,12.391,0,0,1-1.187.891,12.01,12.01,0,0,1-3.525,1.6c-3.117.935-7.734.737-12.228,1.56a56.992,56.992,0,0,0-12.005,3.389c-1.572.648-2.85,1.264-3.729,1.714a6.947,6.947,0,0,0-1.344.8,7.168,7.168,0,0,0,1.459-.548c.912-.37,2.214-.9,3.8-1.468A61.571,61.571,0,0,1,676.335,338.069Zm-14.317-.266a27.716,27.716,0,0,0,10.067-8.6c1.412-1.986,2.584-4.094,3.809-5.944a21.357,21.357,0,0,1,3.836-4.564,16.738,16.738,0,0,1,3.475-2.312,14.824,14.824,0,0,1,1.451-.648s.53-.231,1.492-.536a16.971,16.971,0,0,1,4.111-.725c1.723-.121,3.771.24,6.095.3a10.71,10.71,0,0,0,6.887-2.22,23.17,23.17,0,0,0,4.866-5.248,59.021,59.021,0,0,0,3.318-5.207c.385-.681.719-1.311,1.018-1.895-.109-.092-.207-.2-.317-.287-.343.583-.722,1.222-1.154,1.909-.95,1.521-2.119,3.253-3.478,5.029a22.737,22.737,0,0,1-4.813,4.917,9.683,9.683,0,0,1-6.3,1.877c-2.17-.092-4.283-.506-6.168-.417a18.128,18.128,0,0,0-4.443.7c-1.042.311-1.619.554-1.619.554a15.631,15.631,0,0,0-1.548.722,17.837,17.837,0,0,0-3.7,2.56,22.169,22.169,0,0,0-3.955,4.89c-1.214,1.924-2.332,4.046-3.652,6.006a27.991,27.991,0,0,1-9.525,8.685,31.508,31.508,0,0,1-4.614,2.078c.024.062.044.127.071.189.207-.053.444-.115.719-.2A23.907,23.907,0,0,0,662.018,337.8Zm28.416-15.887c-.755.477-1.007.669-1.35.918-.645.468-1.054.811-1.006.891s.545-.106,1.27-.435c.337-.148.885-.423.983-.438.222-.19.222.24.166.352a2.919,2.919,0,0,1-.636.929,5.513,5.513,0,0,1-.95.752c-.6.364-1.146.571-1.122.577l-1.119.66c-.24.136-.2.127-.231.154l-.11.1c-.065.041-.355.308-.3.139a.97.97,0,0,1,.116-.429,6.157,6.157,0,0,1,.687-.953c.5-.58.912-.912.859-1s-.566.107-1.222.613a5.638,5.638,0,0,0-1.074,1.089,8.214,8.214,0,0,0-1.069,2.042c-.69,1.2.432.417.9.352.743-.37,1.438-.713,2.033-1.009l1.2-.58.317-.187a6.508,6.508,0,0,0,.847-.548,6.26,6.26,0,0,0,1.075-1.027,3.161,3.161,0,0,0,.781-1.761,2.019,2.019,0,0,0-.266-1.116C691.1,321.489,690.72,321.812,690.433,321.915Zm4.842-5.4a2.65,2.65,0,0,1,2.072,2.623,5.754,5.754,0,0,1-.832,2.83,20.83,20.83,0,0,1-1.32,2.1,19.348,19.348,0,0,1-2.451,2.794,11.463,11.463,0,0,1-1.06.932,19.546,19.546,0,0,1-4.369,2.658,20.2,20.2,0,0,1-5.005,1.51,21.585,21.585,0,0,1-2.942.258l-1.524-.053a2.14,2.14,0,0,1-1.678-.79,1.684,1.684,0,0,1,.133-1.909,4.658,4.658,0,0,1,1.155-1.146q.99-.715,1.944-1.4a5.968,5.968,0,0,1,.921-1c.625-.61,1.554-1.442,2.711-2.389a56.3,56.3,0,0,1,9.164-6.05A5.449,5.449,0,0,1,695.276,316.513Zm-.169,1.036a4.787,4.787,0,0,0-2.478.793,62.9,62.9,0,0,0-9.276,5.612c-1.226.894-2.211,1.672-2.895,2.211,1.255-.894,2.445-1.744,3.469-2.475l2.96-2.054a5.583,5.583,0,0,1,1.178-.711,5.526,5.526,0,0,1-1.012.93l-2.809,2.258c-1.172.918-2.54,1.992-4.008,3.141-.734.571-1.495,1.16-2.267,1.761-.7.5-1.374,1.445-1.013,1.818.269.444,1.5.32,2.392.34a20.339,20.339,0,0,0,2.768-.317,19.222,19.222,0,0,0,4.677-1.539,18.7,18.7,0,0,0,4.043-2.575,11.14,11.14,0,0,0,1.006-.853,18.253,18.253,0,0,0,2.347-2.56c.79-1.131,1.974-2.643,2.034-4.171A1.581,1.581,0,0,0,695.107,317.549Z" transform="translate(-194.799 5810.149)" fill="#fff" opacity="0.15"/>
    <path id="Контур_978" data-name="Контур 978" d="M674.812,297.733a33.636,33.636,0,0,0-17.786,5.088,33.8,33.8,0,0,0,49.434,40.7,33.782,33.782,0,0,0-31.648-45.786Z" transform="translate(-194.821 5823.393)" fill="#ff8000" opacity="0.34"/>
    <path id="Контур_979" data-name="Контур 979" d="M657.179,303.9s-5.543,16.371,7.3,29.721,31.505,8.369,34.9,2.422-7.945-16.276-19.28-15.269-8.312-16.122-14.107-19.9S658.187,301.628,657.179,303.9Z" transform="translate(-192.645 5826.536)" fill="#ff8000" opacity="0.34"/>
    <g id="Сгруппировать_689" data-name="Сгруппировать 689" transform="translate(480.986 6105.74)">
      <path id="Контур_444" data-name="Контур 444" d="M662.233,300.8c.8-1.778,6.78-11.5,23.36-5.95s20.09,25.058,16.093,30.629-11.151,3-15.718-5.211-16.706-6.465-20.981-11.109S661.4,302.654,662.233,300.8Z" transform="translate(-661.61 -293.158)" fill="#ff8000" opacity="0.45"/>
      <path id="Контур_445" data-name="Контур 445" d="M679.14,299.721c-.553,1.99-3.988,2.774-7.673,1.752s-6.227-3.467-5.675-5.457,3.988-2.774,7.676-1.752S679.692,297.731,679.14,299.721Z" transform="translate(-653.961 -291.935)" fill="#ff8000"/>
      <path id="Контур_446" data-name="Контур 446" d="M677.364,301.151c-.733.873-2.637.481-4.254-.876s-2.331-3.164-1.6-4.037,2.634-.481,4.252.876S678.1,300.278,677.364,301.151Z" transform="translate(-643.699 -288.288)" fill="#ff8000"/>
    </g>
  </g>
</svg>
