<svg width="512" height="512" viewBox="0 0 512 512" fill="none" xmlns="http://www.w3.org/2000/svg">
<path d="M501.999 349.995H491.999V29.9999C491.999 13.457 478.538 0 461.999 0H49.9999C33.457 0 20 13.457 20 29.9999V349.995H9.99998C4.47655 349.995 0 354.476 0 359.995V389.995C0 406.538 13.457 419.995 29.9999 419.995H272.648V481.999C272.648 498.542 286.105 511.999 302.648 511.999H421.995C438.538 511.999 451.995 498.542 451.995 481.999V419.995H481.999C498.542 419.995 511.999 406.538 511.999 389.995V359.995C511.999 354.476 507.522 349.995 501.999 349.995V349.995ZM451.995 349.995V329.995H471.999V349.995H451.995ZM49.9999 20H461.999C467.511 20 471.999 24.4843 471.999 29.9999V39.9999H39.9999V29.9999C39.9999 24.4843 44.4843 20 49.9999 20ZM39.9999 329.995H49.9999C55.5233 329.995 59.9999 325.519 59.9999 319.995C59.9999 314.472 55.5233 309.995 49.9999 309.995H39.9999V59.9999H471.999V309.995H451.995V242C451.995 225.457 438.538 212 421.995 212H302.648C298.023 212 293.636 213.054 289.722 214.933L246.789 172H262.644C268.167 172 272.644 167.523 272.644 162C272.644 156.476 268.167 152 262.644 152H222.648C217.125 152 212.648 156.476 212.648 162V202C212.648 207.519 217.125 212 222.648 212C228.168 212 232.648 207.519 232.648 202V186.14L275.581 229.074C273.703 232.992 272.648 237.375 272.648 242V309.995H140C134.476 309.995 130 314.472 130 319.995C130 325.519 134.476 329.995 140 329.995H272.648V359.995H206C206 354.476 201.523 349.995 196 349.995H39.9999V329.995ZM29.9999 399.995C24.4843 399.995 20 395.511 20 389.995V369.995H188.683C192.148 375.972 198.613 379.995 206 379.995H272.648V399.995H29.9999ZM431.995 481.999C431.995 487.515 427.511 491.999 421.995 491.999H302.648C297.132 491.999 292.648 487.515 292.648 481.999V246.14L338.507 291.999H322.648C317.128 291.999 312.648 296.476 312.648 301.999C312.648 307.523 317.128 311.999 322.648 311.999H362.648C368.171 311.999 372.648 307.523 372.648 301.999V262.003C372.648 256.48 368.171 252.003 362.648 252.003C357.124 252.003 352.648 256.48 352.648 262.003V277.859L306.788 232H421.995C427.511 232 431.995 236.488 431.995 242V481.999ZM491.999 389.995C491.999 395.511 487.511 399.995 481.999 399.995H451.995V369.995H491.999V389.995Z" fill="#FF8000"/>
<path d="M362.328 462H362.32C356.797 462 352.324 466.477 352.324 472C352.324 477.52 356.805 482 362.328 482C367.852 482 372.328 477.52 372.328 472C372.328 466.477 367.852 462 362.328 462Z" fill="#FF8000"/>
<path d="M387 100.004H441.996C447.52 100.004 451.996 95.5273 451.996 90.0039C451.996 84.4805 447.52 80.0039 441.996 80.0039H387.004C381.48 80.0039 377.004 84.4805 377.004 90.0039C377 95.5273 381.477 100.004 387 100.004Z" fill="#FF8000"/>
<path d="M95.0039 309.996H94.9961C89.4727 309.996 85 314.473 85 319.996C85 325.52 89.4805 329.996 95.0039 329.996C100.527 329.996 105.004 325.52 105.004 319.996C105.004 314.473 100.527 309.996 95.0039 309.996Z" fill="#FF8000"/>
</svg>
