<svg xmlns="http://www.w3.org/2000/svg" width="73.999" height="65" viewBox="0 0 73.999 65"><path d="M-378.081,1901H-408.15a1.03,1.03,0,0,1-1.006-1.051v-8.675a11.288,11.288,0,0,1,11.019-11.514h6.869a11.261,11.261,0,0,1-9.617-10.829c0-6.087,5.291-11.02,11.818-11.02s11.819,4.933,11.819,11.02a11.275,11.275,0,0,1-9.629,10.829h6.833a1.03,1.03,0,0,1,1.006,1.051,1.03,1.03,0,0,1-1.006,1.051h-18.093a9.227,9.227,0,0,0-9.006,9.411v7.623h5.968v-4.95a1.091,1.091,0,0,1,1.128-1.051,1.092,1.092,0,0,1,1.128,1.051v4.95h19.712v-4.95a1.092,1.092,0,0,1,1.128-1.051,1.092,1.092,0,0,1,1.128,1.051v4.95H-371v-7.623a9.655,9.655,0,0,0-.244-2.181,1.085,1.085,0,0,1,.27-1.027.975.975,0,0,1,.991-.254,1.035,1.035,0,0,1,.694.78,11.889,11.889,0,0,1,.3,2.677v8.68a1.029,1.029,0,0,1-1.006,1.051Zm-20.549-32.069c0,4.924,4.281,8.916,9.563,8.916s9.563-3.992,9.563-8.916-4.284-8.912-9.563-8.917S-398.63,1864.006-398.63,1868.931Zm26.636,18.048h.007Zm-.8-.316a10.115,10.115,0,0,0-1.667-1.278,1.008,1.008,0,0,1-.28-1.431,1.178,1.178,0,0,1,1.52-.323,12.439,12.439,0,0,1,2.03,1.561,1,1,0,0,1,.234,1.143,1.131,1.131,0,0,1-1.035.644A1.167,1.167,0,0,1-372.792,1886.663ZM-408.25,1865.5v0a1.2,1.2,0,0,1-.526-.121l-5.826-2.856-5.827,2.853a1.2,1.2,0,0,1-1.188-.079,1.02,1.02,0,0,1-.448-1.029l1.112-6.049-4.713-4.287a1,1,0,0,1-.28-1.073,1.11,1.11,0,0,1,.9-.715l6.514-.883,2.913-5.5a1.193,1.193,0,0,1,1.012-.539,1.194,1.194,0,0,1,1.012.539l2.912,5.5,6.515.883a1.111,1.111,0,0,1,.909.716,1,1,0,0,1-.285,1.078l-4.713,4.283,1.113,6.05a1,1,0,0,1-.249.855,1.157,1.157,0,0,1-.859.373Zm-6.351-5.22v0a1.189,1.189,0,0,1,.524.121l4.33,2.122-.828-4.492a1.008,1.008,0,0,1,.325-.932l3.5-3.183-4.84-.655a1.126,1.126,0,0,1-.85-.575l-2.164-4.089-2.165,4.089a1.122,1.122,0,0,1-.849.575l-4.84.655,3.5,3.183a1.008,1.008,0,0,1,.332.932l-.828,4.49,4.329-2.122a1.184,1.184,0,0,1,.519-.121Zm44.182,5.018a1.019,1.019,0,0,1-.449-1.03l1.113-6.049-4.713-4.289a1,1,0,0,1-.285-1.077,1.11,1.11,0,0,1,.909-.716l6.515-.883,2.912-5.5a1.194,1.194,0,0,1,1.012-.539,1.193,1.193,0,0,1,1.012.539l2.912,5.5,6.515.883a1.112,1.112,0,0,1,.911.716,1,1,0,0,1-.286,1.077l-4.713,4.284,1.112,6.05a1,1,0,0,1-.249.855,1.158,1.158,0,0,1-.862.374v0a1.2,1.2,0,0,1-.525-.121l-5.827-2.857-5.826,2.857a1.2,1.2,0,0,1-.526.121A1.184,1.184,0,0,1-370.419,1865.3Zm7.014-5.018v0a1.2,1.2,0,0,1,.525.121l4.329,2.122-.828-4.492a1.01,1.01,0,0,1,.326-.932l3.5-3.183-4.84-.655a1.123,1.123,0,0,1-.849-.575l-2.164-4.089-2.164,4.085a1.131,1.131,0,0,1-.85.575l-4.84.655,3.5,3.182a1.008,1.008,0,0,1,.325.931l-.828,4.495,4.329-2.122a1.172,1.172,0,0,1,.519-.121Zm-19.771-4.12L-389,1853.3l-5.827,2.857a1.2,1.2,0,0,1-1.187-.08,1.021,1.021,0,0,1-.449-1.029l1.113-6.05-4.714-4.284a1,1,0,0,1-.285-1.078,1.109,1.109,0,0,1,.91-.715l6.515-.882,2.91-5.5a1.192,1.192,0,0,1,1.011-.539,1.191,1.191,0,0,1,1.012.539l2.917,5.5,6.514.882a1.11,1.11,0,0,1,.911.716,1,1,0,0,1-.286,1.077l-4.713,4.284,1.112,6.051a1,1,0,0,1-.249.855,1.163,1.163,0,0,1-.862.373A1.2,1.2,0,0,1-383.177,1856.161Zm-5.3-4.975,4.324,2.121-.828-4.494a1.011,1.011,0,0,1,.325-.931l3.5-3.183-4.836-.651a1.124,1.124,0,0,1-.849-.576L-389,1839.38l-2.164,4.088a1.121,1.121,0,0,1-.85.576l-4.839.655,3.5,3.183a1.006,1.006,0,0,1,.325.931l-.823,4.494,4.33-2.121a1.2,1.2,0,0,1,.519-.121A1.2,1.2,0,0,1-388.479,1851.186Z" transform="translate(426 -1836)" fill="#031c41"/></svg>
