<svg id="Capa_1" enable-background="new 0 0 512 512" height="512" viewBox="0 0 512 512" width="512" xmlns="http://www.w3.org/2000/svg"><g><path d="m409.952 162.854 25.256.113c9.156.057 17.462 3.77 23.443 9.78 6.009 6.009 9.723 14.287 9.723 23.414v219.969h36.143c4.138 0 7.483 3.345 7.483 7.483v20.693c0 2.211-.964 4.224-2.494 5.584l-34.696 35.802c-1.418 1.474-3.318 2.296-5.359 2.296h-426.902c-2.297 0-4.366-1.049-5.755-2.693l-34.64-35.773c-1.36-1.418-2.154-3.261-2.154-5.216v-20.693c0-4.139 3.373-7.483 7.512-7.483h36.114v-89.263c0-4.139 3.374-7.483 7.512-7.483 4.139 0 7.484 3.345 7.484 7.483v89.263h151.683c2.722 0 5.075 1.417 6.407 3.571l12.273 17.461h54.057l12.529-17.858c1.475-2.069 3.772-3.175 6.124-3.175h151.683v-219.968c0-4.989-2.041-9.524-5.328-12.812-3.346-3.345-7.909-5.414-12.898-5.442l-26.051-.114c-.906 3.855-2.466 7.484-4.592 10.687h30.842c4.109 0 7.455 3.373 7.455 7.512v201.43c0 4.394-3.062 8.164-7.455 8.164h-358.672c-4.139 0-7.512-3.374-7.512-7.512v-202.083c0-4.139 3.373-7.512 7.512-7.512h30.841c-2.126-3.203-3.714-6.832-4.593-10.687l-26.05.114c-5.018.028-9.581 2.098-12.897 5.442-3.316 3.288-5.357 7.823-5.357 12.812v96.747c0 4.138-3.346 7.483-7.484 7.483s-7.512-3.345-7.512-7.483v-96.747c0-9.156 3.742-17.433 9.724-23.414 6.009-6.01 14.314-9.723 23.471-9.78l25.229-.113v-105.618c0-9.156 3.741-17.462 9.751-23.471s14.315-9.751 23.472-9.751h241.485c9.129 0 17.434 3.742 23.443 9.751 6.038 6.009 9.752 14.315 9.752 23.471v39.543c0 4.139-3.346 7.483-7.484 7.483-4.139 0-7.512-3.345-7.512-7.483v-39.543c0-5.018-2.041-9.553-5.357-12.87-3.288-3.288-7.853-5.357-12.842-5.357h-241.488c-5.018 0-9.554 2.069-12.87 5.357-3.288 3.317-5.357 7.852-5.357 12.87v113.045c0 5.017 2.069 9.553 5.357 12.87 3.316 3.288 7.853 5.329 12.87 5.329h157.012c4.139 0 7.513 3.373 7.513 7.512v43.001l48.246-48.274c1.36-1.361 3.26-2.239 5.329-2.239h23.386c4.989 0 9.554-2.041 12.842-5.329 3.316-3.317 5.357-7.853 5.357-12.87v-39.544c0-4.139 3.373-7.483 7.512-7.483s7.484 3.345 7.484 7.483zm-195.963 108.708c-9.496 1.162-24.066.624-36.396-9.893-4.365 2.438-10.941 4.989-18.794 4.62v14.825c0 7.569 3.118 14.457 8.107 19.474 5.018 4.989 11.905 8.107 19.474 8.107 7.597 0 14.485-3.118 19.475-8.107 5.017-5.017 8.135-11.905 8.135-19.474v-9.552zm-55.19-20.268c5.414.539 10.715-1.389 14.797-4.904 3.118-2.693 7.852-2.353 10.545.765 9.553 10.998 22.734 10.573 29.849 9.326v-12.982c0-3.317-1.389-6.35-3.571-8.561-2.211-2.211-5.244-3.572-8.589-3.572h-30.898c-3.316 0-6.35 1.361-8.561 3.572s-3.572 5.244-3.572 8.561zm70.186 29.821c0 6.123-1.332 11.991-3.685 17.263 6.236 2.806 11.594 6.293 15.732 10.29 6.18 6.01 9.723 13.124 9.723 20.92v30.897c0 4.139-3.345 7.512-7.512 7.512h-113.725c-4.14 0-7.485-3.373-7.485-7.512v-30.897c0-7.71 3.459-14.769 9.554-20.721 4.139-4.082 9.553-7.626 15.902-10.488-2.381-5.272-3.685-11.14-3.685-17.263v-37.615c0-7.456 3.062-14.259 7.966-19.163 4.903-4.932 11.707-7.965 19.162-7.965h30.898c7.483 0 14.259 3.033 19.191 7.965 4.904 4.904 7.965 11.707 7.965 19.163v37.614zm-12.301 29.877c-8.052 8.107-18.852 12.699-30.304 12.699-11.423 0-22.252-4.592-30.273-12.728-5.84 2.324-10.658 5.244-14.032 8.561-3.231 3.146-5.045 6.605-5.045 10.063v23.414h98.731v-23.414c0-3.515-1.871-7.001-5.159-10.176-3.402-3.288-8.164-6.151-13.918-8.419zm-55.618-152.192c-4.139 0-7.512-3.345-7.512-7.484 0-4.167 3.373-7.512 7.512-7.512h150.947c4.139 0 7.483 3.345 7.483 7.512 0 4.139-3.345 7.484-7.483 7.484zm0-75.09c-4.139 0-7.512-3.374-7.512-7.512 0-4.139 3.373-7.484 7.512-7.484h189.896c4.139 0 7.483 3.345 7.483 7.484 0 4.138-3.345 7.512-7.483 7.512zm0 37.531c-4.139 0-7.512-3.345-7.512-7.483 0-4.139 3.373-7.512 7.512-7.512h189.896c4.139 0 7.483 3.373 7.483 7.512s-3.345 7.483-7.483 7.483zm216.91 164.353c-2.919 2.92-7.653 2.92-10.602 0-2.919-2.919-2.919-7.682 0-10.602l18.653-18.652c1.417-1.446 3.345-2.239 5.357-2.239s3.94.793 5.329 2.239l18.68 18.652c2.92 2.919 2.92 7.682 0 10.602-2.947 2.92-7.682 2.92-10.629 0l-5.896-5.896v80.787c0 4.139-3.345 7.512-7.483 7.512-4.139 0-7.513-3.373-7.513-7.512v-80.787zm-43.994-8.22c1.417-1.446 3.345-2.24 5.357-2.24 2.013 0 3.911.794 5.329 2.24l18.651 18.651c2.948 2.92 2.948 7.682 0 10.602-2.919 2.919-7.653 2.919-10.602 0l-5.896-5.896v59.754c0 4.139-3.345 7.512-7.483 7.512-4.139 0-7.512-3.373-7.512-7.512v-59.754l-5.896 5.896c-2.92 2.919-7.682 2.919-10.602 0-2.92-2.92-2.92-7.682 0-10.602zm-60.095 47.961c-2.92 2.92-7.682 2.92-10.602 0-2.92-2.948-2.92-7.682 0-10.602l18.651-18.652c1.418-1.446 3.346-2.24 5.357-2.24 2.014 0 3.912.794 5.33 2.211l18.652 18.68c2.948 2.92 2.948 7.653 0 10.602-2.919 2.92-7.682 2.92-10.602 0l-5.897-5.896v41.045c0 4.139-3.346 7.512-7.484 7.512-4.166 0-7.512-3.373-7.512-7.512v-41.043zm102.87-121.833h-20.268l-58.905 58.876c-2.919 2.948-7.682 2.948-10.602 0-1.474-1.446-2.211-3.373-2.211-5.301v-53.575h-149.5-51.109v187.058h343.704v-187.058zm-170.336 227.623h-191.426v10.176l30.7 31.691h420.608l30.7-31.691v-10.176h-191.424l-12.275 17.461c-1.304 2.126-3.685 3.572-6.378 3.572h-61.823c-2.352 0-4.678-1.134-6.123-3.203z" fill="#031c41"/></g></svg>