<svg xmlns="http://www.w3.org/2000/svg" width="118.115" height="35" viewBox="0 0 118.115 35">
  <g id="Group_621" data-name="Group 621" transform="translate(3161 10046.075)">
    <path id="Path_968" data-name="Path 968" d="M4.511,0H113.6a4.511,4.511,0,0,1,4.511,4.511V30.489A4.511,4.511,0,0,1,113.6,35H4.511A4.511,4.511,0,0,1,0,30.489V4.511A4.511,4.511,0,0,1,4.511,0Z" transform="translate(-3161 -10046.075)"/>
    <g id="Group_619" data-name="Group 619" transform="translate(-3151.848 -10039.825)">
      <path id="Path_901" data-name="Path 901" d="M9168.375,11515.241a16.178,16.178,0,0,1-1.461,2.729c-.95,1.445-2.288,3.244-3.945,3.26-1.474.014-1.853-.959-3.852-.948s-2.418.965-3.891.952c-1.658-.016-2.926-1.642-3.876-3.086-2.654-4.041-2.932-8.785-1.295-11.306a5.877,5.877,0,0,1,4.726-2.841c1.758,0,2.862.964,4.314.964,1.409,0,2.27-.966,4.3-.966a5.732,5.732,0,0,1,4.322,2.283A4.946,4.946,0,0,0,9168.375,11515.241Z" transform="translate(-9149.04 -11498.732)" fill="#fefefe"/>
      <path id="Path_902" data-name="Path 902" d="M18437.855,6244.653a4.936,4.936,0,0,0,1.094-3.653,5.339,5.339,0,0,0-3.441,1.851,4.583,4.583,0,0,0-1.123,3.563A4.5,4.5,0,0,0,18437.855,6244.653Z" transform="translate(-18425.039 -6241)" fill="#fefefe"/>
    </g>
    <g id="Group_620" data-name="Group 620" transform="translate(-3124.881 -10031.155)">
      <path id="Path_903" data-name="Path 903" d="M36083.8,15084.881c.133.51.273,1.039.457,1.612l1.047,3.032h-2.98l1.031-3.051C36083.516,15085.979,36083.664,15085.444,36083.8,15084.881Zm-.922-1.881-3.883,11.437h1.777l1.16-3.513h3.762l1.191,3.513h1.828l-3.9-11.437Z" transform="translate(-36079 -15082.818)" fill="#fefefe"/>
      <path id="Path_904" data-name="Path 904" d="M46420.969,18046.432c1.543,0,2.234,1.428,2.234,2.846,0,1.826-.883,2.959-2.3,2.959a2.118,2.118,0,0,1-2.1-2.166v-1.391a2.591,2.591,0,0,1,.055-.428c.008-.047.02-.094.023-.139A2.192,2.192,0,0,1,46420.969,18046.432Zm.43-1.432a3.248,3.248,0,0,0-2.75,1.318l-.066-1.137H46417l.008.145c.047.709.066,1.49.066,2.609v8.814h1.73v-4.113a3.04,3.04,0,0,0,2.363,1.016,3.573,3.573,0,0,0,2.625-1.113,4.729,4.729,0,0,0,1.156-3.328,4.608,4.608,0,0,0-1-3.039A3.293,3.293,0,0,0,46421.4,18045Z" transform="translate(-46406.652 -18041.854)" fill="#fefefe"/>
      <path id="Path_905" data-name="Path 905" d="M55322.969,18046.432c1.543,0,2.234,1.428,2.234,2.846,0,1.826-.883,2.959-2.3,2.959a2.1,2.1,0,0,1-2.039-1.605,2.244,2.244,0,0,1-.062-.561v-1.391a2.516,2.516,0,0,1,.055-.428c.008-.047.02-.094.027-.139A2.184,2.184,0,0,1,55322.969,18046.432Zm.434-1.432a3.238,3.238,0,0,0-2.75,1.318l-.07-1.137H55319l.008.145c.047.711.066,1.49.066,2.609v8.814h1.73v-4.113a3.043,3.043,0,0,0,2.367,1.016,3.57,3.57,0,0,0,2.621-1.113,4.729,4.729,0,0,0,1.156-3.328,4.608,4.608,0,0,0-1-3.039A3.291,3.291,0,0,0,55323.4,18045Z" transform="translate(-55299.742 -18041.854)" fill="#fefefe"/>
      <path id="Path_906" data-name="Path 906" d="M66758.117,14906.027c-1.609-.625-2.133-1.117-2.133-2.025,0-.766.609-1.537,1.969-1.537a3.9,3.9,0,0,1,2.031.51l.148.091.492-1.444-.1-.056a5.01,5.01,0,0,0-2.523-.565c-2.2,0-3.742,1.3-3.742,3.167,0,1.5.961,2.556,3.039,3.308,1.469.55,2.008,1.111,2.008,2.074,0,1.092-.836,1.77-2.2,1.77a4.778,4.778,0,0,1-2.5-.708l-.141-.1-.469,1.479.086.056a5.906,5.906,0,0,0,2.922.753c2.977,0,4.031-1.814,4.031-3.367C66761.039,14907.833,66760.2,14906.846,66758.117,14906.027Z" transform="translate(-66723.297 -14901)" fill="#fefefe"/>
      <path id="Path_907" data-name="Path 907" d="M73963.938,16258l-1.7.533v1.438H73961v1.383h1.242v4.235a3.223,3.223,0,0,0,.6,2.2,2.207,2.207,0,0,0,1.672.657,3.992,3.992,0,0,0,1.336-.208l.1-.033-.086-1.385-.164.051a2.663,2.663,0,0,1-.812.093c-.664,0-.953-.425-.953-1.42v-4.187h2.094v-1.383h-2.094Z" transform="translate(-73923.086 -16256.642)" fill="#fefefe"/>
      <path id="Path_908" data-name="Path 908" d="M79164.063,18046.367c1.555,0,2.266,1.516,2.266,2.926,0,1.734-.969,2.994-2.3,2.994h-.023c-1.312,0-2.258-1.238-2.258-2.943C79161.75,18047.861,79162.461,18046.367,79164.063,18046.367Zm.047-1.367a4.072,4.072,0,0,0-4.109,4.393,3.944,3.944,0,0,0,3.977,4.26h.016a4.08,4.08,0,0,0,4.117-4.408,4.352,4.352,0,0,0-1.109-3.061A3.852,3.852,0,0,0,79164.109,18045Z" transform="translate(-79116.883 -18041.854)" fill="#fefefe"/>
      <path id="Path_909" data-name="Path 909" d="M88255.3,18045.08l-.1-.025a1.679,1.679,0,0,0-.437-.055,2.459,2.459,0,0,0-2.164,1.391l-.055-1.209H88251l.008.145c.047.686.063,1.455.063,2.492l-.016,5.652h1.734v-4.408a4.46,4.46,0,0,1,.047-.672,1.911,1.911,0,0,1,1.82-1.744,4.039,4.039,0,0,1,.461.029l.188.02Z" transform="translate(-88198.781 -18041.854)" fill="#fefefe"/>
      <path id="Path_910" data-name="Path 910" d="M92535.8,18029.316a1.72,1.72,0,0,1,1.273.484,2.476,2.476,0,0,1,.594,1.611h-3.945A2.2,2.2,0,0,1,92535.8,18029.316Zm.117-1.316c-2.3,0-3.914,1.84-3.914,4.477a3.87,3.87,0,0,0,4.078,4.178,6.67,6.67,0,0,0,2.742-.525l.1-.047-.328-1.289-.148.057a5.354,5.354,0,0,1-2.164.389,2.406,2.406,0,0,1-2.594-2.508l5.586.016.023-.111a4.28,4.28,0,0,0,.047-.721C92539.344,18030.109,92538.445,18028,92535.914,18028Z" transform="translate(-92475.492 -18024.871)" fill="#fefefe"/>
    </g>
    <path id="Path_912" data-name="Path 912" d="M36167.852,6121.6a3.438,3.438,0,0,1-.5,2.009h2.656v-3.959h-2.16Zm-1.207,3.767H36166V6123.6h.512a2.5,2.5,0,0,0,.668-2.009V6119h3.5v4.6h.586v1.758h-.645v-1.114h-3.98Z" transform="translate(-39290.801 -16158.949)" fill="#fff"/>
    <path id="Path_913" data-name="Path 913" d="M36080.938,6033.683h-.082v.07a3.323,3.323,0,0,1-.488,1.889l-.09.136h2.906v-4.134h-2.328v2.04h.172v-1.864h1.98v3.784h-2.566v.088l.074.048a3.5,3.5,0,0,0,.512-1.986v-.072Zm-1.207,3.767v-.087h-.555v-1.584h.457l.023-.021a2.546,2.546,0,0,0,.7-2.018v-.058h0v-2.508h3.328v4.6h.59v1.584h-.473v-1.114h-4.156v1.2h.086v0h.09v-1.027h3.8v1.114h.82V6035.6h-.586V6031h-3.68v2.74a2.374,2.374,0,0,1-.637,1.885l.059.067v-.088h-.6v1.934h.82v-.087Z" transform="translate(-39203.887 -16071.038)" fill="#fff"/>
    <path id="Path_914" data-name="Path 914" d="M42071.27,6005.249a2.019,2.019,0,0,0,2.852,0,2.231,2.231,0,0,0,0-3.014,2.018,2.018,0,0,0-2.852,0,2.242,2.242,0,0,0,0,3.014Zm3.352.439a2.724,2.724,0,0,1-3.848,0,2.836,2.836,0,0,1,0-3.893,2.714,2.714,0,0,1,3.844,0,2.825,2.825,0,0,1,0,3.889Z" transform="translate(-45188.891 -16041.067)" fill="#fff"/>
    <path id="Path_915" data-name="Path 915" d="M41984.355,5918.334l-.062.062a2.111,2.111,0,0,0,2.98,0,2.324,2.324,0,0,0,0-3.137h0a2.112,2.112,0,0,0-2.98,0h0a2.335,2.335,0,0,0,0,3.137l.063-.062.066-.061a2.149,2.149,0,0,1,0-2.891h0a1.931,1.931,0,0,1,2.727,0h0a2.16,2.16,0,0,1,0,2.891,1.931,1.931,0,0,1-2.727,0Zm3.352.439-.062-.062a2.635,2.635,0,0,1-3.723,0h0a2.754,2.754,0,0,1,0-3.77h0a2.629,2.629,0,0,1,3.719,0,2.734,2.734,0,0,1,0,3.766l.063.062.066.061a2.917,2.917,0,0,0,0-4.011,2.807,2.807,0,0,0-3.973,0h0a2.927,2.927,0,0,0,0,4.015h0a2.814,2.814,0,0,0,3.977,0Z" transform="translate(-45101.977 -15954.153)" fill="#fff"/>
    <path id="Path_916" data-name="Path 916" d="M48130.727,6006.484a2.742,2.742,0,1,1,0-5.484,2.424,2.424,0,0,1,1.926.858l-.469.455a1.763,1.763,0,0,0-1.457-.667,1.989,1.989,0,0,0-1.449.58,2.247,2.247,0,0,0,0,3.035,1.986,1.986,0,0,0,1.449.579,2.072,2.072,0,0,0,1.613-.762l.469.468a2.548,2.548,0,0,1-.9.686A2.747,2.747,0,0,1,48130.727,6006.484Z" transform="translate(-51240.828 -16041.067)" fill="#fff"/>
    <path id="Path_917" data-name="Path 917" d="M48043.813,5919.569v-.087a2.654,2.654,0,1,1,0-5.309,2.341,2.341,0,0,1,1.863.827l.066-.057-.062-.063-.469.455.063.063.066-.054a1.857,1.857,0,0,0-1.527-.7,2.067,2.067,0,0,0-1.508.6h0a2.331,2.331,0,0,0,0,3.16h0a2.071,2.071,0,0,0,1.508.6,2.167,2.167,0,0,0,1.68-.792l-.066-.058-.062.062.469.469.063-.062-.066-.055a2.488,2.488,0,0,1-.871.662,2.693,2.693,0,0,1-1.145.245v.175a2.842,2.842,0,0,0,1.219-.263,2.647,2.647,0,0,0,.93-.708l.055-.062-.527-.525-.066-.066-.062.071a1.975,1.975,0,0,1-1.547.732,1.9,1.9,0,0,1-1.387-.555h0a2.163,2.163,0,0,1,0-2.91h0a1.9,1.9,0,0,1,1.387-.553,1.683,1.683,0,0,1,1.391.633l.059.075.539-.521.059-.057-.051-.063a2.52,2.52,0,0,0-2-.888,2.83,2.83,0,1,0,0,5.659Z" transform="translate(-51153.914 -15954.153)" fill="#fff"/>
    <path id="Path_918" data-name="Path 918" d="M53522.137,6124.249h-.676v-4.6H53520V6119h3.6v.645h-1.465Z" transform="translate(-56627.43 -16158.949)" fill="#fff"/>
    <path id="Path_919" data-name="Path 919" d="M53434.227,6036.336v-.087h-.586v-4.6h-1.465v-.47h3.434v.47h-1.469v4.692h.086v0h.09v-4.517h1.465V6031H53432v.819h1.465v4.6h.852v-.087Z" transform="translate(-56539.516 -16071.038)" fill="#fff"/>
    <path id="Path_920" data-name="Path 920" d="M57580.176,6119l-1.984,4.427a1.324,1.324,0,0,1-1.227.939,1.355,1.355,0,0,1-.52-.117l.176-.624a.7.7,0,0,0,.352.095.62.62,0,0,0,.363-.091.829.829,0,0,0,.238-.333l.191-.419L57576,6119h.789l1.3,3.013h.031l1.266-3.013Z" transform="translate(-60679.367 -16158.949)" fill="#fff"/>
    <path id="Path_921" data-name="Path 921" d="M57444.313,6031.088l-.078-.036-1.984,4.428h0a1.236,1.236,0,0,1-1.145.886,1.265,1.265,0,0,1-.488-.111l-.031.081.082.024.176-.624-.086-.024-.043.076a.8.8,0,0,0,.395.107.688.688,0,0,0,.414-.108.88.88,0,0,0,.27-.369l.191-.418.016-.036-1.727-3.791h.6l1.3,3.013h.145l1.27-3.013h.73v-.087l-.078-.036.078.036V6031h-.848l-1.293,3.066.082.034v-.088h-.027v.088l.078-.035-1.32-3.065H57440l1.8,3.965-.172.382a.75.75,0,0,1-.211.3.53.53,0,0,1-.312.075.593.593,0,0,1-.3-.084l-.1-.055-.2.73-.023.075.074.03a1.434,1.434,0,0,0,.555.124,1.415,1.415,0,0,0,1.3-.991h0l2.043-4.551h-.137Z" transform="translate(-60543.504 -16071.038)" fill="#fff"/>
    <path id="Path_922" data-name="Path 922" d="M62513,6124.249V6119h3.8v5.249h-.68v-4.6h-2.445v4.6Z" transform="translate(-65611.43 -16158.949)" fill="#fff"/>
    <path id="Path_923" data-name="Path 923" d="M62426.086,6036.336h.086v-5.162h3.625v5.075h-.5v-4.6h-2.625v4.6h-.586v.087h0v.087h.762v-4.6h2.273v4.6h.848V6031H62426v5.423h.086Z" transform="translate(-65524.512 -16071.038)" fill="#fff"/>
    <path id="Path_924" data-name="Path 924" d="M67509,6124.249V6119h.672v2.25h2.625V6119h.68v5.249h-.68v-2.368h-2.625v2.368Z" transform="translate(-70602.43 -16158.949)" fill="#fff"/>
    <path id="Path_925" data-name="Path 925" d="M67421.086,6036.336h.086v-5.162h.5v2.25h2.8v-2.25h.492v5.075h-.492v-2.369h-2.8v2.369h-.586v.087h0v.087h.758v-2.368h2.453v2.368h.852V6031h-.852v2.25h-2.453V6031H67421v5.423h.086Z" transform="translate(-70514.516 -16071.038)" fill="#fff"/>
    <path id="Path_926" data-name="Path 926" d="M72352.266,6005.249a2.029,2.029,0,0,0,2.859,0,2.253,2.253,0,0,0,0-3.014,2.028,2.028,0,0,0-2.859,0,2.253,2.253,0,0,0,0,3.014Zm3.359.439a2.729,2.729,0,0,1-3.852,0,2.836,2.836,0,0,1,0-3.893,2.714,2.714,0,0,1,3.844,0,2.841,2.841,0,0,1,.008,3.889Z" transform="translate(-75439.578 -16041.067)" fill="#fff"/>
    <path id="Path_927" data-name="Path 927" d="M72264.359,5918.334l-.062.062a2.107,2.107,0,0,0,2.977,0,2.324,2.324,0,0,0,0-3.137h0a2.108,2.108,0,0,0-2.977,0h0a2.324,2.324,0,0,0,0,3.137l.063-.062.063-.061a2.138,2.138,0,0,1,0-2.891h0a1.931,1.931,0,0,1,2.727,0v0a2.16,2.16,0,0,1,0,2.891,1.931,1.931,0,0,1-2.727,0Zm3.352.439-.07-.062a2.63,2.63,0,0,1-3.719,0v0a2.744,2.744,0,0,1,0-3.77h0a2.629,2.629,0,0,1,3.719,0,2.739,2.739,0,0,1,0,3.766l.07.062.063.061a2.911,2.911,0,0,0-.008-4.011,2.8,2.8,0,0,0-3.969,0h0a2.927,2.927,0,0,0,0,4.015h0a2.814,2.814,0,0,0,3.977,0Z" transform="translate(-75351.664 -15954.153)" fill="#fff"/>
    <path id="Path_928" data-name="Path 928" d="M80497.672,6123.6h1.359a.817.817,0,0,0,.633-.272.9.9,0,0,0,.242-.594.861.861,0,0,0-.25-.591.874.874,0,0,0-.656-.267h-1.328Zm0-2.354h1.227a.8.8,0,0,0,.617-.253.822.822,0,0,0,.227-.553.773.773,0,0,0-.227-.549.751.751,0,0,0-.594-.25h-1.25Zm-.672,3V6119h1.9a1.529,1.529,0,0,1,1.063.406,1.308,1.308,0,0,1,.453,1.023,1.122,1.122,0,0,1-.2.66,1.173,1.173,0,0,1-.516.432v.029a1.373,1.373,0,0,1,.641.454,1.207,1.207,0,0,1,.25.749,1.365,1.365,0,0,1-.477,1.07,1.612,1.612,0,0,1-1.117.425Z" transform="translate(-83577.422 -16158.949)" fill="#fff"/>
    <path id="Path_929" data-name="Path 929" d="M80409.758,6035.687v.087h1.359a.881.881,0,0,0,.7-.3h0a.97.97,0,0,0,.266-.652.932.932,0,0,0-.273-.649h0a.941.941,0,0,0-.719-.3h-1.414v1.9h.086v-.087h.086v-1.636h1.242a.757.757,0,0,1,.586.24h0a.758.758,0,0,1,.234.53.8.8,0,0,1-.227.536h0a.711.711,0,0,1-.562.242h-1.359v.088h0Zm0-2.354v.087h1.227a.883.883,0,0,0,.68-.281h0a.9.9,0,0,0,.25-.612.914.914,0,0,0-.242-.607h0a.864.864,0,0,0-.656-.279h-1.344v1.78h.086v-.087h.086v-1.519h1.172a.672.672,0,0,1,.523.221h0a.777.777,0,0,1,.2.491.758.758,0,0,1-.211.494h0a.705.705,0,0,1-.547.225h-1.227v.087h0Zm-.672,3h.086v-5.162h1.813a1.456,1.456,0,0,1,1.008.385h0a1.233,1.233,0,0,1,.422.958,1.018,1.018,0,0,1-.18.611h0a1.118,1.118,0,0,1-.484.4l-.047.023v.148l.063.02a1.238,1.238,0,0,1,.594.425h0a1.085,1.085,0,0,1,.227.695,1.284,1.284,0,0,1-.437,1,1.537,1.537,0,0,1-1.062.4h-2v.087h0v.087h2a1.718,1.718,0,0,0,1.18-.447,1.484,1.484,0,0,0,.5-1.135,1.318,1.318,0,0,0-.266-.8h0a1.443,1.443,0,0,0-.68-.483l-.031.082h.086v-.029h-.086l.039.08a1.35,1.35,0,0,0,.555-.464h0a1.284,1.284,0,0,0,.2-.708,1.4,1.4,0,0,0-.477-1.088v0a1.621,1.621,0,0,0-1.125-.429H80409v5.424h.086Z" transform="translate(-83489.508 -16071.033)" fill="#fff"/>
  </g>
</svg>
