<svg xmlns="http://www.w3.org/2000/svg" width="125" height="130.883" viewBox="0 0 125 130.883">
  <path id="Apple_Store" data-name="Apple Store" d="M50.979,130.883v-9.3h.791l.134.878h.048a2.26,2.26,0,0,1,.873-.761,2.645,2.645,0,0,1,1.142-.234,2.373,2.373,0,0,1,1.972.873,4.651,4.651,0,0,1-.012,4.907,2.377,2.377,0,0,1-1.96.876,2.773,2.773,0,0,1-1.146-.231,2.147,2.147,0,0,1-.869-.712h-.071a8.644,8.644,0,0,1,.071,1.066v2.642Zm1.424-8.051a2.8,2.8,0,0,0-.451,1.734v.217a3.216,3.216,0,0,0,.451,1.937,1.715,1.715,0,0,0,1.447.582,1.5,1.5,0,0,0,1.3-.673,3.191,3.191,0,0,0,.472-1.858,3.074,3.074,0,0,0-.472-1.843,1.55,1.55,0,0,0-1.327-.641A1.722,1.722,0,0,0,52.4,122.832Zm-8.778,8.051v-9.3h.791l.135.878H44.6a2.266,2.266,0,0,1,.873-.761,2.649,2.649,0,0,1,1.143-.234,2.371,2.371,0,0,1,1.971.873,4.646,4.646,0,0,1-.012,4.907,2.377,2.377,0,0,1-1.959.876,2.77,2.77,0,0,1-1.146-.231,2.149,2.149,0,0,1-.87-.712h-.07a8.635,8.635,0,0,1,.07,1.066v2.642Zm1.424-8.051a2.81,2.81,0,0,0-.451,1.734v.217a3.216,3.216,0,0,0,.451,1.937,1.715,1.715,0,0,0,1.447.582,1.5,1.5,0,0,0,1.3-.673,3.2,3.2,0,0,0,.472-1.858,3.08,3.08,0,0,0-.472-1.843,1.551,1.551,0,0,0-1.327-.641A1.723,1.723,0,0,0,45.049,122.832Zm39.835,4.418a3.359,3.359,0,0,1-.823-2.408,3.725,3.725,0,0,1,.764-2.467,2.54,2.54,0,0,1,2.054-.913,2.424,2.424,0,0,1,1.911.794,3.046,3.046,0,0,1,.7,2.094v.616H85.068a2.549,2.549,0,0,0,.572,1.716,1.977,1.977,0,0,0,1.526.586,5.177,5.177,0,0,0,2.051-.433v.867a5.186,5.186,0,0,1-.976.32,5.464,5.464,0,0,1-1.111.1A2.952,2.952,0,0,1,84.883,127.25Zm.751-4.471a2.325,2.325,0,0,0-.543,1.4h3.358a2.138,2.138,0,0,0-.41-1.409,1.445,1.445,0,0,0-1.172-.489A1.587,1.587,0,0,0,85.634,122.779Zm-12.326,4.934a2.664,2.664,0,0,1-1.031-1.16,4.044,4.044,0,0,1-.363-1.769,3.535,3.535,0,0,1,.785-2.446,2.777,2.777,0,0,1,2.18-.876,2.716,2.716,0,0,1,2.141.9,4.148,4.148,0,0,1,0,4.878,2.787,2.787,0,0,1-2.186.881A2.89,2.89,0,0,1,73.309,127.713Zm.1-4.8a3.014,3.014,0,0,0-.487,1.869,3.051,3.051,0,0,0,.492,1.875,1.955,1.955,0,0,0,2.9,0,3.039,3.039,0,0,0,.495-1.878,2.988,2.988,0,0,0-.495-1.86,1.741,1.741,0,0,0-1.463-.635A1.712,1.712,0,0,0,73.409,122.914Zm-5.3,3.24v-3.82h-.92v-.469l.92-.4.41-1.372h.563v1.489h1.864v.756H69.078v3.779a1.3,1.3,0,0,0,.275.89.959.959,0,0,0,.756.311,3.206,3.206,0,0,0,.5-.039,3.066,3.066,0,0,0,.381-.079v.744a1.762,1.762,0,0,1-.466.126,3.486,3.486,0,0,1-.553.049Q68.106,128.117,68.106,126.154Zm-7.067,1.571v-.96a6.21,6.21,0,0,0,1.148.351,6.01,6.01,0,0,0,1.23.129,2.483,2.483,0,0,0,1.5-.378,1.239,1.239,0,0,0,.5-1.051,1.347,1.347,0,0,0-.179-.73,1.656,1.656,0,0,0-.6-.524,8.35,8.35,0,0,0-1.274-.545A4.064,4.064,0,0,1,61.664,123a2.238,2.238,0,0,1-.513-1.529,1.9,1.9,0,0,1,.744-1.577,3.091,3.091,0,0,1,1.968-.586,5.807,5.807,0,0,1,2.35.469l-.311.868a5.311,5.311,0,0,0-2.063-.446,2,2,0,0,0-1.237.339,1.123,1.123,0,0,0-.445.944,1.44,1.44,0,0,0,.164.729,1.543,1.543,0,0,0,.554.522,6.9,6.9,0,0,0,1.192.524,4.729,4.729,0,0,1,1.855,1.031,2.031,2.031,0,0,1,.507,1.43,2.1,2.1,0,0,1-.821,1.763,3.554,3.554,0,0,1-2.227.633A5.576,5.576,0,0,1,61.039,127.724ZM79.52,128v-6.422h.8l.112,1.189h.047a2.823,2.823,0,0,1,.861-.967,1.935,1.935,0,0,1,1.107-.339,3.814,3.814,0,0,1,.768.07l-.135.9a3.31,3.31,0,0,0-.7-.087,1.711,1.711,0,0,0-1.333.633,2.307,2.307,0,0,0-.553,1.576V128Zm-37.957,0L40.5,125.276H37.063L36.008,128H35l3.387-8.6h.838l3.369,8.6Zm-3.141-6.275-1.008,2.654h2.772l-1-2.654q-.193-.5-.4-1.237A11.031,11.031,0,0,1,38.422,121.725ZM25,125H10A10.011,10.011,0,0,1,0,115V10A10.011,10.011,0,0,1,10,0H115a10.011,10.011,0,0,1,10,10V115a10.011,10.011,0,0,1-10,10H100v-1h15a9.01,9.01,0,0,0,9-9V10a9.01,9.01,0,0,0-9-9H10a9.01,9.01,0,0,0-9,9V115a9.01,9.01,0,0,0,9,9H25v1h0Zm77.656-12v-3.448H99.207V113H95.759v-3.448H92.31V106.1H88.862v-3.449H92.31V99.207H81.966V95.759h-6.9v-6.9h6.9V75.069H78.518v3.449H75.069v-6.9H71.62V68.172H68.172V64.724H64.724V61.276h3.448V57.828h-6.9v3.448H57.828v6.9h3.448V64.724h3.449v6.9h-6.9V68.172H54.38v-6.9H50.931v6.9H47.483V71.62H57.828V81.966h3.448v3.448h3.449v3.449h3.448V85.414H71.62V95.759h3.449v3.448H71.62V95.759H68.172V92.31H64.724V88.862H61.276V85.414H57.828V81.966H54.38v-6.9H50.931v3.449H47.483v-6.9H44.034v3.449H40.586v-6.9h3.448V64.724h3.449v-6.9H44.034v3.448H40.586v3.449H30.241V61.276h6.9V57.828H26.793V54.38H40.586V50.931H30.241V47.483H26.793V44.034H23.345V54.38H19.9V44.034H13V40.586H30.241v3.448H33.69v3.449H44.034V44.034H33.69V40.586H50.931v3.448h6.9V40.586h-6.9V37.139H47.483v-6.9h3.448v6.9H54.38v-6.9H50.931v-6.9H47.483v3.448h-6.9V23.345h3.448V19.9H40.586V16.448h6.9V19.9h3.448v3.449H54.38v3.448h3.448V23.345H54.38v-6.9h-6.9V13H57.828V23.345h3.448V19.9h3.449V16.448h3.448V13H81.966v3.449h3.448v6.9H81.966v-6.9h-6.9V19.9H71.62v3.449h3.449v3.448H71.62V23.345H68.172v3.448H71.62v3.448h6.9v6.9h3.448v-6.9H78.518v-6.9h3.448v3.448h3.448V40.586h3.449v3.448H92.31v3.449h3.449v3.448h6.9V54.38H106.1v3.448h-6.9V54.38H95.759V50.931H92.31V54.38h3.449v3.448h3.448v3.448h6.9v3.449h3.449v3.448H106.1V64.724h-6.9v3.448h6.9V78.518h3.449v3.448H113v6.9h-6.9V92.31h-6.9v6.9h3.448V95.759h6.9v3.448H113v3.448h-3.448V99.207H106.1v3.448h3.449v6.9H106.1V106.1h-3.449v3.449H106.1V113Zm-3.448-10.346V99.207H95.759v3.448Zm-3.448-6.9V85.414H85.414V95.759H95.759Zm6.9-10.345V81.966H106.1V78.518h-3.449v-6.9H99.207V68.172H95.759v-6.9h-6.9v3.449H85.414V61.276H75.069v3.449H71.62v3.448h3.449V71.62h3.449v-6.9h6.9v3.448H81.966v6.9h6.9v6.9h6.9v-6.9h-6.9V71.62H92.31V68.172h3.449V71.62h3.448V85.414ZM92.31,57.828V54.38h-6.9V50.931H81.966V47.483H78.518v-6.9H75.069v-6.9H71.62V30.241H68.172V26.793h-6.9v3.448h6.9V33.69H71.62v6.9h3.449v3.448H71.62V40.586H68.172v3.448H71.62v3.449H68.172V44.034H64.724v-6.9H61.276v-6.9H57.828V40.586h3.448v6.9h6.9v3.448H71.62V54.38h6.9v3.448H92.31Zm-20.69,0V54.38H68.172v3.448Zm-13.792,0V54.38H54.38V50.931h3.448V54.38h3.448V50.931H57.828V47.483h-6.9V44.034H47.483v6.9h3.448V54.38H54.38v3.448Zm-6.9,0V54.38H47.483v3.448Zm37.931-6.9V47.483H85.414v3.448Zm-3.449-6.9V40.586H81.966v3.448Zm-17.241-6.9V33.69H64.724v3.449ZM85.414,113v-3.448H81.966V106.1H78.518v3.449h3.448V113H71.62v-3.448H68.172V106.1H64.724v3.449H61.276V99.207H57.828V95.759h3.448v3.448h3.449v3.448h3.448V99.207H64.724V95.759H61.276V92.31h3.449v3.449h3.448v3.448H71.62v10.346h3.449v-6.9H85.414V106.1h3.449V113Zm-27.586,0v-3.448H54.38v-6.9H50.931V99.207h6.9v10.346h3.448V113Zm-17.241,0V95.759h6.9V106.1h3.448v3.449H47.483V106.1H44.034V113Zm-6.9,0H13V88.862H37.139V113Zm0-3.448V92.31H16.448v17.242H33.69Zm-6.9-3.449H19.9V95.759H30.241V106.1Zm82.76-10.345V92.31H113v3.449Zm-58.622,0H47.483V92.31h-6.9v-6.9h6.9v6.9h6.9v3.449ZM88.862,92.31V88.862H92.31V92.31ZM54.38,88.862H50.931v-6.9H54.38v3.448h3.448v3.449Zm17.24-3.449V81.966H68.172V78.518h-6.9V75.069h6.9V71.62H71.62V81.966h3.449v3.448Zm-37.931,0H30.241V68.172h6.9V71.62H33.69v3.449h3.449v3.449h3.448v3.448H37.139V78.518H33.69v3.448h3.449v3.448Zm-13.793,0v-6.9h3.449V75.069H19.9v-6.9h3.449v6.9h3.448v6.9H23.345v3.448Zm-6.9,0V71.62h3.449V85.414Zm31.035-3.448V78.518h3.449v3.448Zm65.518-6.9V71.62H113v3.449ZM13,68.172v-6.9h6.9v3.449H16.448v3.448Zm96.553-6.9V57.828H113v3.448Zm-89.656,0V57.828H13V47.483h3.449v6.9H19.9v3.448h3.449v3.448Zm86.207-6.9V50.931h3.449V54.38Zm-27.586,0V50.931h3.448V54.38Zm31.035-6.9V44.034H106.1V40.586h3.449v3.448H113v3.449Zm-13.793,0V44.034H92.31V40.586h3.449v3.448h3.448v3.449Zm3.448-3.449V40.586h3.448v3.448Zm10.346-6.9H88.862V13H113V37.139Zm0-3.449V16.448H92.31V33.69h17.242ZM40.586,37.139v-6.9h3.448v6.9Zm-6.9,0H13V13H37.139V37.139Zm0-3.449V16.448H16.448V33.69H33.69Zm68.965-3.449h-6.9V19.9H106.1V30.241Zm-75.862,0H19.9V19.9H30.241V30.241Z" fill="#fff"/>
</svg>
