<?xml version="1.0" encoding="UTF-8"?>
<!DOCTYPE svg PUBLIC "-//W3C//DTD SVG 1.1//EN" "http://www.w3.org/Graphics/SVG/1.1/DTD/svg11.dtd">
<!-- Creator: CorelDRAW X7 -->
<svg xmlns="http://www.w3.org/2000/svg" xml:space="preserve" width="118px" height="35px" version="1.1" style="shape-rendering:geometricPrecision; text-rendering:geometricPrecision; image-rendering:optimizeQuality; fill-rule:evenodd; clip-rule:evenodd"
viewBox="0 0 118000 34963"
 xmlns:xlink="http://www.w3.org/1999/xlink">
 <defs>
  <style type="text/css">
   <![CDATA[
    .fil0 {fill:#FEFEFE;fill-rule:nonzero}
    .fil1 {fill:white;fill-rule:nonzero}
   ]]>
  </style>
 </defs>
 <g id="Слой_x0020_1">
  <metadata id="CorelCorpID_0Corel-Layer"/>
  <g id="_1772076606544">
   <g>
    <path class="fil0" d="M28467 22735c-528,1170 -780,1692 -1460,2727 -949,1444 -2286,3242 -3942,3257 -1472,14 -1850,-958 -3848,-947 -1997,11 -2415,964 -3887,951 -1656,-15 -2923,-1640 -3872,-3083 -2652,-4038 -2929,-8777 -1294,-11296 1163,-1790 2997,-2838 4721,-2838 1756,0 2860,963 4311,963 1408,0 2267,-965 4297,-965 1534,0 3160,835 4318,2281 -3795,2079 -3179,7501 656,8950z"/>
    <path class="fil0" d="M21953 9891c737,-946 1297,-2283 1094,-3650 -1204,84 -2614,850 -3437,1849 -747,908 -1363,2253 -1123,3560 1315,41 2676,-744 3466,-1759z"/>
   </g>
   <g>
    <path class="fil0" d="M40882 16962c131,509 272,1039 454,1611l1046 3030 -2977 0 1031 -3049c157,-495 307,-1029 446,-1592zm-922 -1879l-3881 11426 1777 0 1159 -3509 3759 0 1191 3509 1827 0 -3898 -11426 -1934 0z"/>
    <path class="fil0" d="M50385 19476c1541,0 2230,1427 2230,2842 0,1825 -880,2958 -2296,2958 -967,0 -1804,-658 -2037,-1604 -40,-147 -61,-341 -61,-560l0 -1390c0,-126 28,-278 55,-427 8,-47 18,-94 25,-140 257,-989 1113,-1679 2084,-1679zm430 -1431c-1177,0 -2120,454 -2748,1318l-69 -1136 -1581 0 9 145c47,708 66,1487 66,2606l0 8807 1729 0 0 -4110c536,642 1393,1016 2363,1016 1011,0 1941,-396 2620,-1114 757,-800 1156,-1951 1156,-3325 0,-1215 -347,-2265 -1004,-3036 -644,-756 -1546,-1171 -2541,-1171z"/>
    <path class="fil0" d="M59287 19476c1540,0 2230,1427 2230,2842 0,1825 -880,2958 -2296,2958 -967,0 -1804,-658 -2037,-1604 -40,-147 -60,-341 -60,-560l0 -1390c0,-127 27,-280 55,-428 8,-46 17,-93 25,-139 256,-989 1113,-1679 2083,-1679zm430 -1431c-1177,0 -2120,454 -2748,1318l-69 -1136 -1581 0 9 145c47,709 67,1487 67,2606l0 8807 1729 0 0 -4110c536,642 1392,1016 2362,1016 1010,0 1941,-396 2621,-1114 756,-800 1155,-1951 1155,-3325 0,-1215 -347,-2265 -1004,-3036 -644,-756 -1546,-1171 -2541,-1171z"/>
    <path class="fil0" d="M70870 19924c-1613,-625 -2131,-1116 -2131,-2024 0,-764 608,-1535 1965,-1535 1120,0 1837,389 2030,509l146 91 488 -1443 -96 -56c-290,-170 -1115,-565 -2518,-565 -2204,0 -3744,1301 -3744,3164 0,1502 964,2553 3034,3305 1467,549 2013,1110 2013,2073 0,1090 -842,1767 -2197,1767 -883,0 -1791,-257 -2492,-707l-150 -96 -464 1476 86 56c652,436 1881,752 2921,752 2971,0 4025,-1812 4025,-3364 0,-1599 -845,-2585 -2916,-3403z"/>
    <path class="fil0" d="M76898 16258l-1696 532 0 1437 -1241 0 0 1381 1241 0 0 4232c0,1024 196,1741 599,2194 386,423 980,657 1672,657 654,0 1118,-129 1337,-207l97 -34 -83 -1384 -166 51c-219,67 -443,93 -804,93 -670,0 -956,-424 -956,-1419l0 -4183 2085 0 0 -1381 -2085 0 0 -1969z"/>
    <path class="fil0" d="M83217 19410c1556,0 2264,1516 2264,2925 0,1733 -967,2991 -2296,2991l-17 0c-1311,0 -2263,-1237 -2263,-2941 0,-1481 715,-2975 2312,-2975zm50 -1365c-2418,0 -4107,1805 -4107,4389 0,2506 1634,4257 3975,4257l16 0c1979,0 4108,-1379 4108,-4406 0,-1231 -381,-2288 -1102,-3058 -725,-773 -1724,-1182 -2890,-1182z"/>
    <path class="fil0" d="M92554 18125l-104 -26c-152,-38 -276,-54 -430,-54 -904,0 -1716,532 -2167,1391l-51 -1209 -1551 0 10 145c46,684 65,1453 65,2489l-16 5648 1729 0 0 -4406c0,-240 16,-467 47,-670 195,-1058 909,-1742 1819,-1742 177,0 316,14 464,29l185 19 0 -1614z"/>
    <path class="fil0" d="M96326 19344c526,0 953,163 1269,484 497,506 584,1251 595,1609l-3943 0c161,-998 785,-2093 2079,-2093zm115 -1316c-2302,0 -3909,1839 -3909,4472 0,2536 1599,4174 4074,4174 1302,0 2207,-285 2737,-525l104 -47 -332 -1288 -144 58c-471,192 -1098,388 -2166,388 -751,0 -2483,-248 -2589,-2507l5580 17 22 -111c35,-175 52,-412 52,-721 0,-1803 -898,-3910 -3429,-3910z"/>
   </g>
   <path class="fil0" d="M113630 0l-109260 0c-2403,0 -4370,1967 -4370,4370l0 26223c0,2403 1967,4370 4370,4370l109260 0c2403,0 4370,-1967 4370,-4370l0 -26223c0,-2403 -1967,-4370 -4370,-4370zm0 699c2024,0 3671,1648 3671,3671l0 26223c0,2024 -1647,3671 -3671,3671l-109260 0c-2024,0 -3671,-1647 -3671,-3671l0 -26223c0,-2023 1647,-3671 3671,-3671l109260 0z"/>
   <path class="fil1" d="M38019 8712c10,829 -156,1499 -497,2007l2651 0 0 -3956 -2154 0 0 1949zm-1208 3764l-645 0 0 -1757 513 0c454,-392 676,-1060 667,-2007l0 -2593 3501 0 0 4600 586 0 0 1757 -645 0 0 -1113 -3977 0 0 1113z"/>
   <path class="fil1" d="M38019 8712l-87 1 1 70c-1,785 -165,1412 -484,1887l-92 136 2903 0 0 -4131 -2328 0 0 2038 87 -1 88 0 0 -1862 1978 0 0 3781 -2563 0 0 88 72 48c344,-511 513,-1175 513,-1984l0 -72 -88 1 88 0 -88 0zm-1208 3764l0 -87 -557 0 0 -1583 457 0 25 -21c472,-408 698,-1087 698,-2016l-1 -58 0 1 0 -2506 3327 0 0 4600 586 0 0 1583 -470 0 0 -1113 -4153 0 0 1200 88 0 0 -87 0 87 87 0 0 -1026 3803 0 0 1113 819 0 0 -1932 -585 0 0 -4600 -3676 0 0 2681 0 57c0,904 -220,1525 -637,1883l57 67 0 -88 -600 0 0 1932 819 0 0 -87 -87 0z"/>
   <path class="fil1" d="M43340 10246c389,393 864,589 1425,589 562,0 1037,-196 1425,-589 388,-393 583,-895 583,-1505 0,-610 -195,-1113 -583,-1506 -388,-393 -863,-589 -1425,-589 -561,0 -1036,196 -1425,589 -387,393 -582,896 -582,1506 0,610 195,1112 582,1505zm3348 439c-516,530 -1156,795 -1923,795 -766,0 -1408,-265 -1922,-795 -516,-529 -773,-1178 -773,-1944 0,-767 257,-1415 773,-1945 514,-530 1156,-795 1922,-795 762,0 1402,266 1920,799 517,532 776,1179 776,1941 0,766 -258,1415 -773,1944z"/>
   <path class="fil1" d="M43340 10246l-62 62c403,408 905,616 1487,615 582,1 1085,-207 1487,-615 405,-409 609,-939 608,-1567 1,-629 -203,-1158 -608,-1567l0 0c-402,-409 -905,-617 -1487,-615 -582,-2 -1084,206 -1487,615l0 0c-404,409 -608,938 -607,1567 -1,628 203,1158 607,1567l62 -62 63 -61c-371,-378 -556,-852 -557,-1444 1,-592 186,-1067 557,-1444l0 0c374,-377 821,-563 1362,-563 541,0 989,186 1362,563l2 1 -2 -1c372,377 557,852 558,1444 -1,592 -186,1066 -558,1444 -373,377 -821,562 -1362,563 -541,-1 -988,-186 -1362,-563l-63 61zm3348 439l-62 -61c-501,514 -1114,767 -1861,769 -747,-2 -1359,-255 -1859,-769l0 0c-501,-515 -747,-1136 -748,-1883 1,-747 247,-1369 748,-1884l0 0c500,-514 1112,-767 1859,-768 742,1 1354,255 1857,772 502,518 751,1138 751,1880 0,747 -248,1368 -747,1883l62 61 63 61c530,-544 798,-1219 797,-2005 1,-782 -268,-1455 -800,-2002 -533,-549 -1200,-826 -1983,-825 -786,-1 -1456,275 -1985,821l0 0c-531,545 -798,1220 -797,2006 -1,786 266,1461 797,2005l0 0c529,547 1199,822 1985,822 787,0 1456,-275 1986,-822l-63 -61z"/>
   <path class="fil1" d="M50853 11480c-772,0 -1419,-261 -1941,-784 -524,-522 -784,-1174 -784,-1955 0,-781 260,-1433 784,-1956 522,-523 1169,-784 1941,-784 790,0 1433,286 1926,857l-469 454c-356,-444 -842,-666 -1457,-666 -572,0 -1054,193 -1447,579 -393,386 -590,891 -590,1516 0,625 197,1130 590,1516 393,386 875,578 1447,578 630,0 1167,-253 1612,-761l468 468c-240,289 -540,517 -902,685 -360,169 -754,253 -1178,253z"/>
   <path class="fil1" d="M50853 11480l0 -87c-752,-2 -1372,-252 -1879,-759 -507,-507 -758,-1131 -758,-1893 0,-762 251,-1387 758,-1894 507,-506 1127,-757 1879,-758 770,1 1381,273 1860,826l66 -57 -60 -63 -470 455 61 62 68 -54c-370,-465 -890,-701 -1525,-699 -592,-1 -1101,202 -1508,603l0 0c-412,403 -617,936 -616,1579 -1,642 204,1176 616,1578l0 0c407,401 916,604 1508,604 654,1 1220,-268 1677,-791l-65 -58 -62 62 468 468 62 -62 -67 -55c-232,278 -520,498 -871,661 -349,163 -729,244 -1142,245l0 175c436,0 843,-87 1215,-262 373,-172 684,-409 932,-707l51 -62 -525 -525 -66 -66 -61 71c-433,492 -940,730 -1546,731 -552,-1 -1008,-183 -1386,-554l0 0c-375,-369 -563,-846 -563,-1453 0,-607 188,-1084 563,-1454l0 0c378,-370 834,-553 1386,-553 594,1 1047,209 1389,633l60 75 538 -521 59 -57 -53 -63c-508,-590 -1182,-888 -1993,-887 -791,-1 -1466,271 -2003,810 -540,537 -810,1216 -809,2017 -1,800 269,1480 809,2017 537,538 1212,810 2003,810l0 -88z"/>
   <polygon class="fil1" points="55658,11363 54984,11363 54984,6763 53520,6763 53520,6119 57123,6119 57123,6763 55658,6763 "/>
   <polygon class="fil1" points="55658,11363 55658,11276 55072,11276 55072,6675 53607,6675 53607,6206 57036,6206 57036,6675 55571,6675 55571,11363 55658,11363 55658,11276 55658,11363 55746,11363 55746,6850 57211,6850 57211,6031 53432,6031 53432,6850 54897,6850 54897,11450 55746,11450 55746,11363 "/>
   <path class="fil1" d="M61750 6119l-1984 4423c-274,626 -681,938 -1223,938 -161,0 -335,-39 -521,-117l176 -623c112,64 230,95 351,95 157,0 278,-30 363,-91 86,-61 165,-173 239,-333l190 -418 -1765 -3874 791 0 1296 3010 29 0 1267 -3010 791 0z"/>
   <path class="fil1" d="M61750 6119l-80 -36 -1984 4424 0 1c-270,606 -639,882 -1143,885 -147,0 -309,-36 -487,-111l-34 81 84 24 176 -623 -84 -24 -43 76c124,71 257,107 394,107 168,0 308,-32 414,-108 106,-76 190,-200 267,-368l191 -418 16 -36 -1725 -3787 598 0 1296 3010 144 0 1267 -3010 733 0 0 -87 -80 -36 80 36 0 -88 -849 0 -1290 3064 81 34 0 -88 -29 0 0 88 81 -35 -1319 -3063 -985 0 1805 3962 -174 382c-69,153 -144,252 -209,298 -64,46 -167,75 -313,75 -106,0 -207,-27 -308,-84l-97 -55 -206 730 -21 75 71 30c194,81 379,124 555,124 579,2 1024,-347 1303,-990l-1 0 2040 -4547 -135 0 0 88z"/>
   <polygon class="fil1" points="62513,11363 62513,6119 66308,6119 66308,11363 65633,11363 65633,6763 63187,6763 63187,11363 "/>
   <polygon class="fil1" points="62513,11363 62601,11363 62601,6206 66220,6206 66220,11276 65721,11276 65721,6675 63099,6675 63099,11276 62513,11276 62513,11363 62601,11363 62513,11363 62513,11450 63274,11450 63274,6850 65546,6850 65546,11450 66395,11450 66395,6031 62426,6031 62426,11450 62513,11450 "/>
   <polygon class="fil1" points="67509,11363 67509,6119 68182,6119 68182,8367 70804,8367 70804,6119 71479,6119 71479,11363 70804,11363 70804,8997 68182,8997 68182,11363 "/>
   <polygon class="fil1" points="67509,11363 67596,11363 67596,6206 68095,6206 68095,8454 70892,8454 70892,6206 71391,6206 71391,11276 70892,11276 70892,8909 68095,8909 68095,11276 67509,11276 67509,11363 67596,11363 67509,11363 67509,11450 68270,11450 68270,9084 70717,9084 70717,11450 71566,11450 71566,6031 70717,6031 70717,8280 68270,8280 68270,6031 67421,6031 67421,11450 67509,11450 "/>
   <path class="fil1" d="M73621 10246c388,393 863,589 1425,589 562,0 1037,-196 1424,-589 389,-393 584,-895 584,-1505 0,-610 -195,-1113 -584,-1506 -387,-393 -862,-589 -1424,-589 -562,0 -1037,196 -1425,589 -387,393 -582,896 -582,1506 0,610 195,1112 582,1505zm3348 439c-516,530 -1157,795 -1923,795 -767,0 -1408,-265 -1923,-795 -515,-529 -772,-1178 -772,-1944 0,-767 257,-1415 772,-1945 515,-530 1156,-795 1923,-795 762,0 1401,266 1919,799 518,532 776,1179 776,1941 0,766 -257,1415 -772,1944z"/>
   <path class="fil1" d="M73621 10246l-62 62c402,408 904,616 1487,615 582,1 1085,-207 1487,-615 404,-409 608,-939 608,-1567 0,-629 -204,-1158 -608,-1567l0 0c-402,-409 -905,-617 -1487,-615 -583,-2 -1085,206 -1487,615l0 0c-404,409 -608,938 -608,1567 0,628 204,1158 608,1567l62 -62 62 -61c-370,-378 -556,-852 -557,-1444 1,-592 187,-1067 557,-1444l0 0c374,-377 822,-563 1363,-563 541,0 989,186 1362,563l3 3 -3 -3c372,377 557,852 558,1444 -1,592 -186,1066 -558,1444 -373,377 -821,562 -1362,563 -541,-1 -989,-186 -1363,-563l-62 61zm3348 439l-63 -61c-501,514 -1114,767 -1860,769 -747,-2 -1360,-255 -1860,-769l-2 -2 2 2c-500,-515 -747,-1136 -748,-1883 1,-747 248,-1369 748,-1884l0 0c500,-514 1113,-767 1860,-768 742,1 1353,255 1857,772 502,518 750,1138 751,1880 -1,747 -249,1368 -748,1883l63 61 62 61c531,-544 798,-1219 798,-2005 0,-782 -268,-1455 -801,-2002 -533,-549 -1200,-826 -1982,-825 -787,-1 -1456,275 -1985,821l0 0c-531,545 -799,1220 -798,2006 -1,786 267,1461 798,2005l0 0c529,547 1198,822 1985,822 786,0 1455,-275 1985,-822l-62 -61z"/>
   <path class="fil1" d="M81170 10719l1356 0c258,0 468,-91 630,-272 161,-180 241,-378 241,-593 0,-215 -83,-411 -249,-590 -165,-178 -384,-267 -652,-267l-1326 0 0 1722zm0 -2352l1224 0c254,0 458,-84 612,-253 154,-168 230,-352 230,-553 0,-200 -74,-383 -223,-548 -149,-167 -346,-250 -590,-250l-1253 0 0 1604zm-673 2996l0 -5244 1897 0c410,0 766,135 1065,406 301,271 451,612 451,1022 0,249 -64,469 -195,659 -128,190 -300,335 -515,432l0 29c258,88 470,240 637,454 165,216 249,465 249,748 0,429 -158,786 -473,1069 -315,283 -687,425 -1117,425l-1999 0z"/>
   <path class="fil1" d="M81170 10719l0 87 1356 0c278,1 519,-101 695,-301l0 0c173,-192 264,-414 264,-651 0,-238 -95,-459 -273,-649l0 0c-181,-196 -428,-297 -716,-296l-1413 0 0 1897 87 0 0 -87 87 0 0 -1635 1239 0c250,1 438,81 588,240l0 0c154,167 225,338 226,530 -1,193 -70,367 -220,535l0 0c-146,162 -326,241 -564,242l-1356 0 0 88 87 0 -87 0zm0 -2352l0 87 1224 0c272,1 506,-93 676,-281l0 0c165,-180 254,-388 254,-612 0,-221 -85,-429 -247,-607l0 0c-163,-185 -391,-280 -654,-279l-1340 0 0 1779 87 0 0 -87 87 0 0 -1517 1166 0c225,2 391,73 524,221l1 0 -1 0c137,153 201,313 202,490 -1,178 -67,338 -208,494l0 1c-138,149 -312,223 -547,224l-1224 0 0 87 87 0 -87 0zm-673 2996l87 0 0 -5157 1810 0c390,1 721,127 1007,384l0 0c284,257 421,568 422,957 0,233 -60,434 -179,610l0 0c-121,178 -279,310 -481,402l-51 23 0 148 59 20c244,83 440,223 597,425l0 1 0 -1c154,200 230,428 230,694 0,408 -146,735 -444,1004 -300,270 -647,402 -1058,403l-1999 0 0 87 87 0 -87 0 0 87 1999 0c449,1 846,-150 1176,-447 332,-297 502,-683 501,-1134 1,-300 -90,-571 -267,-801l-1 -1 1 1c-176,-227 -405,-391 -678,-483l-28 82 87 0 0 -29 -87 0 35 80c229,-104 415,-259 553,-463l0 0c140,-205 210,-444 210,-708 0,-431 -162,-802 -480,-1087l-2 -2 2 2c-315,-285 -695,-430 -1124,-429l-1985 0 0 5419 88 0 0 -87z"/>
  </g>
 </g>
</svg>
