<svg xmlns="http://www.w3.org/2000/svg" width="18.944" height="16" viewBox="0 0 18.944 16">
  <path id="chat" d="M17.184,28.339H15.155V25.086a2.012,2.012,0,0,0-2.01-2.01H2.01A2.012,2.012,0,0,0,0,25.086v6.086a2.012,2.012,0,0,0,2.01,2.01H3.473v2.1a.632.632,0,0,0,1.08.447l1.762-1.762v1.106a1.762,1.762,0,0,0,1.76,1.76h4.9l2.053,2.054a.632.632,0,0,0,1.08-.447V36.837h1.082a1.762,1.762,0,0,0,1.759-1.76V30.1A1.762,1.762,0,0,0,17.184,28.339ZM4.1,31.917H2.01a.746.746,0,0,1-.745-.745V25.086a.746.746,0,0,1,.745-.745H13.145a.746.746,0,0,1,.745.745v6.086a.746.746,0,0,1-.745.745h-6.3a.633.633,0,0,0-.447.185L4.737,33.759v-1.21A.632.632,0,0,0,4.1,31.917Zm13.574,3.16a.5.5,0,0,1-.495.5H15.47a.632.632,0,0,0-.632.632v.712l-1.159-1.159a.632.632,0,0,0-.447-.185H8.073a.5.5,0,0,1-.495-.5v-1.9h5.567a2.012,2.012,0,0,0,2.01-2.01V29.6h2.029a.5.5,0,0,1,.495.495Z" transform="translate(0 -23.076)" fill="#fff"/>
</svg>
