<svg height="496pt" viewBox="-56 0 496 496" width="496pt" xmlns="http://www.w3.org/2000/svg"><path d="m32 256h224v16h-224zm0 0"/><path d="m32 288h224v16h-224zm0 0"/><path d="m32 320h224v16h-224zm0 0"/><path d="m32 352h224v16h-224zm0 0"/><path d="m32 384h144v16h-144zm0 0"/><path d="m32 416h144v16h-144zm0 0"/><path d="m32 448h16v16h-16zm0 0"/><path d="m64 448h16v16h-16zm0 0"/><path d="m96 448h16v16h-16zm0 0"/><path d="m128 448h16v16h-16zm0 0"/><path d="m376 0h-336c-4.414062 0-8 3.574219-8 8v24h-24c-4.414062 0-8 3.574219-8 8v448c0 4.425781 3.585938 8 8 8h336c4.414062 0 8-3.574219 8-8v-24h24c4.414062 0 8-3.574219 8-8v-448c0-4.425781-3.585938-8-8-8zm-40 480h-320v-432h256v56c0 4.425781 3.585938 8 8 8h56zm-11.3125-384h-36.6875v-36.6875zm43.3125 352h-16v-344c0-2.214844-.894531-4.214844-2.351562-5.664062l-63.984376-63.984376c-1.449218-1.457031-3.449218-2.351562-5.664062-2.351562h-232v-16h320zm0 0"/><path d="m89.488281 217.6875 10.9375 5.472656c1.117188.558594 2.351563.839844 3.574219.839844s2.457031-.28125 3.574219-.839844l10.9375-5.472656c35.464843-17.726562 57.488281-53.367188 57.488281-93.015625v-52.671875c0-4.425781-3.585938-8-8-8h-128c-4.414062 0-8 3.574219-8 8v52.671875c0 39.648437 22.023438 75.289063 57.488281 93.015625zm-41.488281-137.6875h112v44.671875c0 33.542969-18.640625 63.703125-48.648438 78.703125l-7.351562 3.679688-7.351562-3.679688c-30.007813-15-48.648438-45.160156-48.648438-78.703125zm0 0"/><path d="m144 168v-32c0-4.425781-3.585938-8-8-8h-8v-8c0-13.230469-10.769531-24-24-24s-24 10.769531-24 24v8h-8c-4.414062 0-8 3.574219-8 8v32c0 4.425781 3.585938 8 8 8h64c4.414062 0 8-3.574219 8-8zm-48-48c0-4.414062 3.59375-8 8-8s8 3.585938 8 8v8h-16zm32 40h-48v-16h48zm0 0"/></svg>