<svg xmlns="http://www.w3.org/2000/svg" width="12.995" height="16" viewBox="0 0 12.995 16">
  <path id="Union_11" data-name="Union 11" d="M4800.952,2163a1.852,1.852,0,0,1-1.339-.578,2.071,2.071,0,0,1-.549-1.426v-9.232a1.432,1.432,0,0,1,.368-2.816h1.917v-.467a1.474,1.474,0,0,1,1.484-1.48h3.328a1.471,1.471,0,0,1,1.484,1.48v.467h1.918a1.432,1.432,0,0,1,.367,2.816V2161a2.066,2.066,0,0,1-.549,1.426,1.848,1.848,0,0,1-1.339.578Zm-1.138-2a1.186,1.186,0,0,0,1.138,1.255h7.09a1.186,1.186,0,0,0,1.14-1.255v-9.2h-9.368Zm-1.057-10.623a.674.674,0,0,0,.675.674h10.131a.674.674,0,1,0,0-1.349h-10.131A.675.675,0,0,0,4798.757,2150.373Zm3.555-2.414a.726.726,0,0,0-.212.522v.467h4.8v-.467a.724.724,0,0,0-.735-.732h-3.337A.727.727,0,0,0,4802.312,2147.959Zm4.015,12.258v-7.176a.38.38,0,1,1,.759,0v7.176a.38.38,0,1,1-.759,0Zm-2.208,0v-7.176a.379.379,0,1,1,.758,0v7.176a.379.379,0,1,1-.758,0Zm-2.209,0v-7.176a.38.38,0,1,1,.759,0v7.176a.38.38,0,1,1-.759,0Z" transform="translate(-4798 -2147)" fill="#fff"/>
</svg>
