<svg xmlns="http://www.w3.org/2000/svg" width="16" height="11.869" viewBox="0 0 16 11.869">
  <path id="Контур_1336" data-name="Контур 1336" d="M.237,66.359l2.388,1.15v1.915a.419.419,0,0,0,.237.378L7.431,72a.42.42,0,0,0,.182.041H8.38A.42.42,0,0,0,8.562,72l4.556-2.195a.42.42,0,0,0,.2-.2l.017-.038a.419.419,0,0,0,.034-.165V67.509l.651-.314v2.6a.751.751,0,0,0-.3.406l-.371,1.208a.751.751,0,0,0,0,.454l.344,1.059a.756.756,0,0,0,.695.521h.023a.75.75,0,0,0,.7-.478l.4-1.009a.758.758,0,0,0,.022-.49l-.371-1.258a.75.75,0,0,0-.3-.415v-3l.9-.436A.419.419,0,0,0,16,65.978v-.334a.419.419,0,0,0-.237-.378L8.179,61.613a.419.419,0,0,0-.364,0L.237,65.263A.419.419,0,0,0,0,65.641v.34A.419.419,0,0,0,.237,66.359ZM14.42,72.438l-.263-.812.281-.916.284.963Zm-1.89-3.278L8.285,71.206H7.709L3.464,69.161V67.913l4.351,2.1a.419.419,0,0,0,.364,0l4.351-2.1v1.247ZM8,62.456l6.965,3.355-2.139,1.03a.425.425,0,0,0-.056.022L8,69.161l-4.77-2.3a.424.424,0,0,0-.055-.022l-2.139-1.03Z" transform="translate(0 -61.572)"/>
</svg>
