<svg xmlns="http://www.w3.org/2000/svg" width="47.95" height="48" viewBox="0 0 47.95 48">
  <g id="Group_240" data-name="Group 240" transform="translate(-1631 -589.5)">
    <path id="Path_85" data-name="Path 85" d="M48.211,204.334a2.038,2.038,0,0,1-.6,1.5,2.163,2.163,0,0,1-1.4.5H2.259a2.385,2.385,0,0,1-1.4-.5,2.038,2.038,0,0,1-.6-1.5V175.02h47.95v29.314Z" transform="translate(1630.738 431.165)" fill="#ffd15c"/>
    <path id="Path_86" data-name="Path 86" d="M53.28,306.935a2.163,2.163,0,0,1-1.4.5H7.929a2.385,2.385,0,0,1-1.4-.5L29.9,286.825Z" transform="translate(1625.07 330.065)" fill="#ff8000" opacity="0.5"/>
    <path id="Path_87" data-name="Path 87" d="M48.211,16.722l-6.793,4.892L25.535,32.994a2.249,2.249,0,0,1-2.7,0L7.054,21.613.261,16.722,7.054,11.83,21.839,1.248l1.1-.8a2.249,2.249,0,0,1,2.7,0l1.1.8,7.093,5.091,3.5,2.5,4.1,2.995Z" transform="translate(1630.738 589.5)" fill="#888"/>
    <path id="Path_88" data-name="Path 88" d="M105.658,19.264V33.471L89.784,44.876a2.243,2.243,0,0,1-2.7,0L71.314,33.471V15.062a2,2,0,0,1,2-2H99.368Z" transform="translate(1566.489 577.69)" fill="#f2f2f2"/>
    <path id="Path_89" data-name="Path 89" d="M365.974,17.663a1.58,1.58,0,0,0,1.6,1.6h4.6l-6.2-6.2v4.6Z" transform="translate(1299.969 577.69)" fill="#cdd6e0"/>
    <path id="Path_90" data-name="Path 90" d="M186.075,114.428h1.6a5.286,5.286,0,0,1-2.4,2.5,8.822,8.822,0,0,1-4.5,1,9.87,9.87,0,0,1-4.4-.9,5.9,5.9,0,0,1-2.8-2.6,7.79,7.79,0,0,1-.9-3.7,8.3,8.3,0,0,1,1-4.1,6.317,6.317,0,0,1,2.8-2.8,9.15,9.15,0,0,1,4.1-.9,7.849,7.849,0,0,1,3.5.8,4.911,4.911,0,0,1,2.3,2.2,6.5,6.5,0,0,1,.8,3.1,5.994,5.994,0,0,1-1.2,3.6,4.5,4.5,0,0,1-3.9,2,2.51,2.51,0,0,1-1-.2,1.013,1.013,0,0,1-.4-.7,2.88,2.88,0,0,1-2.1.9,2.584,2.584,0,0,1-2.1-.9,3.245,3.245,0,0,1-.9-2.4,6.115,6.115,0,0,1,1-3.4,3.721,3.721,0,0,1,3.2-1.8,2.477,2.477,0,0,1,2.1,1.1l.2-.9h2.1l-1.2,5.6a2.639,2.639,0,0,0-.1.7.368.368,0,0,0,.1.3c.1.1.1.1.2.1a2.265,2.265,0,0,0,1-.5,4.175,4.175,0,0,0,1.3-1.6,5.376,5.376,0,0,0,.5-2.1,4.16,4.16,0,0,0-1.4-3.2,5.265,5.265,0,0,0-3.9-1.3,6.874,6.874,0,0,0-3.6.9,5.653,5.653,0,0,0-2.2,2.4,7.249,7.249,0,0,0-.7,3.3,6.112,6.112,0,0,0,.8,3,4.963,4.963,0,0,0,2.3,2,8.974,8.974,0,0,0,3.4.6,10.24,10.24,0,0,0,3.2-.5A5.968,5.968,0,0,0,186.075,114.428Zm-8.5-3.2a2.236,2.236,0,0,0,.4,1.5,1.389,1.389,0,0,0,1,.5,1.885,1.885,0,0,0,.8-.2,2.652,2.652,0,0,0,.6-.5,3.654,3.654,0,0,0,.7-1.4,5.548,5.548,0,0,0,.3-1.7,2.117,2.117,0,0,0-.4-1.4,1.389,1.389,0,0,0-1-.5,1.846,1.846,0,0,0-1.2.5,2.748,2.748,0,0,0-.9,1.5A5.553,5.553,0,0,0,177.571,111.227Z" transform="translate(1474.802 496.41)" fill="#ff8000"/>
  </g>
</svg>
