<svg xmlns="http://www.w3.org/2000/svg" width="22.993" height="27" viewBox="0 0 22.993 27">
  <path id="Union_11" data-name="Union 11" d="M11.5,27a1.928,1.928,0,0,1-.38-.038,2.06,2.06,0,0,1-.262-.071,17.088,17.088,0,0,1-6.384-3.775A13.6,13.6,0,0,1,1.21,18.035C-.108,14.458-.033,10.518.027,7.353V7.3c.012-.242.02-.508.024-.839a2.862,2.862,0,0,1,2.695-2.8A11.109,11.109,0,0,0,10.305.476L10.323.46A1.724,1.724,0,0,1,11.491,0h.029A1.732,1.732,0,0,1,12.671.46l.017.016a11.113,11.113,0,0,0,7.559,3.186,2.862,2.862,0,0,1,2.695,2.8c0,.3.012.575.024.839v.021c.06,3.172.135,7.118-1.187,10.705a13.619,13.619,0,0,1-3.263,5.083,17.079,17.079,0,0,1-6.376,3.777,2.038,2.038,0,0,1-.264.072A1.954,1.954,0,0,1,11.52,27ZM10.893,7.5V9.6a2.845,2.845,0,0,1-1.313,2.36,4.568,4.568,0,0,1-1.279.634l-.222.075v5.088a1.26,1.26,0,0,0,1.26,1.26h5.612a1.43,1.43,0,0,0,1.61-1.289v-.008l.714-4.556a1.274,1.274,0,0,0-.492-1.236,1.232,1.232,0,0,0-.73-.235v0H12.893a.244.244,0,0,1-.243-.244V9.076a1.634,1.634,0,0,0-.517-1.391,1.37,1.37,0,0,0-.813-.231A2.317,2.317,0,0,0,10.893,7.5Zm-5.6,11.312h2.3V12.442h-2.3Z" fill="#ff8000"/>
</svg>
