<svg xmlns="http://www.w3.org/2000/svg" width="37.664" height="30.008" viewBox="0 0 37.664 30.008">
  <path id="Path_168" data-name="Path 168" d="M18.8-21.082H11.311V-23.7a12.961,12.961,0,0,0-.211-3.09.946.946,0,0,0-1.014-.622.941.941,0,0,0-.943.533,8.685,8.685,0,0,0-.249,2.739v13.817a8.229,8.229,0,0,0,.249,2.552.97.97,0,0,0,1,.614,1.1,1.1,0,0,0,1.111-.694,8.113,8.113,0,0,0,.293-2.7v-3.414H10.031V-18.34H18.8V-2.89H14.1l-.7-2.063a5.233,5.233,0,0,1-1.931,2,5.443,5.443,0,0,1-2.749.667A7.151,7.151,0,0,1,5.188-3.2a6.76,6.76,0,0,1-2.5-2.267A7.181,7.181,0,0,1,1.62-8.3a34.052,34.052,0,0,1-.214-4.455v-8.554A28.652,28.652,0,0,1,1.851-27.3,6.148,6.148,0,0,1,4.4-30.729a8.944,8.944,0,0,1,5.451-1.556,10.156,10.156,0,0,1,5.459,1.352,6.38,6.38,0,0,1,2.828,3.21,17,17,0,0,1,.658,5.4Zm2.9-10.6h5.6a34.845,34.845,0,0,1,7.336.5,5.624,5.624,0,0,1,2.908,1.636,5.18,5.18,0,0,1,1.245,2.534,38.294,38.294,0,0,1,.249,5.486v10.083a23.42,23.42,0,0,1-.365,5.184A3.9,3.9,0,0,1,37.4-4.215a5.289,5.289,0,0,1-2.241,1.031,20.251,20.251,0,0,1-4.019.293H21.7Zm7.487,4.926v18.94q1.618,0,1.992-.649a9.5,9.5,0,0,0,.373-3.53V-23.18a15.017,15.017,0,0,0-.124-2.507,1.189,1.189,0,0,0-.569-.809,3.7,3.7,0,0,0-1.676-.259Z" transform="translate(-1.393 32.293)" fill="#ff8000"/>
</svg>
