<svg xmlns="http://www.w3.org/2000/svg" width="289.082" height="200" viewBox="0 0 289.082 200">
  <g id="Слой_x0020_1" transform="translate(141.33 -9.75)">
    <path id="Контур_1" data-name="Контур 1" d="M35.34,46.412V172.867c7.082,0,11.445-1.47,13.062-4.338a7.888,7.888,0,0,0,.735-1.74c10.685-32.839,35.29-48.278,51.734-62.223v44.014q0,25.879-2.426,34.555A26.06,26.06,0,0,1,89.99,196.81,35.82,35.82,0,0,1,75.016,203.7c-5.906,1.274-14.827,1.936-26.761,1.936H-14.654V52.49a48.909,48.909,0,0,0-3.5-19.287c-3.529-9.043-9.631-15.537-21.149-19.556h62q36.1,0,48.842,3.308Q84.292,20.3,90.921,27.885a34.617,34.617,0,0,1,8.308,16.861c.049.27.074.539.123.809q.074.515.147,1.1c3.308,26.933-34.53,46.931-48.621,92.195V70.282c0-8.7-.294-14.287-.809-16.763a7.813,7.813,0,0,0-3.774-5.367c-1.936-1.176-5.563-1.74-10.955-1.74Zm80.015,11.249,19.409-30.388c3.357-4.215,8.455-6.837,12.989-8.553-.221,4.852-1.127,10.513-4.117,15L120.77,61.582a4.745,4.745,0,0,1-2.01-.392l-.49.613a2.724,2.724,0,0,1-2.353-1.715l.441-.662a4.715,4.715,0,0,1-1-1.764Zm-3.48-3.676,7.965-17.473,9.607-3.676-15.194,24.09C112.511,56.46,111.629,55.529,111.874,53.985Zm13.479,9.778,14.14-12.989.515-10.268L121.824,62.391c.98,1.519,2.132,2.083,3.529,1.372Zm-8.577,4.117c-6.2,9.411-14.042,17.081-22.081,24.458,8.112-7.328,16.371-14.827,24.311-24.213,1.2-1.421,2.745-.417,1.74.711-15.733,17.694-35.78,31.883-50.9,48.131C83.054,97.509,99.131,86.579,112.56,64.89c1.985-3.21,6.764-.858,4.215,2.99ZM83.544,102.533a138.667,138.667,0,0,0-13.7,14.435A160.458,160.458,0,0,1,83.544,102.533Zm27.913-39.554C100.92,83.172,81.608,99.053,69.845,116.967c10.93-19.7,28.011-32.521,39.137-54.822.858-1.715,1.863-1.838,2.451-1.348.417.368.662,1,.025,2.181ZM-25.56,84.52H-75.554V67.071c0-11-.441-17.865-1.372-20.61-.931-2.794-3.161-4.166-6.641-4.166-2.99,0-5.048,1.152-6.127,3.553-1.1,2.353-1.617,8.455-1.617,18.233v92.072c0,8.577.515,14.287,1.617,16.983,1.078,2.72,3.235,4.093,6.47,4.093,3.553,0,5.931-1.544,7.229-4.607,1.25-3.088,1.912-9.092,1.912-18.037V131.843h-9.7V102.729H-25.56v5.759l.025,97.145H-56.978l-4.607-13.748A35.529,35.529,0,0,1-74.4,205.265a36.067,36.067,0,0,1-18.307,4.485,47.362,47.362,0,0,1-23.5-6.1c-7.279-4.093-12.817-9.092-16.567-15.121a48.319,48.319,0,0,1-7.132-18.895c-.931-6.592-1.421-16.518-1.421-29.7V82.9q0-27.5,2.965-39.922,2.978-12.5,16.983-22.865T-85.087,9.75q21.909,0,36.319,9.043c9.631,6.029,15.929,13.136,18.846,21.394,2.916,8.283,4.362,20.267,4.362,36.025V84.52Z" transform="translate(0 0)" fill="#ff8000" fill-rule="evenodd"/>
  </g>
</svg>
