<svg xmlns="http://www.w3.org/2000/svg" xmlns:xlink="http://www.w3.org/1999/xlink" width="118.115" height="35" viewBox="0 0 118.115 35">
  <defs>
    <linearGradient id="linear-gradient" x1="1.113" y1="0.333" x2="-0.113" y2="0.667" gradientUnits="objectBoundingBox">
      <stop offset="0" stop-color="#00a0ff"/>
      <stop offset="0.012" stop-color="#00a1ff"/>
      <stop offset="0.259" stop-color="#00beff"/>
      <stop offset="0.51" stop-color="#00d2ff"/>
      <stop offset="0.761" stop-color="#00dfff"/>
      <stop offset="1" stop-color="#00e3ff"/>
    </linearGradient>
    <linearGradient id="linear-gradient-2" x1="1" y1="0.5" x2="0" y2="0.5" gradientUnits="objectBoundingBox">
      <stop offset="0" stop-color="#ffe000"/>
      <stop offset="0.412" stop-color="#ffbd00"/>
      <stop offset="0.78" stop-color="orange"/>
      <stop offset="1" stop-color="#ff9c00"/>
    </linearGradient>
    <linearGradient id="linear-gradient-3" x1="0.815" y1="-0.025" x2="0.185" y2="1.025" gradientUnits="objectBoundingBox">
      <stop offset="0" stop-color="#ff3a44"/>
      <stop offset="1" stop-color="#c31162"/>
    </linearGradient>
    <linearGradient id="linear-gradient-4" x1="0.373" y1="0.287" x2="0.627" y2="0.713" gradientUnits="objectBoundingBox">
      <stop offset="0" stop-color="#32a071"/>
      <stop offset="0.071" stop-color="#2da771"/>
      <stop offset="0.478" stop-color="#15cf74"/>
      <stop offset="0.8" stop-color="#06e775"/>
      <stop offset="1" stop-color="#00f076"/>
    </linearGradient>
    <linearGradient id="linear-gradient-5" x1="1.005" y1="0.506" x2="0.004" y2="0.506" gradientUnits="objectBoundingBox">
      <stop offset="0" stop-color="#ccb300"/>
      <stop offset="0.412" stop-color="#cc9700"/>
      <stop offset="0.78" stop-color="#cc8400"/>
      <stop offset="1" stop-color="#cc7d00"/>
    </linearGradient>
    <linearGradient id="linear-gradient-6" x1="0.715" y1="-0.285" x2="0.285" y2="1.285" gradientUnits="objectBoundingBox">
      <stop offset="0" stop-color="#cc2e36"/>
      <stop offset="1" stop-color="#9c0e4e"/>
    </linearGradient>
    <linearGradient id="linear-gradient-7" x1="1.394" y1="0.393" x2="-0.393" y2="0.607" gradientUnits="objectBoundingBox">
      <stop offset="0" stop-color="#008de0"/>
      <stop offset="0.012" stop-color="#008de0"/>
      <stop offset="0.259" stop-color="#00a7e0"/>
      <stop offset="0.51" stop-color="#00b8e0"/>
      <stop offset="0.761" stop-color="#00c4e0"/>
      <stop offset="1" stop-color="#00c7e0"/>
    </linearGradient>
    <linearGradient id="linear-gradient-8" x1="1.005" x2="0.006" y2="0.998" gradientUnits="objectBoundingBox">
      <stop offset="0" stop-color="#e0333c"/>
      <stop offset="1" stop-color="#ab0f56"/>
    </linearGradient>
    <linearGradient id="linear-gradient-9" x1="1" y1="0.5" x2="0" y2="0.5" gradientUnits="objectBoundingBox">
      <stop offset="0" stop-color="#e0c500"/>
      <stop offset="0.412" stop-color="#e0a600"/>
      <stop offset="0.78" stop-color="#e09100"/>
      <stop offset="1" stop-color="#e08900"/>
    </linearGradient>
    <linearGradient id="linear-gradient-10" x1="1" y1="0.5" x2="0" y2="0.5" gradientUnits="objectBoundingBox">
      <stop offset="0" stop-color="#ffe840"/>
      <stop offset="0.412" stop-color="#ffce40"/>
      <stop offset="0.78" stop-color="#ffbc40"/>
      <stop offset="1" stop-color="#ffb540"/>
    </linearGradient>
    <linearGradient id="linear-gradient-11" x1="1.402" y1="0.402" x2="-0.402" y2="0.598" gradientUnits="objectBoundingBox">
      <stop offset="0" stop-color="#40b8ff"/>
      <stop offset="0.012" stop-color="#40b9ff"/>
      <stop offset="0.259" stop-color="#40ceff"/>
      <stop offset="0.51" stop-color="#40ddff"/>
      <stop offset="0.761" stop-color="#40e7ff"/>
      <stop offset="1" stop-color="#40eaff"/>
    </linearGradient>
    <linearGradient id="linear-gradient-12" x1="0.405" y1="0.155" x2="0.595" y2="0.845" gradientUnits="objectBoundingBox">
      <stop offset="0" stop-color="#65b895"/>
      <stop offset="0.071" stop-color="#62bd95"/>
      <stop offset="0.478" stop-color="#50db97"/>
      <stop offset="0.8" stop-color="#44ed98"/>
      <stop offset="1" stop-color="#40f498"/>
    </linearGradient>
  </defs>
  <g id="Group_622" data-name="Group 622" transform="translate(3160.551 9848)">
    <path id="Path_969" data-name="Path 969" d="M4.511,0H113.6a4.511,4.511,0,0,1,4.511,4.511V30.489A4.511,4.511,0,0,1,113.6,35H4.511A4.511,4.511,0,0,1,0,30.489V4.511A4.511,4.511,0,0,1,4.511,0Z" transform="translate(-3160.551 -9848)"/>
    <path id="Path_931" data-name="Path 931" d="M35930.633,14912.327h1.629v-10.934h-1.629Zm14.7-7-1.871,4.74h-.055l-1.945-4.74h-1.758l2.914,6.627-1.656,3.685h1.7l4.488-10.312Zm-9.258,5.754c-.535,0-1.277-.268-1.277-.929,0-.844.926-1.167,1.727-1.167a2.892,2.892,0,0,1,1.492.365A1.978,1.978,0,0,1,35936.074,14911.086Zm.2-5.992a3.071,3.071,0,0,0-2.914,1.674l1.453.605a1.534,1.534,0,0,1,1.488-.8,1.569,1.569,0,0,1,1.715,1.406v.114a3.572,3.572,0,0,0-1.7-.424c-1.562,0-3.152.857-3.152,2.463a2.526,2.526,0,0,0,2.711,2.405,2.316,2.316,0,0,0,2.09-1.069h.051v.843h1.578v-4.19A3,3,0,0,0,35936.273,14905.094Zm-10.09,1.57h-2.32v-3.749h2.32a1.875,1.875,0,1,1,0,3.749Zm-.039-5.271h-3.91v10.934h1.629v-4.142h2.281a3.4,3.4,0,1,0,0-6.792Zm-21.324,9.694a2.263,2.263,0,0,1,0-4.509,2.272,2.272,0,0,1,0,4.509Zm1.875-5.145h-.055a2.594,2.594,0,0,0-1.961-.83,3.724,3.724,0,0,0,0,7.441,2.547,2.547,0,0,0,1.961-.847h.055v.535a1.907,1.907,0,0,1-1.992,2.185,2.05,2.05,0,0,1-1.867-1.325l-1.426.591a3.541,3.541,0,0,0,3.293,2.2c1.922,0,3.539-1.126,3.539-3.873v-6.68h-1.547Zm2.676,6.384h1.637v-10.934h-1.637Zm4.047-3.605a2.036,2.036,0,0,1,1.941-2.17,1.437,1.437,0,0,1,1.383.789Zm5.07-1.242a3.461,3.461,0,0,0-3.184-2.366,3.534,3.534,0,0,0-3.508,3.721,3.641,3.641,0,0,0,3.691,3.721,3.7,3.7,0,0,0,3.1-1.65l-1.266-.845a2.127,2.127,0,0,1-1.832,1.028,1.892,1.892,0,0,1-1.8-1.127l4.977-2.058Zm-39.625-1.225v1.578h3.773a3.278,3.278,0,0,1-.859,1.986,3.863,3.863,0,0,1-2.914,1.155,4.2,4.2,0,0,1,0-8.4,4,4,0,0,1,2.84,1.127l1.117-1.112a5.5,5.5,0,0,0-3.957-1.592,5.778,5.778,0,1,0,0,11.555,5.289,5.289,0,0,0,4.027-1.621,5.217,5.217,0,0,0,1.367-3.692,5.275,5.275,0,0,0-.086-.986Zm9.688,4.833a2.26,2.26,0,1,1,2.1-2.254A2.152,2.152,0,0,1,35888.551,14911.088Zm0-5.975a3.721,3.721,0,1,0,3.734,3.721A3.667,3.667,0,0,0,35888.551,14905.113Zm8.145,5.975a2.26,2.26,0,1,1,2.1-2.254A2.149,2.149,0,0,1,35896.7,14911.088Zm0-5.975a3.721,3.721,0,1,0,3.734,3.721A3.67,3.67,0,0,0,35896.7,14905.113Z" transform="translate(-38997.613 -24734.059)" fill="#fff"/>
    <path id="Path_932" data-name="Path 932" d="M8717.469,6674.688l-.064-.062a1.737,1.737,0,0,1-.405-1.2v-19.127a1.688,1.688,0,0,1,.47-1.293l10.836,10.843Zm-.47-1.292v0Zm0,.025v0Zm0-19.127v0Zm0-.128Zm0,0v0Zm0-.006v-.015h0v-.028h0v0h0v0h0v0h0v-.021h0v0h0v0h0v-.01h0v0h0v-.006h0v0h0v0h0v-.007h0v-.017h0v0h0v0h0v0h0v0h0v0h0v.017h0v.007h0v0h0v0h0v.006h0v0h0v.01h0v0h0v0h0v.021h0v0h0v0h0v0h0v.028h0v.015Zm0-.149h0Z" transform="translate(-11868.841 -16494.328)" fill-rule="evenodd" fill="url(#linear-gradient)"/>
    <path id="Path_933" data-name="Path 933" d="M20018.609,13879.354h0l.082-.047,4.279-2.432a1.869,1.869,0,0,0,.816-.811,1.882,1.882,0,0,1-.816.813l-4.279,2.43Zm0-.129-3.611-3.613,3.611-3.611,4.361,2.477a1.636,1.636,0,0,1,.918,1.135v0a1.632,1.632,0,0,1-.918,1.135Z" transform="translate(-23155.525 -23706.098)" fill-rule="evenodd" fill="url(#linear-gradient-2)"/>
    <path id="Path_934" data-name="Path 934" d="M9127.832,17493.248h-.028l-.013,0h-.015l-.014,0h-.027l-.014,0h0l-.014,0h-.014l-.013,0h0l-.014,0h0l-.011,0h0l-.014,0h0l-.013,0h0l-.012,0h0l-.013,0h0l-.013,0h0l-.014,0h0l-.013,0h0l-.013,0h0l-.012,0h0l-.012,0h0l-.012,0h0l-.013,0h0l-.012,0h0l-.012,0h0c-.025-.008-.051-.016-.074-.025h0l-.06-.025h0a.479.479,0,0,1-.067-.033h0l-.011-.006a1.091,1.091,0,0,1-.2-.143h0a1.194,1.194,0,0,0,.2.143l.011.006h0a.332.332,0,0,0,.067.033h0l.06.025h0c.023.01.049.018.074.025h0l.012,0h0l.012,0h0l.013,0h0l.012,0h0l.012,0h0l.012,0h0l.013,0h0l.013,0h0l.014,0h0l.013,0h0l.013,0h0l.012,0h0l.013,0h0l.014,0h0l.011,0h0l.014,0h0l.013,0h.014l.014,0h0l.014,0h.027l.014,0h.015l.013,0h.028Zm0,0h.042l0,0h.026l0,0h0l0,0h-.026l0,0h-.042Zm0-.129a1.111,1.111,0,0,1-.772-.285h0L9137.9,17482l3.612,3.613h0l-12.694,7.211A2,2,0,0,1,9127.832,17493.119Zm-.775-.158c-.02-.018-.038-.037-.057-.057Z" transform="translate(-12278.432 -27312.482)" fill-rule="evenodd" fill="url(#linear-gradient-3)"/>
    <path id="Path_935" data-name="Path 935" d="M9195.837,6252.248h0L9185,6241.413a1.126,1.126,0,0,1,.773-.284,2.022,2.022,0,0,1,.98.293l12.7,7.214Zm3.694-3.694-12.777-7.258a2.01,2.01,0,0,0-.98-.3h0a2.018,2.018,0,0,1,.979.294ZM9185.766,6241Z" transform="translate(-12336.374 -16082.737)" fill-rule="evenodd" fill="url(#linear-gradient-4)"/>
    <path id="Path_936" data-name="Path 936" d="M9121.919,21228.5a2.056,2.056,0,0,0,.9-.289l12.694-7.215h0l-12.694,7.215A2.056,2.056,0,0,1,9121.919,21228.5Zm-.854-.281,0,0s0,0,0,0Zm-.059-.057-.006-.006h0S9121,21228.162,9121.006,21228.166Z" transform="translate(-12272.438 -31047.738)"/>
    <path id="Path_937" data-name="Path 937" d="M23624,21174.047h0l.082-.047Z" transform="translate(-26760.916 -31000.791)" fill-rule="evenodd" fill="url(#linear-gradient-5)"/>
    <path id="Path_938" data-name="Path 938" d="M9121.839,21100.633a1.123,1.123,0,0,1-.774-.283h0s0,0,0,0l-.057-.057-.006,0,.064-.066a1.131,1.131,0,0,0,.773.285,2,2,0,0,0,.98-.295l12.7-7.211.081.08-.082.047-12.694,7.213a2.061,2.061,0,0,1-.9.291Z" transform="translate(-12272.438 -30919.867)" fill-rule="evenodd" fill="url(#linear-gradient-6)"/>
    <path id="Path_939" data-name="Path 939" d="M8717.4,27149.227A1.741,1.741,0,0,1,8717,27148h0a1.741,1.741,0,0,0,.405,1.227Z" transform="translate(-11868.841 -36968.809)"/>
    <path id="Path_940" data-name="Path 940" d="M8717.4,27022.355h0a1.752,1.752,0,0,1-.405-1.23V27021a1.746,1.746,0,0,0,.405,1.229l.064.063Z" transform="translate(-11868.841 -36841.934)" fill-rule="evenodd" fill="url(#linear-gradient-7)"/>
    <path id="Path_941" data-name="Path 941" d="M9121,28311.066h0l.064-.066h0Z" transform="translate(-12272.438 -38130.641)" fill-rule="evenodd" fill="url(#linear-gradient-8)"/>
    <path id="Path_942" data-name="Path 942" d="M28798,17483.451a1.077,1.077,0,0,0,.1-.449h0A1.077,1.077,0,0,1,28798,17483.451Z" transform="translate(-31929.736 -27313.488)"/>
    <path id="Path_943" data-name="Path 943" d="M23625.08,17486.693h0l-.082-.08,4.361-2.479a1.629,1.629,0,0,0,.918-1.133,1.053,1.053,0,0,1-.1.449,1.869,1.869,0,0,1-.816.811Z" transform="translate(-26761.914 -27313.486)" fill-rule="evenodd" fill="url(#linear-gradient-9)"/>
    <path id="Path_944" data-name="Path 944" d="M23711.2,13793.694h0a1.536,1.536,0,0,0-.918-1.263L23706,13790h0l4.279,2.431A1.539,1.539,0,0,1,23711.2,13793.694Z" transform="translate(-26842.832 -23624.18)" fill="#404040"/>
    <path id="Path_945" data-name="Path 945" d="M23630.277,13793.694a1.63,1.63,0,0,0-.918-1.135l-4.361-2.478.082-.082h0l4.279,2.432A1.536,1.536,0,0,1,23630.277,13793.694Z" transform="translate(-26761.914 -23624.18)" fill-rule="evenodd" fill="url(#linear-gradient-10)"/>
    <path id="Path_946" data-name="Path 946" d="M8717,6242.573v0Zm0-.143v0Zm0,0v0Zm0,0c.051-.9.54-1.417,1.231-1.421a1.128,1.128,0,0,0-.766.285h0l0,0c-.021.019-.042.039-.062.061h0A1.672,1.672,0,0,0,8717,6242.421Z" transform="translate(-11868.841 -16082.738)" fill="#404040"/>
    <path id="Path_947" data-name="Path 947" d="M8717,6526.42v-.134c0-.048,0-.1,0-.142v-.008h0a1.668,1.668,0,0,1,.4-1.072l.064.064A1.688,1.688,0,0,0,8717,6526.42Zm.405-1.356Zm.062-.062,0,0Z" transform="translate(-11868.841 -16366.454)" fill-rule="evenodd" fill="url(#linear-gradient-11)"/>
    <path id="Path_948" data-name="Path 948" d="M9950,6241h0Z" transform="translate(-13100.608 -16082.741)" fill="#404040"/>
    <path id="Path_949" data-name="Path 949" d="M9135.514,6248.636l-12.7-7.214a2.028,2.028,0,0,0-.981-.293,1.126,1.126,0,0,0-.773.284l-.063-.064h0c.021-.022.041-.042.063-.061l0,0a1.132,1.132,0,0,1,.766-.285h.007a2.017,2.017,0,0,1,.981.3l12.776,7.258h0Z" transform="translate(-12272.438 -16082.737)" fill-rule="evenodd" fill="url(#linear-gradient-12)"/>
    <path id="Path_950" data-name="Path 950" d="M36167.852,6121.594a3.435,3.435,0,0,1-.5,2.008h2.656v-3.958h-2.16Zm-1.207,3.766H36166V6123.6h.516a2.511,2.511,0,0,0,.668-2.008V6119h3.5v4.6h.586v1.758h-.648v-1.114h-3.977Z" transform="translate(-39290.355 -15960.859)" fill="#fff"/>
    <path id="Path_951" data-name="Path 951" d="M36080.941,6033.683h-.09v.07a3.354,3.354,0,0,1-.48,1.889l-.094.135h2.9v-4.133h-2.328v2.04h.176v-1.863h1.984v3.783h-2.566v.088l.07.048a3.5,3.5,0,0,0,.512-1.985v-.072Zm-1.207,3.766v-.087h-.559v-1.584h.461l.023-.021a2.558,2.558,0,0,0,.7-2.017l0-.058h0v-2.508h3.332v4.6h.586v1.584h-.469v-1.114h-4.152v1.2h.086v0h.09v-1.027h3.8v1.114h.82V6035.6h-.59V6031h-3.676v2.74a2.359,2.359,0,0,1-.637,1.884l.059.067v-.088h-.6v1.933h.824v-.087Z" transform="translate(-39203.445 -15872.948)" fill="#fff"/>
    <path id="Path_952" data-name="Path 952" d="M42071.27,6005.248a2.029,2.029,0,0,0,2.859,0,2.263,2.263,0,0,0,0-3.013,2.028,2.028,0,0,0-2.859,0,2.24,2.24,0,0,0,0,3.013Zm3.352.439a2.72,2.72,0,0,1-3.844,0,2.824,2.824,0,0,1,0-3.892,2.71,2.71,0,0,1,3.84,0,2.824,2.824,0,0,1,0,3.888Z" transform="translate(-45188.449 -15842.979)" fill="#fff"/>
    <path id="Path_953" data-name="Path 953" d="M41984.355,5918.332l-.062.063a2.1,2.1,0,0,0,2.973,0,2.322,2.322,0,0,0,0-3.136h0a2.1,2.1,0,0,0-2.973,0h0a2.333,2.333,0,0,0,0,3.136l.063-.062.059-.061a2.158,2.158,0,0,1,0-2.889h0a1.936,1.936,0,0,1,2.73,0h0a2.158,2.158,0,0,1,0,2.889,1.934,1.934,0,0,1-2.73,0Zm3.348.439-.062-.061a2.631,2.631,0,0,1-3.719,0h0a2.753,2.753,0,0,1,0-3.769h0a2.624,2.624,0,0,1,3.715,0,2.743,2.743,0,0,1,0,3.765l.063.061.063.062a2.915,2.915,0,0,0,0-4.01,2.8,2.8,0,0,0-3.965,0h0a2.925,2.925,0,0,0,0,4.014h0a2.806,2.806,0,0,0,3.969,0Z" transform="translate(-45101.535 -15756.063)" fill="#fff"/>
    <path id="Path_954" data-name="Path 954" d="M48130.727,6006.482a2.741,2.741,0,1,1,0-5.482,2.421,2.421,0,0,1,1.922.857l-.465.454a1.78,1.78,0,0,0-1.457-.667,1.982,1.982,0,0,0-1.449.58,2.235,2.235,0,0,0,0,3.034,1.981,1.981,0,0,0,1.449.578,2.069,2.069,0,0,0,1.609-.762l.469.469a2.524,2.524,0,0,1-.9.685A2.742,2.742,0,0,1,48130.727,6006.482Z" transform="translate(-51240.379 -15842.979)" fill="#fff"/>
    <path id="Path_955" data-name="Path 955" d="M48043.813,5919.567v-.087a2.654,2.654,0,1,1,0-5.307,2.355,2.355,0,0,1,1.867.827l.063-.057-.059-.063-.473.455.063.062.07-.054a1.864,1.864,0,0,0-1.531-.7,2.079,2.079,0,0,0-1.508.6h0a2.33,2.33,0,0,0,0,3.159h0a2.084,2.084,0,0,0,1.508.6,2.158,2.158,0,0,0,1.68-.792l-.062-.058-.066.063.473.468.059-.062-.062-.055a2.509,2.509,0,0,1-.875.662,2.7,2.7,0,0,1-1.145.245v.175a2.793,2.793,0,0,0,1.215-.263,2.635,2.635,0,0,0,.938-.707l.055-.062-.527-.525-.07-.065-.062.07a1.975,1.975,0,0,1-1.547.732,1.9,1.9,0,0,1-1.383-.555h0a2.15,2.15,0,0,1,0-2.908h0a1.9,1.9,0,0,1,1.383-.554,1.683,1.683,0,0,1,1.391.633l.063.075.539-.521.059-.057-.051-.063a2.531,2.531,0,0,0-2-.887,2.829,2.829,0,1,0,0,5.657Z" transform="translate(-51153.469 -15756.063)" fill="#fff"/>
    <path id="Path_956" data-name="Path 956" d="M53522.141,6124.247h-.676v-4.6H53520V6119h3.605v.644h-1.469Z" transform="translate(-56626.988 -15960.859)" fill="#fff"/>
    <path id="Path_957" data-name="Path 957" d="M53434.227,6036.335v-.087h-.586v-4.6h-1.465v-.469h3.43v.469h-1.465v4.69h.086v0h.09v-4.515h1.465V6031H53432v.82h1.465v4.6h.852v-.087Z" transform="translate(-56539.074 -15872.949)" fill="#fff"/>
    <path id="Path_958" data-name="Path 958" d="M57580.176,6119l-1.984,4.426a1.324,1.324,0,0,1-1.227.938,1.365,1.365,0,0,1-.523-.118l.176-.623a.705.705,0,0,0,.352.1.62.62,0,0,0,.363-.091.8.8,0,0,0,.238-.333l.191-.418L57576,6119h.789l1.3,3.012h.027l1.27-3.012Z" transform="translate(-60678.926 -15960.859)" fill="#fff"/>
    <path id="Path_959" data-name="Path 959" d="M57444.313,6031.088l-.082-.036-1.988,4.426h0a1.225,1.225,0,0,1-1.141.886,1.258,1.258,0,0,1-.488-.112l-.035.081.086.024.176-.623-.086-.024-.043.076a.808.808,0,0,0,.4.107.675.675,0,0,0,.41-.108.919.919,0,0,0,.273-.369l.191-.418.016-.035-1.73-3.79h.6l1.3,3.012h.145l1.266-3.012h.738v-.087l-.082-.036.082.036V6031h-.852l-1.289,3.066.078.034v-.088h-.031v.088l.082-.035-1.316-3.065H57440l1.8,3.965-.172.382a.747.747,0,0,1-.211.3.547.547,0,0,1-.312.075.612.612,0,0,1-.309-.084l-.1-.055-.2.73-.02.076.07.03a1.433,1.433,0,0,0,.555.124,1.4,1.4,0,0,0,1.3-.99h0l2.043-4.55h-.133Z" transform="translate(-60543.063 -15872.949)" fill="#fff"/>
    <path id="Path_960" data-name="Path 960" d="M62513,6124.247V6119h3.8v5.247h-.676v-4.6h-2.445v4.6Z" transform="translate(-65610.977 -15960.859)" fill="#fff"/>
    <path id="Path_961" data-name="Path 961" d="M62426.086,6036.335h.09v-5.16h3.617v5.073h-.5v-4.6h-2.625v4.6h-.582v.087h0v.087h.758v-4.6h2.277v4.6h.848V6031H62426v5.422h.086Z" transform="translate(-65524.07 -15872.949)" fill="#fff"/>
    <path id="Path_962" data-name="Path 962" d="M67509,6124.247V6119h.664v2.249h2.625V6119h.68v5.247h-.68v-2.367h-2.625v2.367Z" transform="translate(-70601.977 -15960.859)" fill="#fff"/>
    <path id="Path_963" data-name="Path 963" d="M67421.094,6036.335h.086v-5.16h.5v2.25h2.8v-2.25h.5v5.073h-.5v-2.369h-2.8v2.369h-.586v.087h0v.087h.766v-2.367h2.445v2.367h.844V6031h-.844v2.25h-2.445V6031H67421v5.422h.094Z" transform="translate(-70514.063 -15872.949)" fill="#fff"/>
    <path id="Path_964" data-name="Path 964" d="M72352.281,6005.248a2,2,0,0,0,2.836,0,2.229,2.229,0,0,0,0-3.013,2,2,0,0,0-2.836,0,2.208,2.208,0,0,0,0,3.013Zm3.344.439a2.729,2.729,0,0,1-3.852,0,2.834,2.834,0,0,1,0-3.892,2.715,2.715,0,0,1,3.844,0,2.84,2.84,0,0,1,.008,3.888Z" transform="translate(-75439.125 -15842.979)" fill="#fff"/>
    <path id="Path_965" data-name="Path 965" d="M72264.359,5918.332l-.055.063a2.008,2.008,0,0,0,1.484.615,2.033,2.033,0,0,0,1.484-.615,2.322,2.322,0,0,0,0-3.136h0a2.027,2.027,0,0,0-1.484-.615,2,2,0,0,0-1.484.615h0a2.3,2.3,0,0,0,0,3.136l.055-.062.063-.061a2.158,2.158,0,0,1,0-2.889h0a1.931,1.931,0,0,1,2.727,0v0a2.158,2.158,0,0,1,0,2.889,1.93,1.93,0,0,1-2.727,0Zm3.344.439-.055-.061a2.5,2.5,0,0,1-1.859.77,2.465,2.465,0,0,1-1.859-.77v0a2.743,2.743,0,0,1,0-3.769h0a2.461,2.461,0,0,1,1.859-.769,2.5,2.5,0,0,1,1.859.772,2.759,2.759,0,0,1,0,3.765l.055.061.07.062a2.91,2.91,0,0,0-.008-4.01,2.645,2.645,0,0,0-1.977-.825,2.7,2.7,0,0,0-1.992.821h0a2.947,2.947,0,0,0,0,4.014h0a2.7,2.7,0,0,0,1.992.822,2.672,2.672,0,0,0,1.984-.822Z" transform="translate(-75351.227 -15756.063)" fill="#fff"/>
    <path id="Path_966" data-name="Path 966" d="M80497.664,6123.6h1.359a.8.8,0,0,0,.633-.272.85.85,0,0,0,.234-.593.818.818,0,0,0-.242-.59.849.849,0,0,0-.656-.267h-1.328Zm0-2.354h1.227a.833.833,0,0,0,.852-.806.808.808,0,0,0-.227-.548.75.75,0,0,0-.594-.25h-1.258Zm-.672,3V6119h1.9a1.536,1.536,0,0,1,1.07.406,1.333,1.333,0,0,1,.453,1.022,1.074,1.074,0,0,1-.2.66,1.149,1.149,0,0,1-.508.432v.029a1.318,1.318,0,0,1,.633.455,1.161,1.161,0,0,1,.25.748,1.383,1.383,0,0,1-.469,1.07,1.615,1.615,0,0,1-1.125.425Z" transform="translate(-83576.969 -15960.859)" fill="#fff"/>
    <path id="Path_967" data-name="Path 967" d="M80409.758,6035.686v.087h1.359a.9.9,0,0,0,.7-.3h0a.92.92,0,0,0-.008-1.3h0a.953.953,0,0,0-.719-.3h-1.422v1.9h.094v-.087h.086v-1.636h1.242a.747.747,0,0,1,.586.24h0a.768.768,0,0,1,.008,1.066h0a.71.71,0,0,1-.562.243h-1.359v.087h0Zm0-2.354v.087h1.219a.872.872,0,0,0,.68-.281h0a.863.863,0,0,0,.25-.612.844.844,0,0,0-.242-.607h0a.832.832,0,0,0-.656-.279h-1.344v1.78h.094v-.087h.086v-1.518h1.164a.677.677,0,0,1,.531.221h0a.735.735,0,0,1,.2.49.722.722,0,0,1-.211.494h0a.712.712,0,0,1-.555.224h-1.219v.087h0Zm-.672,3h.086v-5.16h1.8a1.462,1.462,0,0,1,1.016.385h0a1.232,1.232,0,0,1,.422.957,1.023,1.023,0,0,1-.187.61h0a1.11,1.11,0,0,1-.469.4l-.055.023v.148l.055.02a1.256,1.256,0,0,1,.6.425h0a1.082,1.082,0,0,1,.227.694,1.282,1.282,0,0,1-.437,1,1.537,1.537,0,0,1-1.062.4h-2v.087h0v.087h2a1.681,1.681,0,0,0,1.172-.447,1.462,1.462,0,0,0,.508-1.135,1.318,1.318,0,0,0-.266-.8h0a1.443,1.443,0,0,0-.68-.483l-.031.082h.086v-.029h-.086l.039.081a1.345,1.345,0,0,0,.555-.463h0a1.222,1.222,0,0,0,.2-.708,1.4,1.4,0,0,0-.477-1.088v0a1.629,1.629,0,0,0-1.133-.429h-1.984v5.422h.094Z" transform="translate(-83489.047 -15872.944)" fill="#fff"/>
  </g>
</svg>
