<?xml version="1.0" encoding="UTF-8"?>
<!DOCTYPE svg PUBLIC "-//W3C//DTD SVG 1.1//EN" "http://www.w3.org/Graphics/SVG/1.1/DTD/svg11.dtd">
<!-- Creator: CorelDRAW X7 -->
<svg xmlns="http://www.w3.org/2000/svg" xml:space="preserve" width="118px" height="35px" version="1.1" style="shape-rendering:geometricPrecision; text-rendering:geometricPrecision; image-rendering:optimizeQuality; fill-rule:evenodd; clip-rule:evenodd"
viewBox="0 0 118000 34963"
 xmlns:xlink="http://www.w3.org/1999/xlink">
 <defs>
  <style type="text/css">
   <![CDATA[
    .fil6 {fill:black;fill-rule:nonzero}
    .fil12 {fill:#404040;fill-rule:nonzero}
    .fil0 {fill:#FEFEFE;fill-rule:nonzero}
    .fil1 {fill:white;fill-rule:nonzero}
    .fil7 {fill:url(#id0)}
    .fil4 {fill:url(#id1)}
    .fil5 {fill:url(#id2)}
    .fil11 {fill:url(#id3)}
    .fil2 {fill:url(#id4)}
    .fil10 {fill:url(#id5)}
    .fil8 {fill:url(#id6)}
    .fil9 {fill:url(#id7)}
    .fil14 {fill:url(#id8)}
    .fil3 {fill:url(#id9)}
    .fil13 {fill:url(#id10)}
    .fil15 {fill:url(#id11)}
   ]]>
  </style>
  <linearGradient id="id0" gradientUnits="userSpaceOnUse" x1="23706.4" y1="21197.8" x2="23624.3" y2="21197.8">
   <stop offset="0" style="stop-opacity:1; stop-color:#CCB300"/>
   <stop offset="0.411765" style="stop-opacity:1; stop-color:#CC9700"/>
   <stop offset="0.780392" style="stop-opacity:1; stop-color:#CC8400"/>
   <stop offset="1" style="stop-opacity:1; stop-color:#CC7D00"/>
  </linearGradient>
  <linearGradient id="id1" gradientUnits="userSpaceOnUse" x1="20948.3" y1="17205.1" x2="11803.8" y2="28999.9">
   <stop offset="0" style="stop-opacity:1; stop-color:#FF3A44"/>
   <stop offset="1" style="stop-opacity:1; stop-color:#C31162"/>
  </linearGradient>
  <linearGradient id="id2" gradientUnits="userSpaceOnUse" x1="14595.9" y1="9471.86" x2="18295.7" y2="14251.6">
   <stop offset="0" style="stop-opacity:1; stop-color:#32A071"/>
   <stop offset="0.0705882" style="stop-opacity:1; stop-color:#2DA771"/>
   <stop offset="0.478431" style="stop-opacity:1; stop-color:#15CF74"/>
   <stop offset="0.8" style="stop-opacity:1; stop-color:#06E775"/>
   <stop offset="1" style="stop-opacity:1; stop-color:#00F076"/>
  </linearGradient>
  <linearGradient id="id3" gradientUnits="userSpaceOnUse" x1="28899.4" y1="19328.9" x2="23625.3" y2="19328.9">
   <stop offset="0" style="stop-opacity:1; stop-color:#E0C500"/>
   <stop offset="0.411765" style="stop-opacity:1; stop-color:#E0A600"/>
   <stop offset="0.780392" style="stop-opacity:1; stop-color:#E09100"/>
   <stop offset="1" style="stop-opacity:1; stop-color:#E08900"/>
  </linearGradient>
  <linearGradient id="id4" gradientUnits="userSpaceOnUse" x1="21293.3" y1="13868.3" x2="7438.48" y2="21095.6">
   <stop offset="0" style="stop-opacity:1; stop-color:#00A0FF"/>
   <stop offset="0.0117647" style="stop-opacity:1; stop-color:#00A1FF"/>
   <stop offset="0.258824" style="stop-opacity:1; stop-color:#00BEFF"/>
   <stop offset="0.509804" style="stop-opacity:1; stop-color:#00D2FF"/>
   <stop offset="0.760784" style="stop-opacity:1; stop-color:#00DFFF"/>
   <stop offset="1" style="stop-opacity:1; stop-color:#00E3FF"/>
  </linearGradient>
  <linearGradient id="id5" gradientUnits="userSpaceOnUse" x1="9186.3" y1="28311" x2="9121.4" y2="28375.9">
   <stop offset="0" style="stop-opacity:1; stop-color:#E0333C"/>
   <stop offset="1" style="stop-opacity:1; stop-color:#AB0F56"/>
  </linearGradient>
  <linearGradient id="id6" gradientUnits="userSpaceOnUse" x1="19547.6" y1="18917.8" x2="13280.2" y2="30898.3">
   <stop offset="0" style="stop-opacity:1; stop-color:#CC2E36"/>
   <stop offset="1" style="stop-opacity:1; stop-color:#9C0E4E"/>
  </linearGradient>
  <linearGradient id="id7" gradientUnits="userSpaceOnUse" x1="9370.62" y1="27553" x2="8532.58" y2="27843.5">
   <stop offset="0" style="stop-opacity:1; stop-color:#008DE0"/>
   <stop offset="0.0117647" style="stop-opacity:1; stop-color:#008DE0"/>
   <stop offset="0.258824" style="stop-opacity:1; stop-color:#00A7E0"/>
   <stop offset="0.509804" style="stop-opacity:1; stop-color:#00B8E0"/>
   <stop offset="0.760784" style="stop-opacity:1; stop-color:#00C4E0"/>
   <stop offset="1" style="stop-opacity:1; stop-color:#00C7E0"/>
  </linearGradient>
  <linearGradient id="id8" gradientUnits="userSpaceOnUse" x1="9374.39" y1="7095.34" x2="8528.57" y2="7374.76">
   <stop offset="0" style="stop-opacity:1; stop-color:#40B8FF"/>
   <stop offset="0.0117647" style="stop-opacity:1; stop-color:#40B9FF"/>
   <stop offset="0.258824" style="stop-opacity:1; stop-color:#40CEFF"/>
   <stop offset="0.509804" style="stop-opacity:1; stop-color:#40DDFF"/>
   <stop offset="0.760784" style="stop-opacity:1; stop-color:#40E7FF"/>
   <stop offset="1" style="stop-opacity:1; stop-color:#40EAFF"/>
  </linearGradient>
  <linearGradient id="id9" gradientUnits="userSpaceOnUse" x1="28899.4" y1="17546.6" x2="20014.7" y2="17546.6">
   <stop offset="0" style="stop-opacity:1; stop-color:#FFE000"/>
   <stop offset="0.411765" style="stop-opacity:1; stop-color:#FFBD00"/>
   <stop offset="0.780392" style="stop-opacity:1; stop-color:orange"/>
   <stop offset="1" style="stop-opacity:1; stop-color:#FF9C00"/>
  </linearGradient>
  <linearGradient id="id10" gradientUnits="userSpaceOnUse" x1="28899.4" y1="15636.4" x2="23624.8" y2="15636.4">
   <stop offset="0" style="stop-opacity:1; stop-color:#FFE840"/>
   <stop offset="0.411765" style="stop-opacity:1; stop-color:#FFCE40"/>
   <stop offset="0.780392" style="stop-opacity:1; stop-color:#FFBC40"/>
   <stop offset="1" style="stop-opacity:1; stop-color:#FFB540"/>
  </linearGradient>
  <linearGradient id="id11" gradientUnits="userSpaceOnUse" x1="15034.9" y1="7420.78" x2="17793" y2="12692.8">
   <stop offset="0" style="stop-opacity:1; stop-color:#65B895"/>
   <stop offset="0.0705882" style="stop-opacity:1; stop-color:#62BD95"/>
   <stop offset="0.478431" style="stop-opacity:1; stop-color:#50DB97"/>
   <stop offset="0.8" style="stop-opacity:1; stop-color:#44ED98"/>
   <stop offset="1" style="stop-opacity:1; stop-color:#40F498"/>
  </linearGradient>
 </defs>
 <g id="Слой_x0020_1">
  <metadata id="CorelCorpID_0Corel-Layer"/>
  <path class="fil0" d="M113630 0l-109260 0c-2403,0 -4370,1967 -4370,4370l0 26223c0,2403 1967,4370 4370,4370l109260 0c2403,0 4370,-1967 4370,-4370l0 -26223c0,-2403 -1967,-4370 -4370,-4370zm0 699c2024,0 3671,1648 3671,3671l0 26223c0,2024 -1647,3671 -3671,3671l-109260 0c-2024,0 -3671,-1647 -3671,-3671l0 -26223c0,-2023 1647,-3671 3671,-3671l109260 0z"/>
  <path class="fil1" d="M93470 26222l1631 0 0 -10927 -1631 0 0 10927zm14691 -6991l-1870 4738 -56 0 -1941 -4738 -1756 0 2909 6622 -1658 3683 1701 0 4484 -10305 -1813 0zm-9250 5750c-535,0 -1280,-267 -1280,-928 0,-843 929,-1166 1729,-1166 718,0 1054,154 1491,365 -127,1012 -999,1729 -1940,1729zm197 -5989c-1181,0 -2404,521 -2910,1673l1447 605c310,-605 886,-802 1491,-802 843,0 1701,507 1715,1406l0 113c-296,-169 -928,-422 -1701,-422 -1560,0 -3150,857 -3150,2460 0,1462 1280,2404 2713,2404 1098,0 1701,-492 2082,-1068l56 0 0 843 1574 0 0 -4189c0,-1940 -1448,-3023 -3317,-3023zm-10080 1570l-2320 0 0 -3746 2320 0c1219,0 1911,1010 1911,1873 0,846 -692,1873 -1911,1873zm-42 -5267l-3908 0 0 10927 1630 0 0 -4140 2278 0c1807,0 3585,-1308 3585,-3393 0,-2085 -1778,-3394 -3585,-3394zm-21311 9688c-1127,0 -2070,-943 -2070,-2239 0,-1309 943,-2267 2070,-2267 1113,0 1986,958 1986,2267 0,1296 -873,2239 -1986,2239zm1873 -5140l-56 0c-366,-436 -1071,-831 -1958,-831 -1859,0 -3562,1634 -3562,3732 0,2084 1703,3704 3562,3704 887,0 1592,-395 1958,-845l56 0 0 535c0,1423 -760,2183 -1986,2183 -999,0 -1619,-719 -1873,-1324l-1422 591c409,986 1493,2197 3295,2197 1916,0 3535,-1127 3535,-3872l0 -6675 -1549 0 0 605zm2675 6379l1634 0 0 -10927 -1634 0 0 10927zm4042 -3604c-42,-1437 1112,-2169 1943,-2169 648,0 1197,323 1380,789l-3323 1380zm5069 -1240c-309,-831 -1253,-2366 -3182,-2366 -1916,0 -3506,1507 -3506,3718 0,2084 1577,3718 3689,3718 1704,0 2690,-1042 3098,-1648l-1267 -845c-423,620 -1000,1028 -1831,1028 -831,0 -1422,-380 -1803,-1126l4971 -2056 -169 -423zm-39603 -1225l0 1577 3774 0c-112,888 -408,1535 -859,1986 -548,549 -1408,1154 -2915,1154 -2323,0 -4140,-1872 -4140,-4196 0,-2323 1817,-4196 4140,-4196 1254,0 2169,493 2845,1126l1112 -1112c-943,-901 -2196,-1591 -3957,-1591 -3182,0 -5858,2591 -5858,5773 0,3183 2676,5774 5858,5774 1718,0 3014,-564 4028,-1620 1042,-1042 1366,-2506 1366,-3689 0,-367 -28,-704 -85,-986l-5309 0zm9684 4830c-1126,0 -2098,-929 -2098,-2253 0,-1338 972,-2253 2098,-2253 1127,0 2098,915 2098,2253 0,1324 -971,2253 -2098,2253zm0 -5971c-2056,0 -3732,1564 -3732,3718 0,2140 1676,3718 3732,3718 2056,0 3732,-1578 3732,-3718 0,-2154 -1676,-3718 -3732,-3718zm8141 5971c-1127,0 -2098,-929 -2098,-2253 0,-1338 971,-2253 2098,-2253 1126,0 2098,915 2098,2253 0,1324 -972,2253 -2098,2253zm0 -5971c-2056,0 -3732,1564 -3732,3718 0,2140 1676,3718 3732,3718 2056,0 3731,-1578 3731,-3718 0,-2154 -1675,-3718 -3731,-3718z"/>
  <path class="fil2" d="M9186 28311l-65 -62c-250,-265 -400,-674 -404,-1203l0 -25 0 -19076c0,-586 175,-1027 468,-1292l10830 10829 -10829 10829zm-469 -1290l0 25 0 -25zm0 25l0 102 0 -102zm0 -19101l0 -128 0 128zm0 -128l0 0 0 0zm0 0c0,-2 0,-3 0,-4l0 4zm0 -6l0 -2 0 -2 0 -2 0 -3 0 -2 0 -2 0 -2 0 -1 0 -2 0 -2 0 -2 0 -2 0 -3 0 -2 0 -2 0 -2 0 -3 0 -2 0 -2 0 -2 0 -2 0 0 0 -3 0 0 0 -2 0 0 0 -2 0 0 0 -2 1 -3 0 -2 0 -2 0 -2 0 -2 0 -3 0 -2 0 -2 0 -2 0 0 0 -2 0 -1 0 -2 0 0 0 -2 0 -2 0 -2 0 -2 0 -2 0 -1 1 -2 0 0 0 -2 0 -2 0 -2 0 -2 0 0 0 -3 0 0 0 -2 0 0 0 -2 0 -2 0 -3 0 -1 0 -1 0 -2 0 -2 0 -2 0 -2 1 -2 0 -3 0 -2 0 -2 0 0 0 -2 0 -2 0 -3 0 -1 0 -3 0 3 0 1 0 3 0 2 0 2 0 0 0 2 0 2 0 3 -1 2 0 2 0 2 0 2 0 2 0 1 0 1 0 3 0 2 0 2 0 0 0 2 0 0 0 3 0 0 0 2 0 2 0 2 0 2 0 0 -1 2 0 1 0 2 0 2 0 2 0 2 0 2 0 0 0 2 0 1 0 2 0 0 0 2 0 2 0 2 0 3 0 2 0 2 0 2 0 2 -1 3 0 2 0 0 0 2 0 0 0 2 0 0 0 3 0 0 0 2 0 2 0 2 0 2 0 3 0 2 0 2 0 2 0 3 0 2 0 2 0 2 0 2 0 1 0 2 0 2 0 2 0 3 0 2 0 2 0 2zm4 -149c0,0 0,0 0,-1 0,1 0,1 0,1z"/>
  <path class="fil3" d="M23624 21221l0 0 82 -47 4277 -2430c408,-231 680,-512 815,-810 -135,298 -407,579 -815,811l-4277 2430 -82 46zm1 -128l-3610 -3611 3610 -3610 4358 2476c554,314 864,720 916,1134 0,0 0,1 0,1 -52,414 -362,819 -916,1134l-4358 2476z"/>
  <path class="fil4" d="M9958 28723l-13 0 -1 0 -13 0 -1 0 -13 -1 -1 0 -13 0 -1 0 -13 -1 -1 0 -13 0 -1 0 -13 -1 0 0 -13 -1 -1 0 -13 -2 -1 0 -13 -1 -1 0 -12 -1 -1 0 -13 -2 -1 0 -12 -2 -1 0 -13 -2 0 0 -13 -2 -1 0 -13 -2 0 0 -12 -2 -1 0 -13 -3 0 0 -13 -3 0 0 -13 -2 0 0 -13 -3 0 0 -12 -3 -1 0 -12 -3 -1 0 -12 -4 -1 0 -12 -3 0 0 -12 -4 -1 0 -12 -4 0 0c-25,-7 -50,-16 -74,-25l0 0 -59 -25 -1 0c-23,-10 -46,-22 -68,-34l-1 0 -10 -6c-71,-39 -138,-86 -199,-142l0 0c61,54 128,102 199,142l10 6 1 0c22,13 45,24 68,34l1 0 59 25 0 0c24,9 49,18 74,25l0 0 12 4 1 0 12 4 0 0 12 3 1 0 12 4 1 0 12 3 1 0 12 3 0 0 13 3 0 0 13 2 0 0 13 3 0 0 13 3 1 0 12 2 0 0 13 2 1 0 13 2 0 0 13 2 1 0 12 2 1 0 13 2 1 0 12 1 1 0 13 1 1 0 13 2 1 0 13 1 0 0 13 1 1 0 13 0 1 0 13 1 1 0 13 0 1 0 13 1 1 0 13 0 1 0 13 0 1 0 -1 0zm1 0l2 0 1 0 1 0 1 0 2 0 1 0 1 0 1 0 2 0 0 0 2 0 1 0 2 0 0 0 2 0 1 0 2 0 0 0 2 0 1 0 2 0 0 0 2 0 0 0 3 0 0 0 2 0 0 0 3 0 0 0 2 0 0 0 3 0 0 0 2 -1 1 0 2 0 0 0 2 0 1 0 2 0 0 0 2 0 0 0 3 0 2 0 3 0 0 0 2 0 3 0 3 0 2 -1 3 0 2 0 3 0 -3 0 -2 0 -3 0 -2 1 -3 0 -3 0 -2 0 0 0 -3 0 -2 0 -3 0 0 0 -2 0 0 0 -2 0 -1 0 -2 0 0 0 -2 0 -1 0 -2 1 0 0 -3 0 0 0 -2 0 0 0 -3 0 0 0 -2 0 0 0 -3 0 0 0 -2 0 0 0 -2 0 -1 0 -2 0 0 0 -2 0 -1 0 -2 0 0 0 -2 0 -1 0 -2 0 0 0 -2 0 -1 0 -1 0 -1 0 -2 0 -1 0 -1 0 -1 0 -2 0zm-1 -128c-302,1 -566,-98 -772,-284l0 0 10829 -10829 3610 3611 0 0 -12687 7209c-351,199 -684,293 -980,293zm-775 -158c-19,-18 -38,-36 -56,-55l56 55z"/>
  <path class="fil5" d="M20015 17482l0 0 -10830 -10829c206,-186 470,-284 772,-284 296,0 629,95 981,294l12687 7209 -3610 3610zm3691 -3692l-12768 -7254c-352,-200 -685,-295 -981,-295 -2,0 -2,0 -4,0 2,0 3,0 5,0 296,0 628,95 980,294l12768 7255zm-13756 -7549l0 0z"/>
  <path class="fil6" d="M10039 28721c275,-16 579,-110 899,-291l12686 -7209 0 0 -12686 7209c-320,181 -624,275 -899,291zm-853 -282l-3 -2c1,1 2,1 3,2l0 0zm-59 -57l-6 -6 0 0c2,2 4,4 6,6z"/>
  <polygon class="fil7" points="23624,21221 23624,21221 23706,21174 "/>
  <path class="fil8" d="M9959 28723c-302,0 -567,-98 -773,-284l0 0c-1,-1 -2,-1 -3,-2l-56 -55c-2,-2 -4,-4 -6,-6l65 -65c206,186 470,285 772,284 296,0 629,-94 980,-293l12687 -7209 81 81 -82 47 -12686 7209c-320,181 -624,275 -899,291 -27,1 -54,2 -80,2z"/>
  <path class="fil6" d="M9121 28376c-254,-269 -404,-687 -404,-1228l0 0c0,541 150,959 404,1228l0 0 0 0 0 0z"/>
  <path class="fil9" d="M9121 28376l0 0c-254,-269 -404,-687 -404,-1228l0 -127c0,541 150,959 404,1228l65 62 -65 65z"/>
  <polygon class="fil10" points="9121,28376 9121,28376 9121,28376 9186,28311 9186,28311 "/>
  <path class="fil6" d="M28798 17934c68,-147 101,-299 101,-451 0,0 0,0 0,0 0,152 -33,303 -101,451z"/>
  <path class="fil11" d="M23706 21174l0 0 -81 -81 4358 -2476c554,-315 864,-720 916,-1134 0,152 -33,304 -101,451 -135,298 -407,579 -815,810l-4277 2430z"/>
  <path class="fil12" d="M28899 17482l0 0c0,-457 -305,-915 -916,-1261l-4277 -2431 0 0 0 0 4277 2430c611,347 917,805 916,1262z"/>
  <path class="fil13" d="M28899 17482c-52,-414 -362,-820 -916,-1134l-4358 -2476 81 -82 0 0 4277 2431c611,346 916,804 916,1261z"/>
  <path class="fil12" d="M8717 7813c0,-1 0,-1 0,-2 0,1 0,1 0,2zm3 -143c0,0 0,-1 0,-2 0,1 0,2 0,2zm1 -4c0,-1 0,-2 0,-4 0,2 0,3 0,4zm0 -5c50,-898 539,-1417 1229,-1420 -299,2 -560,101 -764,285l0 -1 -3 3c-21,19 -42,39 -62,61l0 0c-229,242 -374,606 -400,1072z"/>
  <path class="fil14" d="M8717 7945l0 -128c0,-1 0,-3 0,-4 0,-1 0,-1 0,-2 0,-48 1,-95 3,-141 0,0 0,-1 0,-2 0,0 0,-1 1,-2 0,-1 0,-2 0,-4 0,0 0,0 0,-1 26,-466 171,-830 400,-1072l64 64c-293,265 -468,706 -468,1292zm404 -1356l0 0zm62 -61l3 -3c-1,1 -2,2 -3,3z"/>
  <path class="fil12" d="M9950 6241c1,0 2,0 3,0 -1,0 -2,0 -3,0z"/>
  <path class="fil15" d="M23625 13872l-12687 -7209c-352,-199 -685,-294 -981,-294 -302,0 -566,98 -772,284l-64 -64 0 0c20,-22 41,-42 62,-61 1,-1 2,-2 3,-2 204,-184 465,-283 764,-285l0 0c1,0 2,0 3,0 2,0 2,0 4,0 296,0 629,95 981,295l12768 7254 0 0 -81 82z"/>
  <path class="fil1" d="M38019 8712c10,829 -156,1499 -497,2007l2651 0 0 -3956 -2154 0 0 1949zm-1208 3764l-645 0 0 -1757 513 0c454,-392 676,-1060 667,-2007l0 -2593 3501 0 0 4600 586 0 0 1757 -645 0 0 -1113 -3977 0 0 1113z"/>
  <path class="fil1" d="M38019 8712l-87 1 1 70c-1,785 -165,1412 -484,1887l-92 136 2903 0 0 -4131 -2328 0 0 2038 87 -1 88 0 0 -1862 1978 0 0 3781 -2563 0 0 88 72 48c344,-511 513,-1175 513,-1984l0 -72 -88 1 88 0 -88 0zm-1208 3764l0 -87 -557 0 0 -1583 457 0 25 -21c472,-408 698,-1087 698,-2016l-1 -58 0 1 0 -2506 3327 0 0 4600 586 0 0 1583 -470 0 0 -1113 -4153 0 0 1200 88 0 0 -87 0 87 87 0 0 -1026 3803 0 0 1113 819 0 0 -1932 -585 0 0 -4600 -3676 0 0 2681 0 57c0,904 -220,1525 -637,1883l57 67 0 -88 -600 0 0 1932 819 0 0 -87 -87 0z"/>
  <path class="fil1" d="M43340 10246c389,393 864,589 1425,589 562,0 1037,-196 1425,-589 388,-393 583,-895 583,-1505 0,-610 -195,-1113 -583,-1506 -388,-393 -863,-589 -1425,-589 -561,0 -1036,196 -1425,589 -387,393 -582,896 -582,1506 0,610 195,1112 582,1505zm3348 439c-516,530 -1156,795 -1923,795 -766,0 -1408,-265 -1922,-795 -516,-529 -773,-1178 -773,-1944 0,-767 257,-1415 773,-1945 514,-530 1156,-795 1922,-795 762,0 1402,266 1920,799 517,532 776,1179 776,1941 0,766 -258,1415 -773,1944z"/>
  <path class="fil1" d="M43340 10246l-62 62c403,408 905,616 1487,615 582,1 1085,-207 1487,-615 405,-409 609,-939 608,-1567 1,-629 -203,-1158 -608,-1567l0 0c-402,-409 -905,-617 -1487,-615 -582,-2 -1084,206 -1487,615l0 0c-404,409 -608,938 -607,1567 -1,628 203,1158 607,1567l62 -62 63 -61c-371,-378 -556,-852 -557,-1444 1,-592 186,-1067 557,-1444l0 0c374,-377 821,-563 1362,-563 541,0 989,186 1362,563l2 1 -2 -1c372,377 557,852 558,1444 -1,592 -186,1066 -558,1444 -373,377 -821,562 -1362,563 -541,-1 -988,-186 -1362,-563l-63 61zm3348 439l-62 -61c-501,514 -1114,767 -1861,769 -747,-2 -1359,-255 -1859,-769l0 0c-501,-515 -747,-1136 -748,-1883 1,-747 247,-1369 748,-1884l0 0c500,-514 1112,-767 1859,-768 742,1 1354,255 1857,772 502,518 751,1138 751,1880 0,747 -248,1368 -747,1883l62 61 63 61c530,-544 798,-1219 797,-2005 1,-782 -268,-1455 -800,-2002 -533,-549 -1200,-826 -1983,-825 -786,-1 -1456,275 -1985,821l0 0c-531,545 -798,1220 -797,2006 -1,786 266,1461 797,2005l0 0c529,547 1199,822 1985,822 787,0 1456,-275 1986,-822l-63 -61z"/>
  <path class="fil1" d="M50853 11480c-772,0 -1419,-261 -1941,-784 -524,-522 -784,-1174 -784,-1955 0,-781 260,-1433 784,-1956 522,-523 1169,-784 1941,-784 790,0 1433,286 1926,857l-469 454c-356,-444 -842,-666 -1457,-666 -572,0 -1054,193 -1447,579 -393,386 -590,891 -590,1516 0,625 197,1130 590,1516 393,386 875,578 1447,578 630,0 1167,-253 1612,-761l468 468c-240,289 -540,517 -902,685 -360,169 -754,253 -1178,253z"/>
  <path class="fil1" d="M50853 11480l0 -87c-752,-2 -1372,-252 -1879,-759 -507,-507 -758,-1131 -758,-1893 0,-762 251,-1387 758,-1894 507,-506 1127,-757 1879,-758 770,1 1381,273 1860,826l66 -57 -60 -63 -470 455 61 62 68 -54c-370,-465 -890,-701 -1525,-699 -592,-1 -1101,202 -1508,603l0 0c-412,403 -617,936 -616,1579 -1,642 204,1176 616,1578l0 0c407,401 916,604 1508,604 654,1 1220,-268 1677,-791l-65 -58 -62 62 468 468 62 -62 -67 -55c-232,278 -520,498 -871,661 -349,163 -729,244 -1142,245l0 175c436,0 843,-87 1215,-262 373,-172 684,-409 932,-707l51 -62 -525 -525 -66 -66 -61 71c-433,492 -940,730 -1546,731 -552,-1 -1008,-183 -1386,-554l0 0c-375,-369 -563,-846 -563,-1453 0,-607 188,-1084 563,-1454l0 0c378,-370 834,-553 1386,-553 594,1 1047,209 1389,633l60 75 538 -521 59 -57 -53 -63c-508,-590 -1182,-888 -1993,-887 -791,-1 -1466,271 -2003,810 -540,537 -810,1216 -809,2017 -1,800 269,1480 809,2017 537,538 1212,810 2003,810l0 -88z"/>
  <polygon class="fil1" points="55658,11363 54984,11363 54984,6763 53520,6763 53520,6119 57123,6119 57123,6763 55658,6763 "/>
  <polygon class="fil1" points="55658,11363 55658,11276 55072,11276 55072,6675 53607,6675 53607,6206 57036,6206 57036,6675 55571,6675 55571,11363 55658,11363 55658,11276 55658,11363 55746,11363 55746,6850 57211,6850 57211,6031 53432,6031 53432,6850 54897,6850 54897,11450 55746,11450 55746,11363 "/>
  <path class="fil1" d="M61750 6119l-1984 4423c-274,626 -681,938 -1223,938 -161,0 -335,-39 -521,-117l176 -623c112,64 230,95 351,95 157,0 278,-30 363,-91 86,-61 165,-173 239,-333l190 -418 -1765 -3874 791 0 1296 3010 29 0 1267 -3010 791 0z"/>
  <path class="fil1" d="M61750 6119l-80 -36 -1984 4424 0 1c-270,606 -639,882 -1143,885 -147,0 -309,-36 -487,-111l-34 81 84 24 176 -623 -84 -24 -43 76c124,71 257,107 394,107 168,0 308,-32 414,-108 106,-76 190,-200 267,-368l191 -418 16 -36 -1725 -3787 598 0 1296 3010 144 0 1267 -3010 733 0 0 -87 -80 -36 80 36 0 -88 -849 0 -1290 3064 81 34 0 -88 -29 0 0 88 81 -35 -1319 -3063 -985 0 1805 3962 -174 382c-69,153 -144,252 -209,298 -64,46 -167,75 -313,75 -106,0 -207,-27 -308,-84l-97 -55 -206 730 -21 75 71 30c194,81 379,124 555,124 579,2 1024,-347 1303,-990l-1 0 2040 -4547 -135 0 0 88z"/>
  <polygon class="fil1" points="62513,11363 62513,6119 66308,6119 66308,11363 65633,11363 65633,6763 63187,6763 63187,11363 "/>
  <polygon class="fil1" points="62513,11363 62601,11363 62601,6206 66220,6206 66220,11276 65721,11276 65721,6675 63099,6675 63099,11276 62513,11276 62513,11363 62601,11363 62513,11363 62513,11450 63274,11450 63274,6850 65546,6850 65546,11450 66395,11450 66395,6031 62426,6031 62426,11450 62513,11450 "/>
  <polygon class="fil1" points="67509,11363 67509,6119 68182,6119 68182,8367 70804,8367 70804,6119 71479,6119 71479,11363 70804,11363 70804,8997 68182,8997 68182,11363 "/>
  <polygon class="fil1" points="67509,11363 67596,11363 67596,6206 68095,6206 68095,8454 70892,8454 70892,6206 71391,6206 71391,11276 70892,11276 70892,8909 68095,8909 68095,11276 67509,11276 67509,11363 67596,11363 67509,11363 67509,11450 68270,11450 68270,9084 70717,9084 70717,11450 71566,11450 71566,6031 70717,6031 70717,8280 68270,8280 68270,6031 67421,6031 67421,11450 67509,11450 "/>
  <path class="fil1" d="M73621 10246c388,393 863,589 1425,589 562,0 1037,-196 1424,-589 389,-393 584,-895 584,-1505 0,-610 -195,-1113 -584,-1506 -387,-393 -862,-589 -1424,-589 -562,0 -1037,196 -1425,589 -387,393 -582,896 -582,1506 0,610 195,1112 582,1505zm3348 439c-516,530 -1157,795 -1923,795 -767,0 -1408,-265 -1923,-795 -515,-529 -772,-1178 -772,-1944 0,-767 257,-1415 772,-1945 515,-530 1156,-795 1923,-795 762,0 1401,266 1919,799 518,532 776,1179 776,1941 0,766 -257,1415 -772,1944z"/>
  <path class="fil1" d="M73621 10246l-62 62c402,408 904,616 1487,615 582,1 1085,-207 1487,-615 404,-409 608,-939 608,-1567 0,-629 -204,-1158 -608,-1567l0 0c-402,-409 -905,-617 -1487,-615 -583,-2 -1085,206 -1487,615l0 0c-404,409 -608,938 -608,1567 0,628 204,1158 608,1567l62 -62 62 -61c-370,-378 -556,-852 -557,-1444 1,-592 187,-1067 557,-1444l0 0c374,-377 822,-563 1363,-563 541,0 989,186 1362,563l3 3 -3 -3c372,377 557,852 558,1444 -1,592 -186,1066 -558,1444 -373,377 -821,562 -1362,563 -541,-1 -989,-186 -1363,-563l-62 61zm3348 439l-63 -61c-501,514 -1114,767 -1860,769 -747,-2 -1360,-255 -1860,-769l-2 -2 2 2c-500,-515 -747,-1136 -748,-1883 1,-747 248,-1369 748,-1884l0 0c500,-514 1113,-767 1860,-768 742,1 1353,255 1857,772 502,518 750,1138 751,1880 -1,747 -249,1368 -748,1883l63 61 62 61c531,-544 798,-1219 798,-2005 0,-782 -268,-1455 -801,-2002 -533,-549 -1200,-826 -1982,-825 -787,-1 -1456,275 -1985,821l0 0c-531,545 -799,1220 -798,2006 -1,786 267,1461 798,2005l0 0c529,547 1198,822 1985,822 786,0 1455,-275 1985,-822l-62 -61z"/>
  <path class="fil1" d="M81170 10719l1356 0c258,0 468,-91 630,-272 161,-180 241,-378 241,-593 0,-215 -83,-411 -249,-590 -165,-178 -384,-267 -652,-267l-1326 0 0 1722zm0 -2352l1224 0c254,0 458,-84 612,-253 154,-168 230,-352 230,-553 0,-200 -74,-383 -223,-548 -149,-167 -346,-250 -590,-250l-1253 0 0 1604zm-673 2996l0 -5244 1897 0c410,0 766,135 1065,406 301,271 451,612 451,1022 0,249 -64,469 -195,659 -128,190 -300,335 -515,432l0 29c258,88 470,240 637,454 165,216 249,465 249,748 0,429 -158,786 -473,1069 -315,283 -687,425 -1117,425l-1999 0z"/>
  <path class="fil1" d="M81170 10719l0 87 1356 0c278,1 519,-101 695,-301l0 0c173,-192 264,-414 264,-651 0,-238 -95,-459 -273,-649l0 0c-181,-196 -428,-297 -716,-296l-1413 0 0 1897 87 0 0 -87 87 0 0 -1635 1239 0c250,1 438,81 588,240l0 0c154,167 225,338 226,530 -1,193 -70,367 -220,535l0 0c-146,162 -326,241 -564,242l-1356 0 0 88 87 0 -87 0zm0 -2352l0 87 1224 0c272,1 506,-93 676,-281l0 0c165,-180 254,-388 254,-612 0,-221 -85,-429 -247,-607l0 0c-163,-185 -391,-280 -654,-279l-1340 0 0 1779 87 0 0 -87 87 0 0 -1517 1166 0c225,2 391,73 524,221l1 0 -1 0c137,153 201,313 202,490 -1,178 -67,338 -208,494l0 1c-138,149 -312,223 -547,224l-1224 0 0 87 87 0 -87 0zm-673 2996l87 0 0 -5157 1810 0c390,1 721,127 1007,384l0 0c284,257 421,568 422,957 0,233 -60,434 -179,610l0 0c-121,178 -279,310 -481,402l-51 23 0 148 59 20c244,83 440,223 597,425l0 1 0 -1c154,200 230,428 230,694 0,408 -146,735 -444,1004 -300,270 -647,402 -1058,403l-1999 0 0 87 87 0 -87 0 0 87 1999 0c449,1 846,-150 1176,-447 332,-297 502,-683 501,-1134 1,-300 -90,-571 -267,-801l-1 -1 1 1c-176,-227 -405,-391 -678,-483l-28 82 87 0 0 -29 -87 0 35 80c229,-104 415,-259 553,-463l0 0c140,-205 210,-444 210,-708 0,-431 -162,-802 -480,-1087l-2 -2 2 2c-315,-285 -695,-430 -1124,-429l-1985 0 0 5419 88 0 0 -87z"/>
 </g>
</svg>
