<svg xmlns="http://www.w3.org/2000/svg" width="125" height="130" viewBox="0 0 125 130">
  <path id="Google_Play" data-name="Google Play" d="M88.987,129.9v-.779a3.385,3.385,0,0,0,.72.07,1.486,1.486,0,0,0,1.43-1.125l.357-.914L88.9,120.7h1.042l1.407,3.662a13.967,13.967,0,0,1,.574,1.811h.047q.076-.3.32-1.022t1.59-4.451h1.043l-2.759,7.313a3.646,3.646,0,0,1-.958,1.538,2.036,2.036,0,0,1-1.345.454A3.9,3.9,0,0,1,88.987,129.9Zm-35.575-.369a1.515,1.515,0,0,1-.683-1.325,1.486,1.486,0,0,1,.375-1.013,1.909,1.909,0,0,1,1.055-.581,1,1,0,0,1-.413-.346.911.911,0,0,1-.167-.545,1.035,1.035,0,0,1,.188-.616,1.964,1.964,0,0,1,.591-.509,1.737,1.737,0,0,1-.812-.7,2.048,2.048,0,0,1-.313-1.125,2.082,2.082,0,0,1,.633-1.626,2.585,2.585,0,0,1,1.793-.571,3.259,3.259,0,0,1,.909.117h2.22v.615l-1.19.141a2.08,2.08,0,0,1,.422,1.283,1.9,1.9,0,0,1-.644,1.506,2.6,2.6,0,0,1-1.769.563,3.006,3.006,0,0,1-.539-.047.957.957,0,0,0-.621.826.42.42,0,0,0,.217.39,1.584,1.584,0,0,0,.743.126h1.138a2.541,2.541,0,0,1,1.6.439,1.524,1.524,0,0,1,.56,1.277,1.824,1.824,0,0,1-.856,1.626,4.581,4.581,0,0,1-2.5.559A3.41,3.41,0,0,1,53.411,129.532Zm.624-2.245a1.131,1.131,0,0,0-.369.908.872.872,0,0,0,.439.791,2.423,2.423,0,0,0,1.26.27,3.517,3.517,0,0,0,1.813-.366,1.122,1.122,0,0,0,.589-.994.786.786,0,0,0-.322-.724,2.5,2.5,0,0,0-1.213-.2H55.067A1.536,1.536,0,0,0,54.035,127.287Zm.527-5.63a1.487,1.487,0,0,0-.369,1.1,1.308,1.308,0,0,0,.381,1.02,1.521,1.521,0,0,0,1.06.346,1.24,1.24,0,0,0,1.424-1.382,1.276,1.276,0,0,0-1.441-1.448A1.425,1.425,0,0,0,54.563,121.657Zm28.749,5.086a1.8,1.8,0,0,1-.542-1.4q0-1.945,3.111-2.039l1.09-.035v-.4a1.627,1.627,0,0,0-.325-1.116,1.338,1.338,0,0,0-1.04-.36,4.234,4.234,0,0,0-1.816.492l-.3-.744a4.582,4.582,0,0,1,1.04-.4,4.515,4.515,0,0,1,1.133-.146,2.452,2.452,0,0,1,1.7.509,2.129,2.129,0,0,1,.554,1.635v4.382H87.2l-.194-.914h-.047a2.713,2.713,0,0,1-.958.817,2.929,2.929,0,0,1-1.193.214A2.149,2.149,0,0,1,83.311,126.743ZM85.974,124a3.536,3.536,0,0,0-1.672.36,1.088,1.088,0,0,0-.513.994,1,1,0,0,0,.32.8,1.324,1.324,0,0,0,.894.275,1.974,1.974,0,0,0,1.426-.5,1.842,1.842,0,0,0,.518-1.394v-.581Zm-22.368,2.367a3.356,3.356,0,0,1-.824-2.408,3.721,3.721,0,0,1,.765-2.467,2.539,2.539,0,0,1,2.054-.914,2.422,2.422,0,0,1,1.91.794,3.042,3.042,0,0,1,.7,2.094v.616H63.791a2.543,2.543,0,0,0,.571,1.716,1.972,1.972,0,0,0,1.526.587,5.174,5.174,0,0,0,2.05-.434v.867a5.164,5.164,0,0,1-.976.32,5.448,5.448,0,0,1-1.11.1A2.952,2.952,0,0,1,63.607,126.367Zm.75-4.47a2.32,2.32,0,0,0-.542,1.394h3.357a2.14,2.14,0,0,0-.41-1.409,1.445,1.445,0,0,0-1.172-.489A1.588,1.588,0,0,0,64.356,121.9ZM47.32,126.83a2.664,2.664,0,0,1-1.031-1.16,4.044,4.044,0,0,1-.363-1.769,3.536,3.536,0,0,1,.785-2.446,2.777,2.777,0,0,1,2.18-.876,2.716,2.716,0,0,1,2.141.9,4.148,4.148,0,0,1,0,4.878,2.788,2.788,0,0,1-2.186.882A2.891,2.891,0,0,1,47.32,126.83Zm.1-4.8a3.824,3.824,0,0,0,.005,3.744,1.953,1.953,0,0,0,2.9,0,3.039,3.039,0,0,0,.495-1.878,2.988,2.988,0,0,0-.495-1.86,1.74,1.74,0,0,0-1.463-.635A1.712,1.712,0,0,0,47.42,122.031Zm-7.348,4.8a2.664,2.664,0,0,1-1.031-1.16,4.044,4.044,0,0,1-.364-1.769,3.536,3.536,0,0,1,.786-2.446,2.776,2.776,0,0,1,2.18-.876,2.716,2.716,0,0,1,2.141.9,4.149,4.149,0,0,1,0,4.878,2.786,2.786,0,0,1-2.185.882A2.891,2.891,0,0,1,40.073,126.83Zm.1-4.8a3.827,3.827,0,0,0,.006,3.744,1.952,1.952,0,0,0,2.9,0,3.033,3.033,0,0,0,.495-1.878,2.983,2.983,0,0,0-.495-1.86,1.738,1.738,0,0,0-1.462-.635A1.715,1.715,0,0,0,40.172,122.031Zm-9.087,4.046A4.562,4.562,0,0,1,30,122.834a4.9,4.9,0,0,1,.536-2.341,3.62,3.62,0,0,1,1.544-1.535,5,5,0,0,1,2.361-.531,6.459,6.459,0,0,1,2.555.5l-.387.879a5.7,5.7,0,0,0-2.232-.492,3.2,3.2,0,0,0-2.443.931,3.616,3.616,0,0,0-.879,2.584,3.7,3.7,0,0,0,.847,2.631,3.26,3.26,0,0,0,2.488.9,7.383,7.383,0,0,0,1.74-.2V123.52H34.213v-.891h2.912v4.166a9.381,9.381,0,0,1-1.382.328,10.585,10.585,0,0,1-1.629.112A3.949,3.949,0,0,1,31.084,126.077Zm49.131,1.04V118h.972v9.117Zm-7.078,0v-8.566h2.22q3.212,0,3.211,2.5a2.4,2.4,0,0,1-.887,2,4.025,4.025,0,0,1-2.54.7H74.133v3.369Zm1-4.225h.9a3.332,3.332,0,0,0,1.916-.427,1.577,1.577,0,0,0,.591-1.371,1.48,1.48,0,0,0-.556-1.266,2.909,2.909,0,0,0-1.734-.416H74.133Zm-14.027,4.225V118h.973v9.117ZM20,125H10A10.011,10.011,0,0,1,0,115V10A10.011,10.011,0,0,1,10,0H115a10.011,10.011,0,0,1,10,10V115a10.011,10.011,0,0,1-10,10h-9v-1h9a9.01,9.01,0,0,0,9-9V10a9.01,9.01,0,0,0-9-9H10a9.01,9.01,0,0,0-9,9V115a9.01,9.01,0,0,0,9,9H20v1h0Zm86.916-13.027v-3.029h3.029v3.029Zm-12.118,0h-3v-9.088h3.029v6.06h3v3.029Zm-12.118,0h-3v-9.088h3V99.855h3.029v3.03h3.029v3.029h3.029v3.029H88.737v-3.029H85.708v-3.029h-3v6.059h6.032v3.029Zm-18.177,0v-3.029h3.029v3.029Zm-9.088,0v-3.029h3.029v3.029Zm-15.148,0h-3V96.825h3.029v0h3v3.029h-3v3.03h3v3.029h-3v3.029h6.033v3.029Zm-26.659,0h-.58V90.766H34.233v21.207H31.2V93.8H16.056v15.148H31.177v3.029Zm44.863,0v-6.059H55.44v3.029H52.41v3.029H49.38v-6.059H52.41V99.855h6.06v3.029H61.5V99.855H58.469V90.766H61.5V87.737h3.029v-3.03h6.059v3.03h3.029v-6.06h3.029V78.649H61.472V75.62h3.056V72.59H61.5v3.029H58.469V66.531H61.5V60.472H58.469v-3.03H55.44v3.03h3V63.5H55.413V60.472h-3V51.383h6.06v3.029H61.5V51.383H58.469V42.294H61.5v9.089h3V48.354h3.029v3.029h-3v3.029h3v3.029H61.5v3.03h6.059V63.5h3v3.029h-3v3.635H64.528V72.59h3.029v3.03H79.649V72.59h-3v-3.03H73.616V66.531H70.587V60.472h3.029V63.5h6.059V72.59H91.767v3.03H94.8v3.029h-3v6.059h3v3.029H88.764v9.089h9.088V87.737H94.823v-6.06h6.059V75.619H97.853V69.561H88.737v-3.03H79.675V60.472H76.646v-3.03H73.616V54.412H70.587v3.029H67.558V51.383h3.029V48.353h3V45.324h6.085v-3.03h3V39.265h3.029V42.3h-3v3.028h6.059v-3.03h3.029V39.265h3V36.236h3.03v3.029h-3v9.088H91.794v3.028H88.764V48.354H82.706v3.028h-3.03V48.354H73.616v3.028h6.059v6.059h6.06v3.03h3.029v-6.06h3V51.384H94.8v3.029h-3v3.029h3v3.029h-3V63.5h3V60.472h6.06V63.5H94.823v3.029h6.059V63.5h3.029v6.059h-.026v0h3.029V72.59h-3.029V69.561h-3v6.058h3.029v6.06h3v3.029h-3v3.029h3.029v3.029h3V93.8h-3v3.028h-3.029V87.737h-3.029V93.8h3v3.03h-3v3.029h3v3.03H97.853V99.855H85.735v-3.03H82.706V90.766h3.029V87.737H82.706v-6.06h3.029v3.029h3.029V78.648h3V75.62H85.735v3.028h-6.06v6.058h3.03v6.059h-6.06V93.8h6.033v3.03H76.62v0h-3V90.767H67.558V93.8h3v3.03h-3v3.029H76.62v3.03H70.587v3.029H64.528V96.825H61.5v3.03h3.029v9.088H61.5v3.029Zm9.061-15.148V93.8h-3v3.028Zm9.115-9.087h3.029v-3.03H76.646ZM91.794,66.531V63.5H88.764v3.03Zm9.062,42.413v-3.029h3.029v3.029Zm-27.266,0v-3.029h6.059v3.029Zm30.321,0v-6.059h3.029v6.059Zm-60.59-3.029V96.825h3.029V90.766h6.033V93.8h-3v6.059H46.351v6.059Zm-24.236,0V96.825h9.089v9.089Zm30.269-3.029v-3.03h3.029v3.03Zm57.587,0v-6.06H113v6.06ZM55.413,96.826V93.8h3.029v3.03ZM91.767,93.8V90.767H94.8V93.8Zm-54.5,0V78.648H34.233V72.59h3.029v-3.03h3.029V81.679h3v3.029h-3v3.029h3v3.029h-3V93.8Zm72.708-3.03V84.707H113v6.059ZM55.413,87.737V84.708h3.029v3.029Zm-6.033,0v-6.06H52.41V75.619h3.03v9.088H52.41v3.03Zm-6.085,0V84.708h3.029v3.029Zm-12.119,0V84.708H28.148V81.679h3.029v3.029h3.029v3.029Zm-6.059,0V84.708H22.089V81.679h3.029v3.029h3.029v3.029Zm-6.059,0V84.708h3.029v3.029Zm-6.033,0V75.619h3.029V87.737Zm48.445-3.029V81.679H55.44V75.619h3.029v3.03h3v3.029H64.5v3.029ZM31.177,81.679V78.649h3.029v3.029Zm75.764,0V72.59h3.03v3.03h3v3.029h-3v3.029Zm-63.619,0V75.619h3.029v-6.06H40.292V63.5h3.029V57.442h3.029v9.089h6.033v3.03h-3V75.62h3v3.029H49.354V76.225h-3v5.453Zm-24.236,0V72.59H13V69.561h6.086v-3.03h3V63.5h3.029v3.029h-3v3.03h3V72.59h-3v3.03h3v3.029h-3v3.029Zm75.738-3.029V72.59h3.029v6.059Zm-69.679,0V72.59h9.062v3.03h-3v3.028ZM55.413,72.59V69.561h3.029V72.59ZM31.177,69.561v-3.03h6.059v3.03Zm75.764,0V60.472h3.03V63.5h3v3.029h-3v3.029ZM37.236,66.531V63.5h3.029v3.029Zm-12.092,0V60.472h3.03v6.059ZM13,66.531V63.5h3.03v3.029ZM31.177,63.5V60.472h3.029V63.5Zm18.2,0V57.442H52.41V63.5Zm54.5-3.028V57.443h3.029v3.029Zm-69.652,0v-6.06h6.059v6.06Zm-15.148,0v-3.03H13.027V51.383h3.029V45.324h6.033v3.03h-3v6.058h3.029v6.06Zm78.741-3.029V54.413h3.029v3.029Zm-66.649,0V54.413h3.029v3.029Zm75.764,0V51.383h6.033v3.029h-3v3.028Zm-81.8,0V51.383h3.03v6.059Zm57.534-3.028V51.384h3.029v3.029Zm-33.324,0V51.384h3.029v3.029Zm-6.059,0h-3V42.294H34.233V39.265H31.2V42.3h3v3.028h-3v3.029H28.175V39.265h3V36.236H46.325v3.029h-3v6.059h3v3.03h-3v3.029h3v3.029Zm57.56-3.029h-3V42.294h3.029v0h3v3.028h-3v3.03h3v3.029Zm-6.06,0V48.354h3.03v3.029Zm-63.619,0V48.354h3.029v3.029Zm15.174,0V42.294H49.38v0h3v3.028h-3v6.059Zm57.534-3.028v-3.03h3.029v3.03Zm-48.472,0v-3.03h3.029v3.03Zm-21.207,0v-3.03h3.029v3.03Zm27.292,0v-6.06h3V36.236H61.472V30.177H58.442v3.029H55.413V30.177H52.384V27.148H49.354V24.118H46.325V21.089H43.3v3.029h3.029v9.088H43.3V24.118h-6.06V21.089h3.029v-3.03H37.236V15.03h3.029V12H43.3v6.059h3.029V15.03h3.029v9.088h6.059v3.029h6.059v3.029H64.5v6.059h3.029V42.3h-3v6.058Zm45.442-3.029V36.235h3.03v3.03h3V42.3h-3v3.028ZM103.885,42.3v-3.03h-3.029V36.236h3.029v3.029h3.029V42.3Zm-30.295,0H70.561v-3.03h-3.03V30.177h3.03v3.029H73.59v3.029H76.62V42.3Zm0-3.03V36.236H70.561v3.029ZM25.118,42.3v-3.03H22.089V42.3H19.059v-3.03H16.03V42.3H13v-6.06H28.148V42.3Zm63.619-3.03V36.236h3.029v3.029Zm-33.324,0V36.236H52.384V33.206h3.029v3.029h3.029v3.029Zm-6.059,0V30.177h3.029v9.088Zm30.295-3.029H76.62V33.206H73.59V27.148h-6.06V24.118H64.5V21.089h3.029v3.029h3.03v-6.06h-3.03V15.03H64.5v6.059H61.472v-3.03H55.413V15.03h6.059V12H85.708v3.03H76.62v9.088h3.029v3.029h3.029v9.088Zm0-3.029V30.177H76.62V24.118H73.59v3.029H76.62v6.059ZM73.59,18.059V15.03H70.561v3.028ZM91.767,33.206V12h21.207V33.206ZM94.8,30.177h15.148V15.03H94.8Zm-9.088,3.029V27.148H82.679V24.118H79.649V21.089H76.62v-3.03h3.029v3.03h3.029v-3.03h3.029v9.089h3.029v6.059Zm-48.472,0V27.148h3.029v6.059ZM13,33.206V12H34.206V33.206Zm3.03-3.029H31.177V15.03H16.03Zm81.8-3.029V18.059h9.088v9.089Zm-36.355,0V24.118H58.442V21.089h3.029v3.029H64.5v3.029Zm-42.413,0V18.059h9.088v9.089Zm66.649-3.029V21.089h3.029v3.029Zm-36.354-6.06V15.03h3.029v3.028Z" fill="#fff"/>
</svg>
