<svg width="382" height="510" viewBox="0 0 382 510" fill="none" xmlns="http://www.w3.org/2000/svg">
<path d="M303 358.97H266.32L255 347.639V325.632C293.192 303.457 319 262.18 319 214.917V191.037H319.128C323.552 191.037 327.128 187.46 327.128 183.035V151.009C327.128 146.583 323.552 143.006 319.128 143.006H318.672C315.456 90.9897 280.656 45.7434 231.144 29.3782V19.343C231.144 19.167 231.048 19.0149 231.04 18.8389C231 18.2707 230.864 17.7505 230.712 17.2223C230.576 16.7342 230.472 16.27 230.248 15.8299C230.024 15.3657 229.72 14.9976 229.408 14.5895C229.096 14.1654 228.8 13.7652 228.408 13.4211C228.048 13.101 227.632 12.8769 227.216 12.6129C226.736 12.3248 226.28 12.0527 225.736 11.8606C225.568 11.7966 225.448 11.6766 225.272 11.6285C203.12 5.4826 179.096 5.4586 157.008 11.5485C156.84 11.5965 156.72 11.7166 156.544 11.7726C156.008 11.9567 155.536 12.2367 155.048 12.5328C154.624 12.7809 154.216 13.021 153.856 13.3411C153.464 13.6852 153.176 14.0933 152.856 14.5095C152.552 14.9176 152.248 15.3017 152.024 15.7499C151.808 16.198 151.688 16.6621 151.544 17.1583C151.4 17.6785 151.264 18.1906 151.232 18.7428C151.216 18.9189 151.128 19.0789 151.128 19.263V29.2982C101.456 45.5753 66.56 90.8616 63.328 143.006H63.136C58.712 143.006 55.136 146.583 55.136 151.009V183.035C55.136 187.444 58.688 191.005 63.096 191.029L63 214.885V214.901C63 214.901 63 214.909 63 214.917C63 262.18 88.808 303.449 127 325.632V347.639L115.696 358.954L79.016 358.962C39.304 358.962 7 391.277 7 431.001L7.008 486.995C7.008 495.822 14.184 503 23.008 503H359C367.824 503 375 495.822 375 486.995V430.993C375 391.277 342.704 358.97 303 358.97ZM251.008 409.314C247.88 412.443 247.88 417.501 251.008 420.63L258.376 428.913L211 486.995H202.688L223.296 433.994C223.296 433.986 223.296 433.986 223.296 433.978L250.008 365.284L258.32 372.599L258.376 372.655L268.688 382.978L251.008 409.314ZM171 486.995L122 428.921L130.118 420.63C133.246 417.501 133.246 412.443 130.118 409.314L111.312 382.978L121 374.5L130.992 365.284L158.704 433.986L179.312 486.995H171ZM191.016 364.112L210 374L198.5 391.611H184.5L173 374L191.016 364.112ZM184.5 399.713H198.925L216.237 434.729L193.979 485.5L176.656 455L165.763 434.729L184.5 399.713ZM224.129 418.964L204.366 394.5L221.129 376.967L238.968 381.312L224.129 418.964ZM162.333 376.967L179.108 394.5L158.849 418.964L152.099 399.713L145 381.312L162.333 376.967ZM71.16 178.078C71.152 178.078 71.144 175.032 71.136 175.032V155.966H311.128V178.078H71.16ZM151.128 46.1995V62.9968C151.128 67.4222 154.704 70.9994 159.128 70.9994C163.552 70.9994 167.128 67.4222 167.128 62.9968V25.577C182.832 22.1839 199.4 22.1919 215.144 25.641V62.9968C215.144 67.4222 218.72 70.9994 223.144 70.9994C227.568 70.9994 231.144 67.4222 231.144 62.9968V46.3116C271.496 61.8205 299.608 99.6724 302.672 143.006H79.328C82.4 99.5444 110.616 61.6444 151.128 46.1995ZM79 214.917L79.096 191.037H303V214.917C303 276.696 252.76 323.952 191 323.952C129.24 323.952 79 276.696 79 214.917ZM191 339.957C207.976 339.957 224.16 339.564 239 333.53V349.455L230.408 373.55L194.872 359.058C194.6 358.906 194.304 358.906 194.024 358.794C193.528 358.593 193.048 358.425 192.52 358.321C192.016 358.217 191.52 358.177 191.016 358.177C190.512 358.177 190.016 358.217 189.512 358.321C188.984 358.425 188.496 358.585 188.008 358.794C187.728 358.914 187.432 358.914 187.16 359.058L151.624 373.55L143 349.463V333.538C157.84 339.564 174.024 339.957 191 339.957ZM79.016 374.967H98.696L96.344 377.32C93.216 380.449 91.216 385.507 94.344 388.636L119.688 414.972L109.344 425.319C109.096 425.568 108.984 425.904 108.776 426.176C108.44 426.608 108.128 427.016 107.896 427.504C107.672 427.968 107.536 428.424 107.4 428.921C107.264 429.425 107.144 429.905 107.112 430.425C107.072 430.929 107.128 431.417 107.192 431.93C107.248 432.434 107.32 432.922 107.48 433.426C107.648 433.93 107.896 434.394 108.168 434.874C108.336 435.171 108.392 435.507 108.608 435.787L151.008 487.003H23.008L23 431.001C23 400.103 48.128 374.967 79.016 374.967ZM359 486.995H231L270.4 435.779C270.608 435.499 270.664 435.163 270.84 434.866C271.112 434.386 271.36 433.93 271.528 433.418C271.696 432.914 271.76 432.434 271.816 431.922C271.88 431.417 271.936 430.929 271.896 430.417C271.864 429.905 271.736 429.417 271.608 428.913C271.472 428.416 271.344 427.96 271.112 427.496C270.88 427.008 270.568 426.6 270.232 426.168C270.024 425.896 269.912 425.56 269.664 425.311L259.32 414.964L284.664 388.628C287.792 385.499 287.792 380.441 284.664 377.312L283.32 374.967H303C333.872 374.967 359 400.103 359 430.985V486.995Z" fill="url(#paint0_linear)" stroke="url(#paint1_linear)" stroke-width="12.5"/>
<defs>
<linearGradient id="paint0_linear" x1="185.462" y1="4.89143" x2="185.462" y2="500.891" gradientUnits="userSpaceOnUse">
<stop stop-color="#FFA400"/>
<stop offset="1" stop-color="#FF5A00"/>
</linearGradient>
<linearGradient id="paint1_linear" x1="185.462" y1="4.89143" x2="185.462" y2="500.891" gradientUnits="userSpaceOnUse">
<stop stop-color="#FFA400"/>
<stop offset="1" stop-color="#FF5A00"/>
<stop offset="1" stop-color="#FF5A00"/>
</linearGradient>
</defs>
</svg>
