<svg width="512" height="512" viewBox="0 0 512 512" fill="none" xmlns="http://www.w3.org/2000/svg">
<path d="M467.691 418.527V249.27C493.785 237.301 512 210.629 512 179.691C512 179.16 511.98 178.637 511.969 178.109C512.156 174.98 511.344 171.824 509.578 169.129C509.57 169.117 509.562 169.105 509.555 169.094L475.238 116.297C475.168 116.188 475.098 116.074 475.027 115.965L448 74.3906V44.3086C448 19.875 428.125 0 403.691 0H108.309C83.875 0 64 19.875 64 44.3086V74.3906L2.44531 169.094C2.4375 169.109 2.42969 169.125 2.42188 169.137C0.699219 171.766 -0.0976562 174.82 0.0351562 177.852C0.0195312 178.465 0 179.074 0 179.691C0 210.629 18.2148 237.301 44.3086 249.27V418.527C19.6602 419.812 0 440.27 0 465.23C0 491.02 20.9805 512 46.7695 512H465.23C491.02 512 512 491.02 512 465.23C512 440.27 492.34 419.812 467.691 418.527V418.527ZM448.867 224.82C447.914 225.086 446.957 225.32 445.996 225.52C445.977 225.523 445.953 225.527 445.934 225.535C444.031 225.93 442.109 226.191 440.18 226.332C440.016 226.344 439.844 226.355 439.68 226.367C438.762 226.422 437.844 226.461 436.922 226.461C436.195 226.461 435.473 226.438 434.754 226.406C434.523 226.395 434.297 226.375 434.066 226.359C433.574 226.328 433.086 226.293 432.598 226.242C432.336 226.219 432.074 226.188 431.812 226.16C431.355 226.105 430.898 226.047 430.445 225.98C430.184 225.941 429.926 225.902 429.668 225.859C429.195 225.781 428.723 225.695 428.254 225.602C428.031 225.559 427.805 225.516 427.586 225.469C426.926 225.328 426.277 225.176 425.629 225.004C425.602 224.996 425.574 224.992 425.547 224.984C424.871 224.805 424.203 224.609 423.543 224.398C423.336 224.332 423.137 224.262 422.934 224.191C422.473 224.043 422.02 223.887 421.566 223.719C421.332 223.629 421.098 223.539 420.863 223.449C420.445 223.285 420.027 223.117 419.613 222.941C419.379 222.844 419.148 222.746 418.918 222.641C418.484 222.453 418.059 222.25 417.637 222.047C417.437 221.949 417.238 221.859 417.043 221.762C416.473 221.473 415.906 221.18 415.352 220.871C415.309 220.848 415.266 220.824 415.223 220.801C414.621 220.465 414.031 220.113 413.449 219.754C413.277 219.645 413.105 219.531 412.934 219.422C412.527 219.16 412.121 218.898 411.723 218.621C411.52 218.484 411.32 218.344 411.121 218.199C410.754 217.941 410.391 217.676 410.027 217.402C409.832 217.254 409.633 217.105 409.438 216.953C409.07 216.664 408.703 216.367 408.344 216.07C408.176 215.93 408.004 215.789 407.836 215.648C407.367 215.246 406.906 214.836 406.453 214.418C406.406 214.371 406.352 214.328 406.305 214.281C405.801 213.812 405.313 213.328 404.832 212.84C404.695 212.699 404.563 212.555 404.426 212.414C404.086 212.055 403.75 211.695 403.422 211.328C403.258 211.148 403.098 210.961 402.938 210.777C402.645 210.437 402.352 210.09 402.062 209.742C401.902 209.547 401.746 209.355 401.59 209.156C401.301 208.793 401.016 208.418 400.738 208.043C400.602 207.863 400.465 207.684 400.332 207.5C399.984 207.016 399.645 206.523 399.312 206.027C399.262 205.949 399.207 205.875 399.152 205.797C398.773 205.219 398.406 204.629 398.051 204.031C397.949 203.863 397.855 203.691 397.758 203.52C397.508 203.09 397.262 202.656 397.027 202.215C396.906 201.996 396.793 201.77 396.68 201.547C396.469 201.145 396.266 200.742 396.07 200.332C395.957 200.098 395.848 199.859 395.738 199.625C395.543 199.203 395.355 198.777 395.172 198.348C395.078 198.125 394.98 197.906 394.891 197.684C394.676 197.148 394.469 196.609 394.27 196.07C394.227 195.949 394.18 195.832 394.137 195.711C393.902 195.051 393.68 194.379 393.473 193.707C393.414 193.508 393.359 193.309 393.301 193.109C393.195 192.742 393.094 192.371 392.996 192.004H480.863C476.629 207.926 464.379 220.484 448.867 224.82V224.82ZM359.758 193.703C359.551 194.379 359.328 195.047 359.094 195.711C359.051 195.832 359.004 195.945 358.961 196.066C358.762 196.609 358.555 197.148 358.34 197.68C358.25 197.906 358.152 198.125 358.059 198.348C357.875 198.773 357.687 199.199 357.496 199.621C357.387 199.859 357.273 200.094 357.16 200.328C356.965 200.738 356.762 201.145 356.555 201.547C356.437 201.77 356.324 201.992 356.203 202.215C355.969 202.656 355.723 203.086 355.473 203.52C355.375 203.688 355.281 203.863 355.18 204.031C354.824 204.625 354.457 205.215 354.078 205.793C354.023 205.871 353.969 205.949 353.918 206.027C353.586 206.523 353.246 207.016 352.898 207.496C352.766 207.68 352.629 207.859 352.492 208.043C352.215 208.418 351.93 208.789 351.641 209.156C351.484 209.352 351.328 209.547 351.168 209.738C350.879 210.09 350.59 210.434 350.293 210.777C350.133 210.961 349.973 211.145 349.809 211.328C349.48 211.695 349.145 212.055 348.805 212.41C348.668 212.555 348.535 212.699 348.398 212.836C347.918 213.328 347.43 213.812 346.926 214.281C346.879 214.324 346.824 214.371 346.777 214.414C346.324 214.836 345.863 215.242 345.395 215.645C345.227 215.789 345.055 215.926 344.887 216.066C344.527 216.367 344.16 216.66 343.793 216.949C343.598 217.102 343.398 217.254 343.203 217.402C342.844 217.672 342.48 217.937 342.113 218.199C341.91 218.34 341.711 218.48 341.508 218.621C341.109 218.895 340.703 219.16 340.297 219.422C340.125 219.531 339.957 219.645 339.781 219.75C339.199 220.113 338.609 220.465 338.008 220.801C337.965 220.824 337.922 220.844 337.879 220.867C337.324 221.176 336.758 221.473 336.188 221.758C335.992 221.855 335.793 221.949 335.594 222.043C335.172 222.25 334.746 222.449 334.312 222.641C334.082 222.742 333.852 222.84 333.617 222.941C333.203 223.113 332.789 223.281 332.367 223.445C332.133 223.539 331.898 223.629 331.664 223.715C331.211 223.883 330.758 224.039 330.301 224.191C330.094 224.258 329.895 224.332 329.688 224.395C329.027 224.605 328.359 224.801 327.684 224.98C327.656 224.988 327.629 224.996 327.602 225.004C326.953 225.172 326.301 225.324 325.648 225.469C325.426 225.516 325.199 225.555 324.977 225.598C324.508 225.691 324.035 225.781 323.562 225.859C323.305 225.902 323.047 225.941 322.785 225.977C322.332 226.043 321.875 226.102 321.418 226.156C321.156 226.188 320.898 226.215 320.633 226.242C320.148 226.289 319.656 226.324 319.164 226.355C318.934 226.371 318.707 226.391 318.477 226.402C317.758 226.437 317.035 226.457 316.309 226.457C315.578 226.457 314.855 226.437 314.137 226.402C313.906 226.391 313.68 226.371 313.453 226.355C312.961 226.324 312.469 226.289 311.98 226.242C311.719 226.215 311.457 226.188 311.199 226.156C310.738 226.102 310.281 226.043 309.828 225.977C309.57 225.938 309.312 225.902 309.055 225.859C308.578 225.781 308.109 225.691 307.637 225.598C307.414 225.555 307.191 225.516 306.969 225.469C306.312 225.328 305.66 225.172 305.016 225.004C304.988 224.996 304.961 224.988 304.93 224.98C304.258 224.801 303.59 224.605 302.926 224.395C302.723 224.332 302.52 224.258 302.316 224.191C301.859 224.039 301.402 223.883 300.953 223.715C300.715 223.629 300.48 223.539 300.246 223.445C299.828 223.281 299.41 223.113 298.996 222.941C298.766 222.84 298.531 222.742 298.301 222.641C297.871 222.449 297.445 222.25 297.02 222.043C296.82 221.949 296.621 221.855 296.426 221.758C295.855 221.473 295.293 221.176 294.734 220.867C294.695 220.844 294.648 220.824 294.605 220.801C294.008 220.465 293.418 220.113 292.832 219.75C292.66 219.645 292.492 219.531 292.32 219.422C291.91 219.16 291.508 218.895 291.105 218.621C290.902 218.48 290.703 218.34 290.504 218.199C290.137 217.937 289.773 217.672 289.414 217.402C289.215 217.254 289.02 217.102 288.824 216.949C288.453 216.66 288.09 216.367 287.73 216.066C287.559 215.926 287.387 215.789 287.223 215.645C286.754 215.246 286.293 214.836 285.84 214.414C285.789 214.371 285.738 214.324 285.688 214.281C285.188 213.809 284.695 213.328 284.215 212.836C284.078 212.695 283.945 212.551 283.812 212.41C283.473 212.055 283.133 211.695 282.805 211.328C282.645 211.145 282.484 210.961 282.324 210.777C282.027 210.434 281.734 210.09 281.449 209.738C281.289 209.547 281.133 209.352 280.977 209.156C280.684 208.789 280.402 208.418 280.121 208.043C279.988 207.859 279.852 207.68 279.719 207.496C279.367 207.016 279.027 206.523 278.699 206.027C278.645 205.949 278.59 205.871 278.539 205.793C278.16 205.215 277.793 204.625 277.438 204.031C277.336 203.863 277.242 203.688 277.145 203.52C276.891 203.086 276.648 202.652 276.41 202.215C276.293 201.992 276.176 201.77 276.062 201.547C275.855 201.145 275.652 200.738 275.453 200.328C275.34 200.094 275.23 199.859 275.121 199.621C274.926 199.203 274.738 198.773 274.559 198.348C274.465 198.125 274.367 197.906 274.277 197.68C274.059 197.148 273.852 196.609 273.656 196.066C273.613 195.949 273.563 195.832 273.52 195.711C273.285 195.047 273.066 194.379 272.859 193.703C272.797 193.504 272.746 193.305 272.688 193.105C272.578 192.742 272.48 192.371 272.383 192H360.234C360.137 192.371 360.035 192.738 359.93 193.105C359.871 193.305 359.816 193.504 359.758 193.703ZM239.141 193.703C238.934 194.379 238.715 195.047 238.48 195.711C238.437 195.832 238.387 195.945 238.344 196.066C238.148 196.609 237.941 197.148 237.723 197.68C237.633 197.906 237.535 198.125 237.441 198.348C237.262 198.773 237.074 199.199 236.879 199.621C236.77 199.859 236.66 200.094 236.547 200.328C236.348 200.738 236.145 201.145 235.938 201.547C235.824 201.77 235.707 201.992 235.59 202.215C235.352 202.656 235.109 203.086 234.855 203.52C234.758 203.688 234.664 203.863 234.562 204.031C234.207 204.625 233.844 205.215 233.461 205.793C233.41 205.871 233.355 205.949 233.301 206.027C232.973 206.523 232.633 207.016 232.281 207.496C232.152 207.68 232.012 207.859 231.879 208.043C231.598 208.418 231.316 208.789 231.023 209.156C230.867 209.352 230.711 209.547 230.551 209.738C230.266 210.09 229.973 210.434 229.676 210.777C229.516 210.961 229.355 211.145 229.195 211.328C228.867 211.695 228.527 212.055 228.188 212.41C228.055 212.555 227.922 212.699 227.785 212.836C227.305 213.328 226.812 213.812 226.312 214.281C226.262 214.324 226.211 214.371 226.16 214.414C225.707 214.836 225.246 215.242 224.777 215.645C224.613 215.789 224.441 215.926 224.27 216.066C223.91 216.367 223.547 216.66 223.176 216.949C222.98 217.102 222.785 217.254 222.586 217.402C222.227 217.672 221.863 217.937 221.496 218.199C221.297 218.34 221.098 218.48 220.895 218.621C220.492 218.895 220.09 219.16 219.68 219.422C219.508 219.531 219.34 219.645 219.168 219.75C218.582 220.113 217.992 220.465 217.395 220.801C217.352 220.824 217.305 220.844 217.266 220.867C216.707 221.176 216.145 221.473 215.574 221.758C215.379 221.855 215.18 221.949 214.98 222.043C214.555 222.25 214.129 222.449 213.699 222.641C213.469 222.742 213.234 222.84 213.004 222.941C212.59 223.113 212.172 223.281 211.754 223.445C211.52 223.539 211.285 223.629 211.047 223.715C210.598 223.883 210.141 224.039 209.684 224.191C209.48 224.258 209.277 224.332 209.074 224.395C208.41 224.605 207.742 224.801 207.07 224.98C207.039 224.988 207.012 224.996 206.984 225.004C206.34 225.172 205.688 225.324 205.031 225.469C204.809 225.516 204.586 225.555 204.363 225.598C203.891 225.691 203.422 225.781 202.945 225.859C202.688 225.902 202.43 225.941 202.172 225.977C201.719 226.043 201.262 226.102 200.801 226.156C200.543 226.188 200.281 226.215 200.02 226.242C199.531 226.289 199.039 226.324 198.547 226.355C198.32 226.371 198.094 226.391 197.863 226.402C197.145 226.437 196.422 226.457 195.691 226.457C194.965 226.457 194.242 226.437 193.523 226.402C193.293 226.391 193.066 226.371 192.836 226.355C192.344 226.324 191.855 226.289 191.367 226.242C191.105 226.215 190.844 226.188 190.582 226.156C190.125 226.102 189.668 226.043 189.215 225.977C188.953 225.938 188.695 225.902 188.438 225.859C187.965 225.781 187.492 225.691 187.023 225.598C186.801 225.555 186.574 225.516 186.352 225.469C185.695 225.328 185.043 225.172 184.398 225.004C184.371 224.996 184.344 224.988 184.316 224.98C183.641 224.801 182.973 224.605 182.312 224.395C182.105 224.332 181.906 224.258 181.699 224.191C181.242 224.039 180.789 223.883 180.336 223.715C180.102 223.629 179.867 223.539 179.633 223.445C179.211 223.281 178.797 223.113 178.383 222.941C178.148 222.84 177.918 222.742 177.688 222.641C177.254 222.449 176.828 222.25 176.406 222.043C176.207 221.949 176.008 221.855 175.812 221.758C175.242 221.473 174.676 221.176 174.121 220.867C174.078 220.844 174.035 220.824 173.992 220.801C173.391 220.465 172.801 220.113 172.219 219.75C172.043 219.645 171.875 219.531 171.703 219.422C171.297 219.16 170.891 218.895 170.492 218.621C170.289 218.48 170.09 218.34 169.887 218.199C169.52 217.937 169.156 217.672 168.797 217.402C168.602 217.254 168.402 217.102 168.207 216.949C167.84 216.66 167.473 216.367 167.113 216.066C166.945 215.926 166.773 215.789 166.605 215.645C166.137 215.246 165.676 214.836 165.223 214.414C165.176 214.371 165.121 214.324 165.074 214.281C164.57 213.809 164.082 213.328 163.602 212.836C163.465 212.695 163.332 212.551 163.195 212.41C162.855 212.055 162.52 211.695 162.191 211.328C162.027 211.145 161.867 210.961 161.707 210.777C161.41 210.434 161.121 210.09 160.832 209.738C160.672 209.547 160.516 209.352 160.359 209.156C160.07 208.789 159.785 208.418 159.508 208.043C159.371 207.859 159.234 207.68 159.102 207.496C158.754 207.016 158.414 206.523 158.082 206.027C158.031 205.949 157.977 205.871 157.922 205.793C157.543 205.215 157.176 204.625 156.82 204.031C156.719 203.863 156.625 203.688 156.527 203.52C156.277 203.086 156.031 202.652 155.797 202.215C155.676 201.992 155.563 201.77 155.445 201.547C155.238 201.145 155.035 200.738 154.84 200.328C154.727 200.094 154.613 199.859 154.504 199.621C154.313 199.203 154.125 198.773 153.941 198.348C153.848 198.125 153.75 197.906 153.66 197.68C153.445 197.148 153.238 196.609 153.039 196.066C152.996 195.949 152.949 195.832 152.906 195.711C152.672 195.047 152.449 194.379 152.242 193.703C152.184 193.504 152.129 193.305 152.07 193.105C151.965 192.742 151.863 192.371 151.766 192H239.617C239.52 192.371 239.418 192.738 239.312 193.105C239.254 193.305 239.203 193.504 239.141 193.703ZM91.1523 86.8203C92.7109 84.4219 93.5391 81.625 93.5391 78.7695V44.3086C93.5391 36.1641 100.164 29.5391 108.309 29.5391H403.691C411.836 29.5391 418.461 36.1641 418.461 44.3086V78.7695C418.461 81.625 419.289 84.4219 420.848 86.8203L470.012 162.461H41.9844L91.1523 86.8203ZM31.1367 192H119.004C118.906 192.371 118.805 192.738 118.699 193.105C118.641 193.305 118.586 193.504 118.527 193.703C118.32 194.379 118.098 195.047 117.863 195.711C117.82 195.832 117.773 195.945 117.73 196.066C117.531 196.609 117.324 197.148 117.109 197.68C117.02 197.906 116.922 198.125 116.828 198.348C116.645 198.773 116.457 199.199 116.262 199.621C116.152 199.859 116.043 200.094 115.93 200.328C115.734 200.738 115.531 201.145 115.32 201.547C115.207 201.77 115.09 201.992 114.973 202.215C114.738 202.656 114.492 203.086 114.242 203.52C114.145 203.688 114.051 203.863 113.949 204.031C113.594 204.625 113.227 205.215 112.848 205.793C112.793 205.871 112.738 205.949 112.688 206.027C112.355 206.523 112.016 207.016 111.668 207.496C111.535 207.68 111.398 207.859 111.262 208.043C110.984 208.418 110.699 208.789 110.41 209.156C110.254 209.352 110.098 209.547 109.938 209.738C109.648 210.09 109.359 210.434 109.062 210.777C108.902 210.961 108.742 211.145 108.578 211.328C108.25 211.695 107.914 212.055 107.574 212.41C107.437 212.555 107.305 212.699 107.168 212.836C106.687 213.328 106.199 213.812 105.695 214.281C105.645 214.324 105.594 214.371 105.547 214.414C105.094 214.836 104.633 215.242 104.164 215.645C103.996 215.789 103.824 215.926 103.656 216.066C103.297 216.367 102.93 216.66 102.562 216.949C102.367 217.102 102.168 217.254 101.973 217.402C101.609 217.672 101.246 217.937 100.879 218.199C100.68 218.34 100.48 218.48 100.277 218.621C99.8789 218.895 99.4727 219.16 99.0664 219.422C98.8945 219.531 98.7266 219.645 98.5508 219.75C97.9688 220.113 97.3789 220.465 96.7773 220.801C96.7344 220.824 96.6914 220.844 96.6484 220.867C96.0937 221.176 95.5273 221.473 94.957 221.758C94.7617 221.855 94.5625 221.949 94.3633 222.043C93.9414 222.25 93.5156 222.449 93.082 222.641C92.8516 222.742 92.6211 222.84 92.3867 222.941C91.9727 223.113 91.5586 223.281 91.1367 223.445C90.9023 223.539 90.668 223.629 90.4336 223.715C89.9805 223.883 89.5234 224.039 89.0664 224.191C88.8633 224.258 88.6641 224.332 88.457 224.395C87.7969 224.605 87.1289 224.801 86.4531 224.98C86.4258 224.988 86.3984 224.996 86.3711 225.004C85.7227 225.172 85.0703 225.324 84.4141 225.469C84.1953 225.516 83.9687 225.555 83.7461 225.598C83.2773 225.691 82.8047 225.781 82.332 225.859C82.0742 225.902 81.8164 225.941 81.5547 225.977C81.1016 226.043 80.6445 226.102 80.1875 226.156C79.9258 226.188 79.668 226.215 79.4023 226.242C78.9141 226.289 78.4258 226.324 77.9336 226.355C77.7031 226.371 77.4766 226.391 77.2461 226.402C76.5273 226.441 75.8047 226.461 75.0781 226.461C74.1602 226.461 73.2383 226.426 72.3203 226.367C72.1523 226.355 71.9844 226.348 71.8203 226.336C69.8906 226.191 67.9688 225.93 66.0664 225.535C66.0469 225.531 66.0234 225.527 66.0039 225.523C65.043 225.32 64.0859 225.086 63.1328 224.82C47.6211 220.484 35.3711 207.926 31.1367 192V192ZM78.5547 255.91C78.7656 255.902 78.9727 255.895 79.1836 255.883C80.2891 255.82 81.3867 255.734 82.4805 255.625C82.6914 255.605 82.9023 255.582 83.1172 255.559C84.2383 255.434 85.3555 255.297 86.4648 255.121C86.5078 255.117 86.5547 255.105 86.5977 255.102C87.6797 254.93 88.7539 254.73 89.8242 254.512C90.0156 254.473 90.2109 254.438 90.4062 254.395C91.4609 254.172 92.5039 253.926 93.543 253.66C93.7539 253.605 93.9609 253.547 94.1719 253.492C95.2305 253.207 96.2813 252.91 97.3203 252.582C97.3984 252.555 97.4766 252.527 97.5547 252.504C98.5508 252.184 99.5391 251.84 100.516 251.48C100.695 251.414 100.875 251.355 101.051 251.285C102.043 250.914 103.02 250.52 103.992 250.105C104.195 250.02 104.398 249.93 104.605 249.84C105.586 249.41 106.559 248.969 107.516 248.5C107.617 248.449 107.715 248.398 107.812 248.348C108.727 247.898 109.625 247.43 110.516 246.941C110.672 246.855 110.832 246.77 110.988 246.684C111.906 246.176 112.809 245.645 113.703 245.098C113.895 244.98 114.086 244.859 114.277 244.738C115.172 244.18 116.059 243.605 116.93 243.012C117.039 242.934 117.148 242.855 117.258 242.781C118.078 242.211 118.891 241.621 119.688 241.02C119.824 240.918 119.961 240.82 120.094 240.719C120.926 240.082 121.742 239.43 122.547 238.758C122.719 238.613 122.891 238.469 123.062 238.324C123.867 237.645 124.656 236.953 125.43 236.238C125.543 236.137 125.648 236.035 125.758 235.934C126.488 235.25 127.211 234.555 127.914 233.84C128.02 233.734 128.129 233.633 128.23 233.527C128.969 232.773 129.691 232.004 130.398 231.219C130.547 231.055 130.691 230.891 130.84 230.723C131.539 229.938 132.223 229.137 132.891 228.32C132.992 228.195 133.09 228.066 133.191 227.941C133.828 227.148 134.453 226.348 135.059 225.527C135.133 225.43 135.207 225.332 135.281 225.234C135.316 225.188 135.352 225.141 135.387 225.094C135.422 225.141 135.457 225.184 135.492 225.234C135.566 225.332 135.641 225.43 135.715 225.527C136.32 226.348 136.945 227.152 137.582 227.941C137.684 228.066 137.781 228.195 137.883 228.32C138.551 229.137 139.234 229.938 139.934 230.723C140.082 230.891 140.227 231.055 140.375 231.219C141.082 232.004 141.805 232.773 142.543 233.527C142.645 233.633 142.754 233.734 142.859 233.84C143.562 234.555 144.281 235.25 145.016 235.934C145.125 236.035 145.234 236.137 145.344 236.238C146.117 236.953 146.906 237.645 147.711 238.324C147.879 238.469 148.051 238.613 148.227 238.758C149.031 239.43 149.848 240.082 150.68 240.719C150.812 240.82 150.949 240.918 151.086 241.02C151.883 241.621 152.691 242.211 153.516 242.781C153.625 242.855 153.734 242.934 153.844 243.012C154.715 243.605 155.602 244.18 156.496 244.738C156.687 244.859 156.879 244.98 157.07 245.098C157.965 245.645 158.867 246.176 159.785 246.684C159.941 246.77 160.102 246.855 160.258 246.941C161.148 247.43 162.047 247.898 162.957 248.348C163.059 248.398 163.156 248.449 163.258 248.5C164.215 248.969 165.187 249.41 166.168 249.84C166.375 249.93 166.578 250.02 166.781 250.105C167.75 250.52 168.73 250.914 169.723 251.285C169.898 251.355 170.078 251.418 170.258 251.48C171.234 251.84 172.223 252.184 173.219 252.504C173.297 252.527 173.375 252.555 173.453 252.582C174.492 252.91 175.543 253.207 176.602 253.492C176.809 253.547 177.02 253.605 177.23 253.66C178.27 253.926 179.312 254.172 180.367 254.395C180.562 254.438 180.754 254.473 180.949 254.512C182.02 254.73 183.09 254.93 184.176 255.102C184.219 255.105 184.266 255.117 184.309 255.121C185.418 255.297 186.535 255.434 187.656 255.559C187.871 255.578 188.082 255.605 188.293 255.625C189.387 255.734 190.484 255.82 191.59 255.883C191.801 255.895 192.008 255.902 192.219 255.91C193.371 255.965 194.531 256 195.695 256C196.863 256 198.02 255.965 199.176 255.91C199.383 255.902 199.594 255.895 199.801 255.883C200.906 255.82 202.004 255.734 203.098 255.625C203.313 255.605 203.523 255.582 203.734 255.559C204.859 255.434 205.977 255.297 207.086 255.121C207.129 255.117 207.172 255.105 207.219 255.102C208.301 254.93 209.375 254.73 210.441 254.512C210.637 254.473 210.832 254.438 211.023 254.395C212.078 254.172 213.125 253.926 214.16 253.66C214.371 253.605 214.582 253.547 214.793 253.492C215.852 253.207 216.902 252.91 217.941 252.582C218.02 252.555 218.094 252.527 218.172 252.504C219.172 252.184 220.156 251.84 221.137 251.48C221.312 251.414 221.492 251.355 221.672 251.285C222.66 250.914 223.641 250.52 224.609 250.105C224.816 250.02 225.02 249.93 225.223 249.84C226.203 249.41 227.176 248.969 228.137 248.5C228.234 248.449 228.336 248.398 228.434 248.348C229.344 247.898 230.242 247.43 231.133 246.941C231.293 246.855 231.453 246.77 231.609 246.684C232.523 246.176 233.426 245.645 234.32 245.098C234.516 244.98 234.703 244.859 234.898 244.738C235.793 244.18 236.68 243.605 237.551 243.012C237.66 242.934 237.77 242.855 237.879 242.781C238.699 242.211 239.508 241.621 240.309 241.02C240.441 240.918 240.578 240.82 240.711 240.719C241.543 240.082 242.359 239.43 243.168 238.758C243.34 238.613 243.512 238.469 243.684 238.324C244.484 237.645 245.277 236.953 246.051 236.238C246.16 236.137 246.266 236.035 246.375 235.934C247.109 235.25 247.828 234.555 248.535 233.84C248.641 233.734 248.746 233.633 248.852 233.527C249.59 232.773 250.309 232.004 251.016 231.219C251.164 231.055 251.313 230.891 251.457 230.723C252.156 229.938 252.844 229.137 253.512 228.32C253.609 228.195 253.711 228.066 253.809 227.941C254.445 227.148 255.07 226.348 255.676 225.527C255.75 225.43 255.828 225.332 255.898 225.234C255.934 225.188 255.973 225.141 256.008 225.094C256.039 225.141 256.078 225.184 256.113 225.234C256.184 225.332 256.262 225.43 256.336 225.527C256.941 226.348 257.562 227.152 258.203 227.941C258.301 228.066 258.402 228.195 258.5 228.32C259.168 229.137 259.855 229.938 260.555 230.723C260.699 230.891 260.848 231.055 260.996 231.219C261.703 232.004 262.422 232.773 263.16 233.527C263.266 233.633 263.371 233.734 263.477 233.84C264.184 234.555 264.902 235.25 265.637 235.934C265.746 236.035 265.852 236.137 265.961 236.238C266.734 236.953 267.527 237.645 268.328 238.324L268.844 238.758C269.648 239.43 270.469 240.082 271.301 240.719C271.434 240.82 271.57 240.918 271.703 241.02C272.504 241.621 273.313 242.211 274.133 242.781C274.246 242.855 274.352 242.934 274.461 243.012C275.332 243.605 276.219 244.18 277.113 244.738C277.309 244.859 277.5 244.98 277.691 245.098C278.582 245.645 279.484 246.176 280.402 246.684C280.559 246.77 280.719 246.855 280.879 246.941C281.77 247.43 282.668 247.898 283.578 248.348C283.676 248.398 283.777 248.449 283.875 248.5C284.836 248.969 285.809 249.41 286.789 249.84C286.992 249.93 287.195 250.02 287.402 250.105C288.371 250.52 289.352 250.914 290.34 251.285C290.52 251.355 290.699 251.418 290.875 251.48C291.855 251.84 292.84 252.184 293.84 252.504C293.918 252.527 293.996 252.555 294.07 252.582C295.109 252.91 296.16 253.207 297.219 253.492C297.43 253.547 297.637 253.605 297.852 253.66C298.887 253.926 299.934 254.172 300.988 254.395C301.18 254.438 301.375 254.473 301.57 254.512C302.637 254.73 303.711 254.93 304.793 255.102C304.84 255.105 304.883 255.117 304.926 255.121C306.035 255.297 307.152 255.434 308.277 255.559C308.488 255.578 308.699 255.605 308.914 255.625C310.008 255.734 311.105 255.82 312.211 255.883C312.418 255.895 312.629 255.902 312.836 255.91C313.992 255.965 315.148 256 316.316 256C317.48 256 318.641 255.965 319.793 255.91C320.004 255.902 320.211 255.895 320.422 255.883C321.527 255.82 322.625 255.734 323.719 255.625C323.93 255.605 324.141 255.582 324.355 255.559C325.477 255.434 326.598 255.297 327.703 255.121C327.746 255.117 327.793 255.105 327.836 255.102C328.918 254.93 329.992 254.73 331.062 254.512C331.258 254.473 331.449 254.438 331.645 254.395C332.699 254.172 333.746 253.926 334.781 253.66C334.992 253.605 335.203 253.547 335.414 253.492C336.469 253.207 337.52 252.91 338.559 252.582C338.637 252.555 338.715 252.527 338.793 252.504C339.789 252.184 340.777 251.84 341.754 251.48C341.934 251.414 342.113 251.355 342.289 251.285C343.281 250.914 344.262 250.52 345.23 250.105C345.434 250.02 345.637 249.93 345.844 249.84C346.824 249.41 347.797 248.969 348.754 248.5C348.855 248.449 348.953 248.398 349.055 248.348C349.965 247.898 350.863 247.43 351.754 246.941C351.91 246.855 352.07 246.77 352.227 246.684C353.145 246.176 354.047 245.645 354.941 245.098C355.133 244.98 355.324 244.859 355.516 244.738C356.41 244.18 357.297 243.605 358.168 243.012C358.277 242.934 358.387 242.855 358.496 242.781C359.32 242.211 360.129 241.621 360.926 241.02C361.063 240.918 361.199 240.82 361.332 240.719C362.164 240.082 362.98 239.43 363.785 238.758C363.961 238.613 364.129 238.469 364.305 238.324C365.105 237.645 365.895 236.953 366.668 236.238C366.781 236.137 366.887 236.035 366.996 235.934C367.727 235.25 368.449 234.555 369.152 233.84C369.258 233.734 369.367 233.633 369.469 233.527C370.207 232.773 370.93 232.004 371.637 231.219C371.785 231.055 371.93 230.891 372.078 230.723C372.777 229.938 373.461 229.137 374.129 228.32C374.23 228.195 374.328 228.066 374.43 227.941C375.066 227.148 375.691 226.348 376.297 225.527C376.371 225.43 376.445 225.332 376.52 225.234C376.555 225.188 376.59 225.141 376.625 225.094C376.66 225.141 376.695 225.184 376.73 225.234C376.805 225.332 376.879 225.43 376.953 225.527C377.562 226.348 378.184 227.152 378.82 227.941C378.922 228.066 379.02 228.195 379.121 228.32C379.789 229.137 380.473 229.938 381.172 230.723C381.32 230.891 381.465 231.055 381.617 231.219C382.32 232.004 383.043 232.773 383.781 233.527C383.887 233.633 383.992 233.734 384.098 233.84C384.801 234.555 385.52 235.25 386.254 235.934C386.363 236.035 386.473 236.137 386.582 236.238C387.355 236.953 388.145 237.645 388.949 238.324C389.117 238.469 389.293 238.613 389.465 238.758C390.27 239.43 391.086 240.082 391.918 240.719C392.051 240.82 392.187 240.918 392.324 241.02C393.121 241.621 393.934 242.211 394.754 242.781C394.863 242.855 394.973 242.934 395.082 243.012C395.953 243.605 396.84 244.18 397.734 244.738C397.926 244.859 398.117 244.98 398.309 245.098C399.203 245.645 400.105 246.176 401.023 246.684C401.18 246.77 401.34 246.855 401.496 246.941C402.387 247.43 403.285 247.898 404.199 248.348C404.297 248.398 404.395 248.449 404.496 248.5C405.453 248.969 406.426 249.41 407.41 249.84C407.613 249.93 407.816 250.02 408.02 250.105C408.992 250.52 409.969 250.914 410.961 251.285C411.137 251.355 411.316 251.418 411.496 251.48C412.473 251.84 413.461 252.184 414.457 252.504C414.535 252.527 414.613 252.555 414.691 252.582C415.73 252.91 416.781 253.207 417.84 253.492C418.051 253.547 418.258 253.605 418.469 253.66C419.508 253.926 420.555 254.172 421.605 254.395C421.801 254.438 421.996 254.473 422.188 254.512C423.258 254.73 424.328 254.93 425.414 255.102C425.457 255.105 425.504 255.117 425.547 255.121C426.656 255.297 427.773 255.434 428.898 255.559C429.109 255.578 429.32 255.605 429.531 255.625C430.625 255.734 431.723 255.82 432.828 255.883C433.039 255.895 433.246 255.902 433.457 255.91C434.609 255.965 435.77 256 436.934 256C437.344 256 437.754 255.996 438.164 255.988V418.461H241.23V324.922C241.23 300.492 221.355 280.617 196.922 280.617H157.539C133.105 280.617 113.23 300.492 113.23 324.922V418.461H73.8477V255.988C74.2578 255.996 74.668 256 75.0781 256C76.2422 256 77.4023 255.965 78.5547 255.91V255.91ZM211.691 418.461H142.77V324.922C142.77 316.781 149.395 310.152 157.539 310.152H196.922C205.066 310.152 211.691 316.781 211.691 324.922V418.461ZM465.23 482.461H46.7695C37.2695 482.461 29.5391 474.73 29.5391 465.23C29.5391 455.73 37.2695 448 46.7695 448H465.23C474.73 448 482.461 455.73 482.461 465.23C482.461 474.73 474.73 482.461 465.23 482.461Z" fill="url(#paint0_linear)"/>
<path d="M315.078 369.23H354.461C378.895 369.23 398.77 349.355 398.77 324.922C398.77 300.492 378.895 280.617 354.461 280.617H315.078C290.645 280.617 270.77 300.492 270.77 324.922C270.77 349.355 290.645 369.23 315.078 369.23V369.23ZM315.078 310.152H354.461C362.605 310.152 369.23 316.781 369.23 324.922C369.23 333.066 362.605 339.691 354.461 339.691H315.078C306.934 339.691 300.309 333.066 300.309 324.922C300.309 316.781 306.934 310.152 315.078 310.152V310.152Z" fill="url(#paint1_linear)"/>
<path d="M398.77 78.7695C398.77 70.6133 392.156 64 384 64H128C119.844 64 113.23 70.6133 113.23 78.7695C113.23 86.9258 119.844 93.5391 128 93.5391H384C392.156 93.5391 398.77 86.9258 398.77 78.7695V78.7695Z" fill="url(#paint2_linear)"/>
<defs>
<linearGradient id="paint0_linear" x1="256" y1="0" x2="256" y2="512" gradientUnits="userSpaceOnUse">
<stop stop-color="#FFA400" stop-opacity="0.8"/>
<stop offset="1" stop-color="#FF5A00"/>
</linearGradient>
<linearGradient id="paint1_linear" x1="334.77" y1="280.617" x2="334.77" y2="369.23" gradientUnits="userSpaceOnUse">
<stop stop-color="#FFA400" stop-opacity="0.8"/>
<stop offset="1" stop-color="#FF5A00"/>
</linearGradient>
<linearGradient id="paint2_linear" x1="256" y1="64" x2="256" y2="93.5391" gradientUnits="userSpaceOnUse">
<stop stop-color="#FFA400" stop-opacity="0.8"/>
<stop offset="1" stop-color="#FF5A00"/>
</linearGradient>
</defs>
</svg>
