<svg width="512" height="512" viewBox="0 0 512 512" fill="none" xmlns="http://www.w3.org/2000/svg">
<path d="M271 108.67H241V138.67H271V108.67Z" fill="#FF5A00"/>
<path d="M271 108.67H241V138.67H271V108.67Z" fill="url(#paint0_linear)"/>
<path d="M336 166.33H176V196.33H336V166.33Z" fill="#FF5A00"/>
<path d="M336 166.33H176V196.33H336V166.33Z" fill="url(#paint1_linear)"/>
<path d="M416 219.67H96V249.67H416V219.67Z" fill="#FF5A00"/>
<path d="M416 219.67H96V249.67H416V219.67Z" fill="url(#paint2_linear)"/>
<path d="M481.155 372.719H512V49H345.667V0H166.333V49H0V372.719H30.846C33.78 387.381 41.363 400.382 51.991 410.114C21.066 426.781 0 459.475 0 497V512H512V497C512 459.475 490.934 426.781 460.008 410.113C470.637 400.382 478.221 387.381 481.155 372.719ZM196.333 30H315.666V49H196.333V30ZM158.27 482H31.651C38.511 451.346 65.938 428.369 98.631 428.369C126.458 428.369 150.461 445.021 161.222 468.88C159.953 473.142 158.957 477.52 158.27 482ZM59.498 359.134C59.498 337.556 77.053 320.001 98.631 320.001C120.209 320.001 137.764 337.556 137.764 359.134C137.764 380.712 120.209 398.267 98.631 398.267C77.053 398.267 59.498 380.712 59.498 359.134ZM177.196 437.445C168.659 426.208 157.772 416.851 145.271 410.114C155.899 400.382 163.483 387.382 166.416 372.719H187.977C190.911 387.381 198.494 400.382 209.122 410.114C196.621 416.851 185.734 426.209 177.196 437.445ZM315.876 482H188.783C195.643 451.346 223.07 428.369 255.763 428.369C283.839 428.369 308.019 445.323 318.636 469.525C317.457 473.583 316.528 477.746 315.876 482ZM216.63 359.134C216.63 337.556 234.185 320.001 255.763 320.001C277.341 320.001 294.896 337.556 294.896 359.134C294.896 380.712 277.341 398.267 255.763 398.267C234.185 398.267 216.63 380.712 216.63 359.134ZM334.566 437.754C325.993 426.379 315.019 416.914 302.403 410.114C313.032 400.382 320.614 387.382 323.548 372.719H345.584C348.518 387.381 356.101 400.382 366.729 410.114C354.113 416.913 343.139 426.379 334.566 437.754ZM480.349 482H346.389C353.249 451.346 380.676 428.369 413.369 428.369C446.061 428.369 473.489 451.347 480.349 482ZM374.236 359.134C374.236 337.556 391.79 320 413.369 320C434.947 320 452.503 337.555 452.503 359.133C452.503 380.711 434.947 398.267 413.369 398.267C391.791 398.267 374.236 380.712 374.236 359.134ZM413.369 290C380.905 290 353.611 312.499 346.221 342.719H322.91C315.522 312.499 288.227 290 255.763 290C223.299 290 196.004 312.499 188.615 342.719H165.779C158.39 312.499 131.096 290 98.631 290C66.167 290 38.872 312.499 31.483 342.719H30V79H482V342.719H480.517C473.128 312.499 445.833 290 413.369 290Z" fill="url(#paint3_linear)"/>
<defs>
<linearGradient id="paint0_linear" x1="256" y1="108.67" x2="256" y2="138.67" gradientUnits="userSpaceOnUse">
<stop stop-color="#FFA400"/>
<stop offset="1" stop-color="#FF5A00"/>
</linearGradient>
<linearGradient id="paint1_linear" x1="256" y1="166.33" x2="256" y2="196.33" gradientUnits="userSpaceOnUse">
<stop stop-color="#FFA400"/>
<stop offset="1" stop-color="#FF5A00"/>
</linearGradient>
<linearGradient id="paint2_linear" x1="256" y1="219.67" x2="256" y2="249.67" gradientUnits="userSpaceOnUse">
<stop stop-color="#FFA400"/>
<stop offset="1" stop-color="#FF5A00"/>
</linearGradient>
<linearGradient id="paint3_linear" x1="256" y1="0" x2="256" y2="512" gradientUnits="userSpaceOnUse">
<stop stop-color="#FFA400" stop-opacity="0.8"/>
<stop offset="1" stop-color="#FF5A00"/>
</linearGradient>
</defs>
</svg>
