<svg id="icons" enable-background="new 0 0 64 64" height="512" viewBox="0 0 64 64" width="512" xmlns="http://www.w3.org/2000/svg"><path d="m46 44.993h-4.585l-1.415-1.416v-2.75c4.774-2.771 8-7.929 8-13.835v-2.984h.016c.553 0 1-.447 1-1v-4.002c0-.553-.447-1-1-1h-.057c-.402-6.5-4.752-12.154-10.941-14.199v-1.254c0-.022-.012-.041-.013-.063-.005-.071-.022-.136-.041-.202-.017-.061-.03-.119-.058-.174-.028-.058-.066-.104-.105-.155-.039-.053-.076-.103-.125-.146-.045-.04-.097-.068-.149-.101-.06-.036-.117-.07-.185-.094-.021-.008-.036-.023-.058-.029-2.769-.768-5.772-.771-8.533-.01-.021.006-.036.021-.058.028-.067.023-.126.058-.187.095-.053.031-.104.061-.149.101-.049.043-.085.094-.125.146-.038.051-.076.099-.104.155-.027.056-.042.114-.06.176-.018.065-.035.129-.039.198-.002.022-.013.042-.013.065v1.254c-6.209 2.034-10.571 7.693-10.975 14.209h-.024c-.553 0-1 .447-1 1v4.002c0 .551.444.996.995.999l-.012 2.981v.002s0 .001 0 .002c0 5.906 3.226 11.063 8 13.835v2.75l-1.413 1.414-4.585.001c-4.964 0-9.002 4.038-9.002 9.002l.001 6.997c0 1.103.897 2 2 2h41.999c1.103 0 2-.897 2-2v-6.998c0-4.963-4.037-9-9-9zm-7.707 6.291c-.391.391-.391 1.023 0 1.414l1.387 1.387-5.18 6.906h-1.039l2.576-6.623c0-.001 0-.001 0-.002l3.339-8.584.914.914.007.007 1.289 1.29zm-8.793 9.707-5.18-6.906 1.387-1.387c.391-.391.391-1.023 0-1.414l-3.293-3.291 1.294-1.295s0 0 .001-.001l.915-.915 3.339 8.585 2.576 6.624zm2.5-14.857 1.444.797-.905 1.063h-1.078l-.905-1.063zm-.338 3.859h.676l1.695 4.013-2.033 5.227-2.033-5.227zm3.411 1.338-.912-2.159 1.07-1.256.963.531zm-6.304-3.415 1.071 1.256-.913 2.16-1.121-2.885zm-11.749-25.908c-.001 0-.002 0-.003 0v-2.002h29.999v2.002zm9.996-16.099v2.099c0 .553.447 1 1 1s1-.447 1-1v-4.676c1.963-.424 4.034-.423 6.002.008v4.668c0 .553.447 1 1 1s1-.447 1-1v-2.085c5.044 1.938 8.558 6.668 8.941 12.083h-27.918c.384-5.431 3.911-10.167 8.975-12.097zm-9.016 21.083.012-2.984h27.988v2.984c0 7.72-6.28 14-14 14s-14-6.28-14-14zm14 16c2.122 0 4.145-.424 6-1.178v1.99l-1.074 2.761-4.442-2.45c-.034-.019-.071-.019-.106-.033-.062-.025-.122-.046-.188-.059-.063-.013-.125-.018-.188-.018s-.125.005-.188.018c-.066.013-.127.033-.188.059-.035.015-.072.015-.106.033l-4.442 2.45-1.078-2.76v-1.99c1.855.753 3.878 1.177 6 1.177zm-13.998 4h2.585l-.294.294c-.391.391-.391 1.023 0 1.414l3.293 3.291-1.293 1.293c-.031.031-.045.073-.071.107-.042.054-.081.105-.11.166-.028.058-.045.115-.062.177-.017.063-.032.123-.036.188-.005.063.002.124.01.188.007.063.016.124.036.187.021.063.052.121.086.181.021.037.028.079.055.114l4.8 6.4h-16l-.001-6.998c0-3.861 3.141-7.002 7.002-7.002zm34.998 13.999h-16l4.8-6.4c.026-.035.033-.077.055-.114.034-.06.065-.117.086-.181.021-.063.029-.123.036-.187.008-.063.015-.124.01-.188-.004-.064-.02-.125-.036-.188-.017-.062-.033-.119-.062-.177-.029-.061-.068-.112-.11-.166-.026-.034-.04-.076-.071-.107l-1.293-1.293 3.293-3.291c.391-.391.391-1.023 0-1.414l-.293-.293h2.585c3.859 0 7 3.141 7 7z"/></svg>