<?xml version="1.0" encoding="iso-8859-1"?>
<!-- Generator: Adobe Illustrator 19.0.0, SVG Export Plug-In . SVG Version: 6.00 Build 0)  -->
<svg version="1.1" id="Capa_1" xmlns="http://www.w3.org/2000/svg" xmlns:xlink="http://www.w3.org/1999/xlink" x="0px" y="0px"
	 viewBox="0 0 512 512" style="enable-background:new 0 0 512 512;" xml:space="preserve">
<g>
	<g>
		<rect x="241" y="108.67" width="30" height="30"/>
	</g>
</g>
<g>
	<g>
		<rect x="176" y="166.33" width="160" height="30"/>
	</g>
</g>
<g>
	<g>
		<rect x="96" y="219.67" width="320" height="30"/>
	</g>
</g>
<g>
	<g>
		<path d="M481.155,372.719H512V49H345.667V0H166.333v49H0v323.719h30.846c2.934,14.662,10.517,27.663,21.145,37.395
			C21.066,426.781,0,459.475,0,497v15h512v-15c0-37.525-21.066-70.219-51.992-86.887
			C470.637,400.382,478.221,387.381,481.155,372.719z M196.333,30h119.333v19H196.333V30z M158.27,482H31.651
			c6.86-30.654,34.287-53.631,66.98-53.631c27.827,0,51.83,16.652,62.591,40.511C159.953,473.142,158.957,477.52,158.27,482z
			 M59.498,359.134c0-21.578,17.555-39.133,39.133-39.133s39.133,17.555,39.133,39.133s-17.555,39.133-39.133,39.133
			S59.498,380.712,59.498,359.134z M177.196,437.445c-8.537-11.237-19.424-20.594-31.925-27.331
			c10.628-9.732,18.212-22.732,21.145-37.395h21.561c2.934,14.662,10.517,27.663,21.145,37.395
			C196.621,416.851,185.734,426.209,177.196,437.445z M315.876,482H188.783c6.86-30.654,34.287-53.631,66.98-53.631
			c28.076,0,52.256,16.954,62.873,41.156C317.457,473.583,316.528,477.746,315.876,482z M216.63,359.134
			c0-21.578,17.555-39.133,39.133-39.133s39.133,17.555,39.133,39.133s-17.555,39.133-39.133,39.133S216.63,380.712,216.63,359.134z
			 M334.566,437.754c-8.573-11.375-19.547-20.84-32.163-27.64c10.629-9.732,18.211-22.732,21.145-37.395h22.036
			c2.934,14.662,10.517,27.663,21.145,37.395C354.113,416.913,343.139,426.379,334.566,437.754z M480.349,482h-133.96
			c6.86-30.654,34.287-53.631,66.98-53.631C446.061,428.369,473.489,451.347,480.349,482z M374.236,359.134
			c0-21.578,17.554-39.134,39.133-39.134c21.578,0,39.134,17.555,39.134,39.133s-17.556,39.134-39.134,39.134
			S374.236,380.712,374.236,359.134z M413.369,290c-32.464,0-59.758,22.499-67.148,52.719H322.91
			C315.522,312.499,288.227,290,255.763,290s-59.759,22.499-67.148,52.719h-22.836C158.39,312.499,131.096,290,98.631,290
			c-32.464,0-59.759,22.499-67.148,52.719H30V79h452v263.719h-1.483C473.128,312.499,445.833,290,413.369,290z"/>
	</g>
</g>
<g>
</g>
<g>
</g>
<g>
</g>
<g>
</g>
<g>
</g>
<g>
</g>
<g>
</g>
<g>
</g>
<g>
</g>
<g>
</g>
<g>
</g>
<g>
</g>
<g>
</g>
<g>
</g>
<g>
</g>
</svg>
