<svg xmlns="http://www.w3.org/2000/svg" width="551.685" height="512" viewBox="0 0 551.685 512">
  <path id="Union_21" data-name="Union 21" d="M341.685,407A105.522,105.522,0,0,1,343.4,388.05L300.19,363.1a36.916,36.916,0,0,0,5.628-3.764c4.78-3.889,8.176-9.353,10.1-16.24a45.742,45.742,0,0,0,1.04-4.959L353.262,359.1a105.642,105.642,0,0,1,38.006-41.255A104.98,104.98,0,1,1,341.685,407Zm65.891,63.968a74.837,74.837,0,0,0,78.218,0,49.8,49.8,0,0,0-78.218,0ZM491.684,407a44.747,44.747,0,0,1-7.307,24.537,80.366,80.366,0,0,1,23.373,18.925,75,75,0,1,0-122.132,0,80.4,80.4,0,0,1,23.373-18.925A44.99,44.99,0,1,1,491.684,407Zm-60,0a15,15,0,1,0,15-15A15.017,15.017,0,0,0,431.685,407ZM30.03,367.387q-13.072-7.272-19.855-18A57.027,57.027,0,0,1,1.7,326.859Q0,315.067,0,291.485V223.561Q0,190.8,3.531,175.972t20.264-27.184q16.735-12.357,43.283-12.356,26.124,0,43.353,10.732t22.452,25.49q5.226,14.757,5.225,42.858V225.4H78.656V204.638q0-19.629-1.695-24.572t-8.049-4.942q-5.508,0-7.484,4.236t-1.977,21.747V310.831q0,15.393,1.977,20.264t7.907,4.872q6.5,0,8.826-5.507T80.492,309V281.883h-12V247.144h69.619V369.859h-37.36l-5.5-16.381a41.546,41.546,0,0,1-15.332,15.887q-9.257,5.3-21.833,5.3A56.776,56.776,0,0,1,30.03,367.387Zm131.095,2.471V141.232h44.483q43.07,0,58.252,3.955t23.088,12.992a41.139,41.139,0,0,1,9.886,20.123q1.976,11.085,1.976,43.565v80.068q0,30.785-2.894,41.164t-10.1,16.24a42,42,0,0,1-17.793,8.19q-10.591,2.33-31.914,2.33Zm59.451-39.116q12.851,0,15.817-5.154t2.965-28.031V208.733q0-15.533-.989-19.912a9.444,9.444,0,0,0-4.519-6.425q-3.53-2.048-13.274-2.048Zm196.812-124.9a104.548,104.548,0,0,1-26.121-11.688A105.642,105.642,0,0,1,353.262,152.9l-37.315,21.544a41.96,41.96,0,0,0-9-16.264,36.709,36.709,0,0,0-9.551-7.668L343.4,123.95a104.952,104.952,0,1,1,73.987,81.892Zm-9.812-36.874a74.834,74.834,0,0,0,78.216,0,49.8,49.8,0,0,0-78.216,0ZM371.685,105a74.406,74.406,0,0,0,13.937,43.466,80.393,80.393,0,0,1,23.371-18.927,45,45,0,1,1,75.385,0,80.363,80.363,0,0,1,23.372,18.925A74.98,74.98,0,1,0,371.685,105Zm60,0a15,15,0,1,0,15-15A15.017,15.017,0,0,0,431.685,105Z" fill="#757575"/>
</svg>
