<svg xmlns="http://www.w3.org/2000/svg" width="24.501" height="8.011" viewBox="0 0 24.501 8.011">
  <path id="Path_143" data-name="Path 143" d="M3.2-13.3.342-14.153.777-15.58l2.858,1.059L3.55-17.773H5l-.095,3.3,2.811-1.04.435,1.437-2.905.86,1.874,2.565-1.173.89-1.76-2.725-1.7,2.659L1.3-10.69Zm8.347,0-2.858-.851.435-1.427,2.858,1.059L11.9-17.773h1.448l-.095,3.3,2.811-1.04.435,1.437-2.905.86,1.874,2.565-1.173.89-1.76-2.725-1.7,2.659L9.644-10.69Zm8.347,0-2.858-.851.435-1.427,2.858,1.059-.085-3.252h1.448l-.095,3.3,2.811-1.04.435,1.437-2.905.86,1.874,2.565-1.173.89-1.76-2.725-1.7,2.659-1.183-.861Z" transform="translate(-0.342 17.773)" fill="#444"/>
</svg>
