<svg xmlns="http://www.w3.org/2000/svg" xmlns:xlink="http://www.w3.org/1999/xlink" width="34.882" height="48" viewBox="0 0 34.882 48">
  <defs>
    <linearGradient id="linear-gradient" x1="-0.001" y1="0.507" x2="0.995" y2="0.507" gradientUnits="objectBoundingBox">
      <stop offset="0" stop-color="#ffcf42"/>
      <stop offset="1" stop-color="#ffb500"/>
    </linearGradient>
    <linearGradient id="linear-gradient-2" x1="0.521" y1="0.52" x2="-1.466" y2="0.572" gradientUnits="objectBoundingBox">
      <stop offset="0" stop-color="#ffb500" stop-opacity="0"/>
      <stop offset="1" stop-color="#ff7000"/>
    </linearGradient>
    <linearGradient id="linear-gradient-3" x1="0.231" y1="0.507" x2="1.82" y2="0.507" gradientUnits="objectBoundingBox">
      <stop offset="0" stop-color="#ff4c4a"/>
      <stop offset="1" stop-color="#ff001c"/>
    </linearGradient>
    <linearGradient id="linear-gradient-4" x1="0.497" y1="-8.865" x2="0.497" y2="-9.595" gradientUnits="objectBoundingBox">
      <stop offset="0" stop-color="#ff001c" stop-opacity="0"/>
      <stop offset="1" stop-color="#c1001c"/>
    </linearGradient>
  </defs>
  <g id="passport" transform="translate(-69.961 0)">
    <path id="Path_56" data-name="Path 56" d="M104.829,5.549l-4.583,40.34a2.38,2.38,0,0,1-2.632,2.1l-25.541-2.9a2.38,2.38,0,0,1-2.1-2.632L74.56,2.11a2.38,2.38,0,0,1,2.632-2.1l25.541,2.9A2.38,2.38,0,0,1,104.829,5.549Z" transform="translate(-0.001 0)" fill="url(#linear-gradient)"/>
    <path id="Path_57" data-name="Path 57" d="M392.164,28.005l.253,41.763,0,0L396.584,32.5Z" transform="translate(-291.931 -25.416)" fill="url(#linear-gradient-2)"/>
    <path id="Path_58" data-name="Path 58" d="M100.486,16.474V57.107A2.383,2.383,0,0,1,98.1,59.488H72.345a2.383,2.383,0,0,1-2.384-2.381V16.474a2.383,2.383,0,0,1,2.384-2.381H98.1A2.383,2.383,0,0,1,100.486,16.474Z" transform="translate(0 -12.79)" fill="url(#linear-gradient-3)"/>
    <path id="Path_59" data-name="Path 59" d="M100.486,452.232v1.876a2.366,2.366,0,0,1-2.384,2.346H72.345a2.366,2.366,0,0,1-2.384-2.346v-1.876Z" transform="translate(0 -409.757)" fill="url(#linear-gradient-4)"/>
    <g id="Group_233" data-name="Group 233" transform="translate(73.428 8.124)">
      <path id="Path_60" data-name="Path 60" d="M148.525,171.615c-.28-.605-1.143-.584-1.427-.577a7.074,7.074,0,0,0-.941.1,8.26,8.26,0,0,1,.586.832,3.694,3.694,0,0,1,.694-.018.179.179,0,0,1,.128.283,3.534,3.534,0,0,1-.419.472c-.054.052-.113.108-.176.165a8.115,8.115,0,1,0-14.654,6.977l-.233.045a5.315,5.315,0,0,1-1.333.112.179.179,0,0,1-.132-.281,5.453,5.453,0,0,1,1.018-1,8.227,8.227,0,0,1-.226-.968,9.042,9.042,0,0,0-1.265,1.121c-.189.212-.764.856-.485,1.461.243.528.931.579,1.292.579l.135,0a8.391,8.391,0,0,0,1.448-.189l.241-.052a8.113,8.113,0,0,0,14.551-6.914c.065-.055.129-.11.189-.164a6.506,6.506,0,0,0,.524-.516,1.883,1.883,0,0,0,.56-1.115A.812.812,0,0,0,148.525,171.615ZM141.39,169.1a7.426,7.426,0,0,1,3.472,1.938,8.551,8.551,0,0,1-1.082.453c-.321.111-.656.208-1,.29a10.008,10.008,0,0,0-.394-1.07,5.886,5.886,0,0,0-1-1.614Zm-4.749,7.617h3.989l.016.032q-.482.235-.978.464c-.984.455-1.962.871-2.9,1.236A16.642,16.642,0,0,1,136.64,176.722Zm3.811-1.264a.255.255,0,0,0-.274.366l.063.126h-3.6a15.37,15.37,0,0,1,.405-3.261,15.169,15.169,0,0,0,5.177,0,15.3,15.3,0,0,1,.4,3.167Zm-.405,2.579q.51-.236,1.005-.477l.449.892a.255.255,0,0,0,.457,0l.657-1.337a15.085,15.085,0,0,1-.392,2.87,15.167,15.167,0,0,0-5.177,0c-.049-.2-.092-.407-.132-.617C137.921,178.978,138.978,178.53,140.046,178.036Zm-.412-9.042c.73,0,1.474.741,2.039,2.032a9.242,9.242,0,0,1,.341.915,14.477,14.477,0,0,1-4.761,0,9.208,9.208,0,0,1,.341-.915C138.16,169.735,138.9,168.994,139.634,168.994Zm-1.746.108a5.881,5.881,0,0,0-1,1.614,10.043,10.043,0,0,0-.394,1.07,9.537,9.537,0,0,1-2.087-.743A7.428,7.428,0,0,1,137.889,169.1Zm-4.124,2.662c.034-.044.069-.087.1-.13l.125.067a10.243,10.243,0,0,0,2.3.831,14.675,14.675,0,0,0-.274,1.483,17.371,17.371,0,0,0-.148,1.935H132.2A7.4,7.4,0,0,1,133.765,171.764Zm-1.484,5.709a7.359,7.359,0,0,1-.077-.751h3.663a17.27,17.27,0,0,0,.16,2.013c-.93.343-1.81.629-2.6.845-.151.041-.294.078-.432.112A7.376,7.376,0,0,1,132.281,177.473Zm1.587,3.564q-.211-.258-.4-.536c.823-.216,1.738-.507,2.71-.861.034.169.07.336.109.5q-.54.13-1.041.3a9.307,9.307,0,0,0-1.255.53Zm.538.591a9.542,9.542,0,0,1,2.087-.743,10,10,0,0,0,.394,1.07,5.887,5.887,0,0,0,1,1.614A7.426,7.426,0,0,1,134.406,181.628Zm5.228,2.049c-.73,0-1.474-.741-2.039-2.032a9.212,9.212,0,0,1-.341-.915,14.475,14.475,0,0,1,4.761,0,9.231,9.231,0,0,1-.341.915C141.108,182.936,140.365,183.676,139.634,183.676Zm1.746-.108a5.882,5.882,0,0,0,1-1.614,10.047,10.047,0,0,0,.394-1.07,9.536,9.536,0,0,1,2.087.743A7.426,7.426,0,0,1,141.38,183.568Zm4.02-2.532-.124-.066a10.226,10.226,0,0,0-2.3-.831,16.194,16.194,0,0,0,.422-3.418h3.663A7.406,7.406,0,0,1,145.4,181.037Zm1.664-5.088H143.4a16.193,16.193,0,0,0-.422-3.418,10.231,10.231,0,0,0,2.3-.831l.124-.066a7.444,7.444,0,0,1,1.036,1.685c-.257.2-.562.427-.925.675a6.418,6.418,0,0,1-.957.617.451.451,0,1,0,.45.782,8.442,8.442,0,0,0,1.268-.83q.26-.183.491-.358A7.426,7.426,0,0,1,147.064,175.949Z" transform="translate(-127.542 -160.459)" fill="#fff2e8"/>
      <path id="Path_61" data-name="Path 61" d="M107.471,88.5v-3.7a.172.172,0,0,1,.064-.134.242.242,0,0,1,.165-.056h1.089a1.291,1.291,0,0,1,.891.3,1.19,1.19,0,0,1,.333.933v.045a1.177,1.177,0,0,1-.344.936,1.343,1.343,0,0,1-.913.3h-.693V88.5a.161.161,0,0,1-.087.142.393.393,0,0,1-.21.053.4.4,0,0,1-.207-.053A.16.16,0,0,1,107.471,88.5Zm.592-1.849h.693a.647.647,0,0,0,.492-.182.762.762,0,0,0,.173-.545v-.067a.752.752,0,0,0-.173-.542.653.653,0,0,0-.492-.179h-.693Z" transform="translate(-107.471 -84.582)" fill="#fff2e8"/>
      <path id="Path_62" data-name="Path 62" d="M134.991,88.125a.167.167,0,0,1,.006-.05l1.109-3.621q.071-.2.4-.2t.4.187l1.106,3.62a.19.19,0,0,1,.011.053.216.216,0,0,1-.13.181.539.539,0,0,1-.276.076q-.176,0-.219-.122l-.231-.8h-1.373l-.229.8a.189.189,0,0,1-.206.124.469.469,0,0,1-.251-.072A.206.206,0,0,1,134.991,88.125Zm.937-1.146h1.109l-.56-1.917Z" transform="translate(-132.447 -84.253)" fill="#fff2e8"/>
      <path id="Path_63" data-name="Path 63" d="M169.846,87.923a.356.356,0,0,1,.078-.212.222.222,0,0,1,.179-.106.253.253,0,0,1,.148.072q.086.072.17.155a.8.8,0,0,0,.254.155.98.98,0,0,0,.383.072.8.8,0,0,0,.511-.152.531.531,0,0,0,.193-.444.6.6,0,0,0-.187-.449,1.4,1.4,0,0,0-.453-.286q-.265-.107-.534-.23a1.191,1.191,0,0,1-.455-.371.994.994,0,0,1-.187-.618,1.085,1.085,0,0,1,.115-.513.83.83,0,0,1,.31-.334,1.488,1.488,0,0,1,.411-.17,1.9,1.9,0,0,1,.455-.053,2.7,2.7,0,0,1,.316.019,2.216,2.216,0,0,1,.327.064.752.752,0,0,1,.268.127.237.237,0,0,1,.106.188.4.4,0,0,1-.067.212.2.2,0,0,1-.179.107.338.338,0,0,1-.151-.053,1.522,1.522,0,0,0-.254-.107,1.15,1.15,0,0,0-.366-.053.905.905,0,0,0-.508.126.43.43,0,0,0-.19.385.438.438,0,0,0,.1.289.786.786,0,0,0,.26.2q.159.079.355.155a3.794,3.794,0,0,1,.388.177,2.015,2.015,0,0,1,.352.233.959.959,0,0,1,.26.362,1.324,1.324,0,0,1,.1.534,1.1,1.1,0,0,1-.349.88,1.363,1.363,0,0,1-.925.3,1.677,1.677,0,0,1-.874-.215Q169.846,88.152,169.846,87.923Z" transform="translate(-164.08 -84.42)" fill="#fff2e8"/>
      <path id="Path_64" data-name="Path 64" d="M200.792,87.923a.356.356,0,0,1,.078-.212.222.222,0,0,1,.179-.106.253.253,0,0,1,.148.072q.086.072.17.155a.8.8,0,0,0,.254.155.979.979,0,0,0,.383.072.8.8,0,0,0,.511-.152.531.531,0,0,0,.193-.444.6.6,0,0,0-.187-.449,1.4,1.4,0,0,0-.453-.286q-.265-.107-.534-.23a1.191,1.191,0,0,1-.455-.371.994.994,0,0,1-.187-.618,1.086,1.086,0,0,1,.115-.513.83.83,0,0,1,.31-.334,1.487,1.487,0,0,1,.411-.17,1.9,1.9,0,0,1,.455-.053,2.7,2.7,0,0,1,.316.019,2.216,2.216,0,0,1,.327.064.752.752,0,0,1,.268.127.237.237,0,0,1,.106.188.4.4,0,0,1-.067.212.2.2,0,0,1-.179.107.338.338,0,0,1-.151-.053,1.52,1.52,0,0,0-.254-.107,1.15,1.15,0,0,0-.366-.053.905.905,0,0,0-.508.126.431.431,0,0,0-.19.385.438.438,0,0,0,.1.289.787.787,0,0,0,.26.2q.159.079.355.155a3.8,3.8,0,0,1,.388.177,2.015,2.015,0,0,1,.352.233.959.959,0,0,1,.26.362,1.324,1.324,0,0,1,.1.534,1.1,1.1,0,0,1-.349.88,1.363,1.363,0,0,1-.925.3,1.677,1.677,0,0,1-.874-.215Q200.792,88.152,200.792,87.923Z" transform="translate(-192.166 -84.42)" fill="#fff2e8"/>
      <path id="Path_65" data-name="Path 65" d="M233.974,88.5v-3.7a.172.172,0,0,1,.064-.134.242.242,0,0,1,.165-.056h1.089a1.291,1.291,0,0,1,.891.3,1.19,1.19,0,0,1,.333.933v.045a1.177,1.177,0,0,1-.344.936,1.342,1.342,0,0,1-.913.3h-.693V88.5a.161.161,0,0,1-.087.142.393.393,0,0,1-.21.053.4.4,0,0,1-.207-.053A.16.16,0,0,1,233.974,88.5Zm.592-1.849h.693a.647.647,0,0,0,.492-.182.762.762,0,0,0,.173-.545v-.067a.752.752,0,0,0-.173-.542.653.653,0,0,0-.492-.179h-.693Z" transform="translate(-222.28 -84.582)" fill="#fff2e8"/>
      <path id="Path_66" data-name="Path 66" d="M266.493,87.488V85.862a1.2,1.2,0,0,1,.341-.944,1.53,1.53,0,0,1,1.824,0,1.193,1.193,0,0,1,.343.944v1.626a1.194,1.194,0,0,1-.343.944,1.53,1.53,0,0,1-1.824,0A1.2,1.2,0,0,1,266.493,87.488Zm.592,0q0,.721.659.721a.653.653,0,0,0,.492-.179.752.752,0,0,0,.173-.542V85.862a.752.752,0,0,0-.173-.542.653.653,0,0,0-.492-.179q-.659,0-.659.721Z" transform="translate(-251.793 -84.582)" fill="#fff2e8"/>
      <path id="Path_67" data-name="Path 67" d="M301.125,88.5v-3.7a.183.183,0,0,1,.056-.134.19.19,0,0,1,.14-.056h1.062q1.285,0,1.285,1.14a1.171,1.171,0,0,1-.212.743,1.015,1.015,0,0,1-.575.359l.782,1.473a.168.168,0,0,1,.022.084.271.271,0,0,1-.115.207.374.374,0,0,1-.243.1.266.266,0,0,1-.235-.174l-.816-1.6h-.564V88.5a.161.161,0,0,1-.087.143.394.394,0,0,1-.21.053.383.383,0,0,1-.2-.053A.16.16,0,0,1,301.125,88.5Zm.587-2.034h.67q.693,0,.693-.665t-.693-.665h-.67Z" transform="translate(-283.224 -84.582)" fill="#fff2e8"/>
      <path id="Path_68" data-name="Path 68" d="M331.226,84.888a.355.355,0,0,1,.05-.189.16.16,0,0,1,.145-.082h2.319a.162.162,0,0,1,.145.079.34.34,0,0,1,.05.186.361.361,0,0,1-.053.2.163.163,0,0,1-.142.082h-.86v3.341a.16.16,0,0,1-.089.142.436.436,0,0,1-.416,0,.161.161,0,0,1-.087-.142V85.164h-.866a.163.163,0,0,1-.143-.082A.35.35,0,0,1,331.226,84.888Z" transform="translate(-310.542 -84.583)" fill="#fff2e8"/>
      <path id="Path_69" data-name="Path 69" d="M188.806,409.326h7.266a.441.441,0,0,1,.441.441v.822a.441.441,0,0,1-.441.441h-7.266a.441.441,0,0,1-.441-.441v-.822A.441.441,0,0,1,188.806,409.326Z" transform="translate(-180.887 -379.277)" fill="#fff2e8"/>
      <path id="Path_70" data-name="Path 70" d="M156.47,373.714h13.356a.379.379,0,0,1,.379.379v.944a.379.379,0,0,1-.379.379H156.47a.379.379,0,0,1-.379-.379v-.944A.379.379,0,0,1,156.47,373.714Z" transform="translate(-151.597 -346.957)" fill="#fff2e8"/>
    </g>
  </g>
</svg>
