<svg xmlns="http://www.w3.org/2000/svg" width="512" height="512" viewBox="0 0 512 512">
  <g id="Group_713" data-name="Group 713" transform="translate(-3074 12940)">
    <circle id="Ellipse_53" data-name="Ellipse 53" cx="256" cy="256" r="256" transform="translate(3074 -12940)" fill="#f8f8f8"/>
    <path id="Path_945" data-name="Path 945" d="M442.272,405.7a95.017,95.017,0,0,0-39.424-18.208l-70.176-14.08A15.827,15.827,0,0,1,320,357.728v-16.1c4.512-6.336,8.768-14.752,13.216-23.552,3.456-6.816,8.672-17.088,11.264-19.744,14.208-14.272,27.936-30.3,32.192-50.976,3.968-19.392.064-29.568-4.512-37.76,0-20.448-.64-46.048-5.472-64.672-.576-25.216-5.152-39.392-16.672-51.808-8.128-8.8-20.1-10.848-29.728-12.48-3.776-.64-8.992-1.536-10.912-2.56A112.927,112.927,0,0,0,255.328,64c-42.144,1.728-93.952,28.544-111.3,76.352-5.376,14.56-4.832,38.464-4.384,57.664l-.416,11.552c-4.128,8.064-8.192,18.3-4.192,37.76,4.224,20.7,17.952,36.768,32.416,51.232,2.368,2.432,7.712,12.8,11.232,19.648,4.512,8.768,8.8,17.152,13.312,23.456v16.1a15.9,15.9,0,0,1-12.736,15.68l-70.24,14.08a95.226,95.226,0,0,0-39.3,18.176,16.037,16.037,0,0,0-1.888,23.3A254.252,254.252,0,0,0,256,512c71.776,0,140.384-30.24,188.16-83.008a16.031,16.031,0,0,0-1.888-23.3Z" transform="translate(3074 -12940)" fill="#888"/>
  </g>
</svg>
