<svg xmlns="http://www.w3.org/2000/svg" width="22.993" height="27" viewBox="0 0 22.993 27">
  <path id="Union_12" data-name="Union 12" d="M11.5,27a1.95,1.95,0,0,1-.381-.038,2.132,2.132,0,0,1-.261-.071,17.079,17.079,0,0,1-6.384-3.775A13.6,13.6,0,0,1,1.21,18.034C-.108,14.458-.033,10.518.027,7.353V7.3c.012-.242.02-.508.024-.839a2.862,2.862,0,0,1,2.695-2.8A11.109,11.109,0,0,0,10.305.476L10.323.46A1.724,1.724,0,0,1,11.491,0h.029A1.732,1.732,0,0,1,12.671.46l.017.016a11.109,11.109,0,0,0,7.558,3.186,2.862,2.862,0,0,1,2.695,2.8c0,.332.013.6.024.839v.026c.059,3.17.133,7.115-1.188,10.7a13.62,13.62,0,0,1-3.262,5.082,17.054,17.054,0,0,1-6.377,3.777,1.949,1.949,0,0,1-.263.072A1.98,1.98,0,0,1,11.52,27ZM4.81,13.5a6.746,6.746,0,0,0,6.686,6.79h.023a6.791,6.791,0,0,0,0-13.58H11.5A6.747,6.747,0,0,0,4.81,13.5Zm4.919,2.737L8.308,14.816a.8.8,0,1,1,1.13-1.13l.856.857,3.154-3.155a.8.8,0,0,1,1.13,1.13L11.52,15.577l-.661.661a.8.8,0,0,1-1.13,0Z" fill="#27c102"/>
</svg>
