<svg xmlns="http://www.w3.org/2000/svg" width="25.6" height="16" viewBox="0 0 25.6 16">
  <path id="Union_10" data-name="Union 10" d="M2626.8,2163a.8.8,0,0,1-.8-.8V2151a.8.8,0,0,1,.8-.8h20.8a.8.8,0,0,1,.8.8v11.2a.8.8,0,0,1-.8.8Zm.8-1.6h19.2v-9.6h-19.2Zm13.27-1.6v-1.6h2.73V2155h-2.73v-1.6h3.53a.8.8,0,0,1,.8.8v4.8a.8.8,0,0,1-.8.8Zm-4.47,0v-.33h-.611v-1.6h1.764a.258.258,0,1,0,0-.517h-.706a1.858,1.858,0,0,1-.448-3.661v-.292h1.6v.235h.612v1.6h-1.765a.259.259,0,0,0,0,.517h.706a1.857,1.857,0,0,1,.447,3.66v.387Zm-6.4,0a.8.8,0,0,1-.8-.8v-4.8a.8.8,0,0,1,.8-.8h3.53v1.6h-2.73v3.2h2.73v1.6Zm20-.706V2148.6h-20.188V2147H2650.8a.8.8,0,0,1,.8.8v11.294Z" transform="translate(-2626 -2147)" fill="#fff"/>
</svg>
