<svg xmlns="http://www.w3.org/2000/svg" width="19.198" height="16" viewBox="0 0 19.198 16">
  <path id="Path_905" data-name="Path 905" d="M18.967,42.783a.633.633,0,0,0-.642-.1L2.118,49.223a.32.32,0,1,0,.24.594L17.841,43.57l-7.68,9.058a.32.32,0,0,0,.488.414l7.8-9.2L17.4,49.076l-1.05,7.014a.32.32,0,0,1-.16.233.3.3,0,0,1-.27.012L11.56,54.619l-2.094-.877a.32.32,0,0,0-.419.171.306.306,0,0,0-.013.067H9.026L7.986,58,6.494,52.785l7.776-5.792a.32.32,0,1,0-.382-.512L6.072,52.3.438,50.019a.32.32,0,0,0-.24.593L5.862,52.9l1.51,5.273a.635.635,0,0,0,.612.459h.007a.629.629,0,0,0,.416-.167.282.282,0,0,0,.032-.022l3.093-3.163,4.147,1.645a.933.933,0,0,0,.823-.046.957.957,0,0,0,.482-.695l1.047-7,1.152-5.78A.643.643,0,0,0,18.967,42.783ZM8.883,57.08l.676-2.6,1.058.444.273.108Z" transform="translate(0 -42.636)" fill="#fff"/>
</svg>
