<svg xmlns="http://www.w3.org/2000/svg" width="30" height="30" viewBox="0 0 30 30">
  <path id="Union_1" data-name="Union 1" d="M7.576,29.518.482,22.495A1.659,1.659,0,0,1,0,21.255a1.953,1.953,0,0,1,.482-1.171l7.094-7.092a1.622,1.622,0,0,1,2.273,0l1.446,1.515a1.621,1.621,0,0,1,0,2.272l-1.86,1.859H28.416A1.558,1.558,0,0,1,30,20.222v2a1.617,1.617,0,0,1-1.584,1.653H9.3l2,1.928a1.621,1.621,0,0,1,0,2.272L9.849,29.518a1.37,1.37,0,0,1-1.1.482A1.662,1.662,0,0,1,7.576,29.518ZM8.54,13.956,1.446,21.049a.344.344,0,0,0,0,.413L8.54,28.554a.227.227,0,0,0,.344,0l1.446-1.446a.307.307,0,0,0,0-.344l-3.168-3.1a.629.629,0,0,1-.138-.757.6.6,0,0,1,.62-.413H28.416a.245.245,0,0,0,.275-.275h0V20.153c0-.138-.138-.138-.207-.138H7.782a.662.662,0,0,1-.62-.413.629.629,0,0,1,.138-.757l3.03-3.1a.313.313,0,0,0,0-.344L8.816,13.956c0-.069-.069-.069-.138-.069A.213.213,0,0,0,8.54,13.956Zm11.611,3.035-1.446-1.446a1.621,1.621,0,0,1,0-2.272l2-1.928H1.584A1.617,1.617,0,0,1,0,9.692v-2A1.558,1.558,0,0,1,1.584,6.111H20.565L18.705,4.252a1.621,1.621,0,0,1,0-2.272L20.151.465a1.622,1.622,0,0,1,2.273,0l7.094,7.092A1.953,1.953,0,0,1,30,8.728a1.659,1.659,0,0,1-.482,1.239l-7.094,7.024a1.662,1.662,0,0,1-1.171.482A1.37,1.37,0,0,1,20.151,16.991ZM1.309,7.626V9.692h0a.245.245,0,0,0,.275.275H22.355a.6.6,0,0,1,.62.413.629.629,0,0,1-.138.757l-3.168,3.1a.307.307,0,0,0,0,.344l1.446,1.446a.227.227,0,0,0,.344,0l7.094-7.093a.344.344,0,0,0,0-.413L21.46,1.429a.213.213,0,0,0-.138-.069c-.069,0-.138,0-.138.069L19.669,2.875a.313.313,0,0,0,0,.344l3.03,3.1a.628.628,0,0,1,.138.757.662.662,0,0,1-.62.413H1.515C1.446,7.489,1.309,7.489,1.309,7.626Z" transform="translate(0 0)"/>
</svg>
