<svg xmlns="http://www.w3.org/2000/svg" width="14.861" height="16" viewBox="0 0 14.861 16">
  <path id="Union_10" data-name="Union 10" d="M-1990,2163v-9.479h10.724V2163Zm4.17-5.538a1.185,1.185,0,0,0,.681,1.071v1.813h1.021v-1.813a1.184,1.184,0,0,0,.68-1.071,1.188,1.188,0,0,0-1.192-1.185A1.188,1.188,0,0,0-1985.83,2157.462Zm9.667-5.045v-1.947a2.468,2.468,0,0,0-2.476-2.454,2.468,2.468,0,0,0-2.475,2.454v1.947h-1.024v-1.947a3.489,3.489,0,0,1,3.5-3.47,3.49,3.49,0,0,1,3.5,3.47v1.947Z" transform="translate(1990 -2147)" fill="#fff"/>
</svg>
