<svg height="512pt" viewBox="0 0 512 512" width="512pt" xmlns="http://www.w3.org/2000/svg"><path d="m346 86.296875h-181c-8.285156 0-15 6.714844-15 15 0 8.28125 6.714844 15 15 15h181c8.285156 0 15-6.71875 15-15 0-8.285156-6.714844-15-15-15zm0 0"/><path d="m346 158.296875h-181c-8.285156 0-15 6.714844-15 15 0 8.28125 6.714844 15 15 15h181c8.285156 0 15-6.71875 15-15 0-8.285156-6.714844-15-15-15zm0 0"/><path d="m165 426.296875h181c8.285156 0 15-6.71875 15-15 0-8.285156-6.714844-15-15-15h-181c-8.285156 0-15 6.714844-15 15 0 8.28125 6.714844 15 15 15zm0 0"/><path d="m472 209.792969h-25v-169.792969c0-22.054688-17.941406-40-40-40h-302c-22.058594 0-40 17.945312-40 40v169.792969h-25c-22.054688 0-40 17.941406-40 40v89.992187c0 22.058594 17.945312 40 40 40h25v92.214844c0 22.054688 17.941406 40 40 40h302c22.058594 0 40-17.945312 40-40v-92.214844h25c22.054688 0 40-17.941406 40-40v-89.992187c0-22.058594-17.945312-40-40-40zm10 129.992187c0 5.515625-4.484375 10-10 10h-432c-5.515625 0-10-4.484375-10-10v-89.992187c0-5.515625 4.484375-10 10-10h432c5.515625 0 10 4.484375 10 10zm-387-299.785156c0-5.515625 4.484375-10 10-10h302c5.515625 0 10 4.484375 10 10v169.792969h-322zm322 432c0 5.515625-4.484375 10-10 10h-302c-5.515625 0-10-4.484375-10-10v-92.214844h322zm0 0"/><path d="m358 279.789062c-3.949219 0-7.808594 1.601563-10.609375 4.390626-2.789063 2.800781-4.390625 6.660156-4.390625 10.609374 0 3.949219 1.601562 7.808594 4.390625 10.609376 2.800781 2.789062 6.660156 4.390624 10.609375 4.390624s7.808594-1.601562 10.609375-4.390624c2.789063-2.800782 4.390625-6.660157 4.390625-10.609376 0-3.949218-1.601562-7.820312-4.390625-10.609374-2.800781-2.789063-6.660156-4.390626-10.609375-4.390626zm0 0"/><path d="m415.609375 284.179688c-2.800781-2.789063-6.660156-4.390626-10.609375-4.390626s-7.808594 1.601563-10.609375 4.390626c-2.789063 2.800781-4.390625 6.660156-4.390625 10.609374 0 3.949219 1.601562 7.808594 4.390625 10.609376 2.800781 2.789062 6.660156 4.390624 10.609375 4.390624s7.808594-1.601562 10.609375-4.390624c2.789063-2.800782 4.390625-6.660157 4.390625-10.609376 0-3.949218-1.601562-7.820312-4.390625-10.609374zm0 0"/><path d="m308 279.296875h-124c-8.285156 0-15 6.714844-15 15 0 8.28125 6.714844 15 15 15h124c8.285156 0 15-6.71875 15-15 0-8.285156-6.714844-15-15-15zm0 0"/></svg>